<?xml version="1.0" encoding="utf-8"?>
<!-- Generator: Adobe Illustrator 25.0.1, SVG Export Plug-In . SVG Version: 6.00 Build 0)  -->
<svg version="1.1" id="Calque_1" xmlns="http://www.w3.org/2000/svg" xmlns:xlink="http://www.w3.org/1999/xlink" x="0px" y="0px"
	 viewBox="0 0 950 950" style="enable-background:new 0 0 950 950;" xml:space="preserve">
<style type="text/css">
	.st0{fill:#fef7f1;}
</style>
<g id="Ñëîé_2">
	<path class="st0" d="M948,478.6c1.3-1.3,2-2.4,2-3.6s-0.7-2.3-2-3.6c-77.1-75.5-70.2-61.5-63.9-72.7c5.3-9.5,13-23.4,19.7-34
		c1.4-2.2,2.2-3.5,2.2-4.6c0-0.2,0-0.4-0.1-0.5c-0.1-0.2-0.1-0.4-0.2-0.5c-0.6-1-1.8-1.7-4.2-2.9c-11.1-5.9-24.7-14.1-34.1-19.6
		c-11-6.6-10,9,19-94.9c0.5-1.8,0.5-3.1-0.1-4.1s-1.7-1.6-3.5-2.1c-104.5-26.8-91.5-18.1-91.7-31c-0.2-10.9-0.4-26.8,0-39.3
		c0.1-2.6,0.1-4.1-0.4-5.1c-0.2-0.3-0.4-0.6-0.8-0.8c-1-0.6-2.4-0.5-5.1-0.4c-12.6,0.4-28.4,0.2-39.3,0c-12.8-0.2-4.2,12.9-31-91.7
		c-0.5-1.8-1.1-2.9-2.1-3.5s-2.3-0.6-4.1-0.1c-103.9,29-88.3,30-94.9,19c-5.6-9.4-13.7-23-19.6-34.1c-1.2-2.3-1.9-3.6-2.9-4.2
		c-0.2-0.1-0.3-0.2-0.5-0.2c-0.2,0-0.4-0.1-0.5-0.1c-1.1,0-2.4,0.8-4.6,2.2c-10.7,6.6-24.5,14.4-34,19.7C540,72.2,554,79.1,478.6,2
		c-1.3-1.3-2.4-2-3.6-2s-2.3,0.7-3.6,2c-75.5,77.1-61.5,70.2-72.7,63.9c-9.5-5.3-23.4-13.1-34-19.7c-2.2-1.4-3.5-2.2-4.6-2.2
		c-0.2,0-0.4,0-0.5,0.1c-0.2,0.1-0.4,0.1-0.5,0.2c-1,0.6-1.7,1.9-2.9,4.2c-5.9,11.1-14.1,24.7-19.6,34.1c-6.6,11,9,10-94.9-19
		c-1.8-0.5-3.1-0.5-4.1,0.1s-1.6,1.7-2.1,3.5c-26.8,104.5-18.1,91.5-31,91.7c-10.9,0.1-26.8,0.4-39.3,0c-2.6-0.1-4.1-0.1-5.1,0.4
		c-0.3,0.2-0.6,0.4-0.8,0.8c-0.6,1-0.5,2.4-0.4,5.1c0.4,12.6,0.2,28.4,0,39.3c-0.2,12.8,12.9,4.1-91.6,31c-1.8,0.5-2.9,1.1-3.5,2.1
		s-0.6,2.3-0.1,4.1c29,103.9,30,88.3,19,94.9c-9.4,5.6-23,13.7-34.1,19.6c-2.3,1.2-3.6,1.9-4.2,2.9c-0.1,0.2-0.2,0.3-0.2,0.5
		c0,0.2-0.1,0.4-0.1,0.5c0,1.1,0.8,2.4,2.2,4.6c6.6,10.7,14.4,24.5,19.7,34c6.3,11.2,13.2-2.8-63.9,72.7c-1.3,1.3-2,2.4-2,3.6
		s0.7,2.3,2,3.6c77.1,75.5,70.2,61.5,63.9,72.7c-5.3,9.5-13.1,23.4-19.7,34c-1.4,2.2-2.2,3.5-2.2,4.6c0,0.2,0,0.4,0.1,0.5
		c0.1,0.2,0.1,0.4,0.2,0.5c0.6,1,1.9,1.7,4.2,2.9c11.1,5.9,24.7,14.1,34.1,19.6c11,6.6,10-9-19,94.9c-0.5,1.8-0.5,3.1,0.1,4.1
		s1.7,1.7,3.5,2.1c104.5,26.8,91.5,18.1,91.7,31c0.1,10.9,0.4,26.8,0,39.3c-0.1,2.7-0.1,4.1,0.4,5.1c0.2,0.3,0.4,0.6,0.8,0.8
		c1,0.6,2.4,0.5,5.1,0.4c12.6-0.4,28.4-0.2,39.3,0c12.8,0.2,4.1-12.8,31,91.7c0.5,1.8,1.1,2.9,2.1,3.5s2.3,0.6,4.1,0.1
		c103.9-29,88.3-30,94.9-19c5.6,9.4,13.7,23,19.6,34.1c1.2,2.3,1.9,3.6,2.9,4.2c0.2,0.1,0.3,0.2,0.5,0.2c0.2,0,0.4,0.1,0.5,0.1
		c1.1,0,2.4-0.8,4.6-2.2c10.7-6.6,24.5-14.4,34-19.7c11.2-6.3-2.8-13.2,72.7,63.9c1.3,1.3,2.4,2,3.6,2s2.3-0.7,3.6-2
		c75.5-77.1,61.5-70.2,72.7-63.9c9.5,5.3,23.4,13,34,19.7c2.2,1.4,3.5,2.2,4.6,2.2c0.2,0,0.4,0,0.5-0.1c0.2-0.1,0.4-0.1,0.5-0.2
		c1-0.6,1.7-1.8,2.9-4.2c5.9-11.1,14.1-24.7,19.6-34.1c6.6-11-9-10,94.9,19c1.8,0.5,3.1,0.5,4.1-0.1s1.7-1.7,2.1-3.5
		c26.8-104.5,18.1-91.5,31-91.7c10.9-0.2,26.8-0.4,39.3,0c2.7,0.1,4.1,0.1,5.1-0.4c0.3-0.2,0.6-0.4,0.8-0.8c0.6-1,0.5-2.4,0.4-5.1
		c-0.4-12.6-0.2-28.4,0-39.3c0.2-12.8-12.8-4.2,91.7-31c1.8-0.5,2.9-1.1,3.5-2.1s0.6-2.3,0.1-4.1c-29-103.9-30-88.3-19-94.9
		c9.4-5.6,23-13.7,34.1-19.6c2.3-1.2,3.6-1.9,4.2-2.9c0.1-0.2,0.2-0.3,0.2-0.5c0-0.2,0.1-0.4,0.1-0.5c0-1.1-0.8-2.4-2.2-4.6
		c-6.6-10.7-14.4-24.5-19.7-34C877.9,540,870.9,554.1,948,478.6z M940.6,472h-18.4c-2.7,0-5.3-1-7.3-2.8
		c-50.5-45.7-48.2-39.5-37.7-58.6C890.1,422.3,930.7,460.8,940.6,472z M850.3,475c-15,10.7-6.9,10.9-30,0
		C843.4,464.1,835.3,464.3,850.3,475z M843,463c12.1-13.5,5.4-17.9,35.4,9h-23c-0.8,0-1.5-0.3-2.1-0.8
		C851.2,469.3,847.8,466.8,843,463z M853.3,478.8c0.6-0.5,1.3-0.8,2.1-0.8h23c-30.1,26.8-23.3,22.5-35.4,9
		C847.8,483.2,851.2,480.7,853.3,478.8L853.3,478.8z M882.3,481.2c2.5-2.1,5.7-3.2,9-3.2h18.5c-0.2,0.2-0.4,0.5-0.6,0.7l-43,40.1
		l-9.9-15.9C856.7,502.5,874.4,487.9,882.3,481.2L882.3,481.2z M891.3,472c-3.3,0-6.5-1.1-9-3.2c-8-6.6-25.7-21.3-26-21.6l9.9-15.9
		l42.9,40.1c0.2,0.2,0.4,0.4,0.6,0.7L891.3,472z M789,471.6l-1.7-7.2c52.1-3.6,62-32.4,95.5-92.9c1.1-2,2.9-3.4,5.1-3.9
		c3-0.8,5.9-1.6,8.8-2.5C846,456.2,843,474.8,789,471.6z M671.4,761.4c-43.4-31.8-8.3-33.2-7.6-71.8
		C681.9,721.5,663,727.2,671.4,761.4z M592.9,823.1c-15.1-30-27.3-17.9-16.9-39.4c36.5,45.1,47.5,22.8,23.8,70.4
		C601.2,842.7,598.5,834.1,592.9,823.1z M578,768.4c56.2,27.4,50.4,23.3,40.4,51.5C604.3,798.7,578.4,792.2,578,768.4z M566.5,745.8
		c33.7,18.7,52.5-11,58.3,42.5C599.5,764,585,777.4,566.5,745.8L566.5,745.8z M546.9,835.4c0.7,12.3,2.7,21.1,9.5,30.3
		c-44.4-29.4-23.7-15.6-14.6-72.9C561.5,806.2,545,801.9,546.9,835.4z M408.2,792.9c9.1,57.3,29.8,43.5-14.6,72.9
		c6.8-9.2,8.8-18,9.5-30.3C405,801.9,388.5,806.2,408.2,792.9z M350.2,854.1c-23.8-47.6-12.7-25.3,23.8-70.4
		c10.4,21.4-1.8,9.4-16.9,39.4C351.5,834.1,348.9,842.7,350.2,854.1L350.2,854.1z M331.6,819.8c-10-28.2-15.8-24.1,40.4-51.5
		C371.6,792.2,345.7,798.7,331.6,819.8L331.6,819.8z M325.2,788.3c5.8-53.5,24.6-23.8,58.3-42.5C365,777.4,350.5,764,325.2,788.3
		L325.2,788.3z M286.3,689.6c0.7,38.5,35.8,40-7.6,71.8C287,727.2,268.1,721.5,286.3,689.6L286.3,689.6z M278.6,188.6
		c43.4,31.8,8.3,33.2,7.6,71.8C268.1,228.5,287,222.8,278.6,188.6L278.6,188.6z M357.1,127c15.1,30,27.3,17.9,16.9,39.4
		c-36.5-45.1-47.5-22.8-23.8-70.4C348.9,107.3,351.5,115.9,357.1,127L357.1,127z M372,181.6c-56.2-27.4-50.4-23.3-40.4-51.5
		C345.7,151.4,371.6,157.8,372,181.6z M383.5,204.2c-33.7-18.7-52.5,11-58.3-42.5C350.5,186,365,172.6,383.5,204.2z M403.1,114.6
		c-0.7-12.4-2.7-21.1-9.5-30.4c44.4,29.4,23.7,15.6,14.6,72.9C388.5,143.8,405,148.1,403.1,114.6L403.1,114.6z M541.8,157.1
		c-9.1-57.3-29.8-43.5,14.6-72.9c-6.8,9.2-8.8,18-9.5,30.4C545,148.1,561.5,143.8,541.8,157.1L541.8,157.1z M599.8,95.9
		c23.8,47.6,12.7,25.3-23.8,70.4c-10.4-21.4,1.8-9.4,16.9-39.4C598.5,115.9,601.2,107.3,599.8,95.9L599.8,95.9z M618.4,130.2
		c10,28.2,15.8,24.1-40.4,51.5C578.4,157.8,604.3,151.4,618.4,130.2L618.4,130.2z M624.8,161.7c-5.8,53.5-24.7,23.8-58.3,42.5
		C585,172.6,599.5,186,624.8,161.7L624.8,161.7z M663.7,260.4c-0.7-38.5-35.8-40,7.6-71.8C663,222.8,681.9,228.5,663.7,260.4
		L663.7,260.4z M490,739c11.1-10.6,11.4-18.6,13.7-26.2l13.3,2.9c0,18.5-17.6,44.3-39.1,46.9v-17.3C482.2,744.8,486.1,742.7,490,739
		z M478,739.7v-17.1c2.2-1,4-2.6,5.2-4.7c2.6-4.1,4.2-8.7,6.2-13.1c7.5,4.8,9.2,5.8,9.1,6.7C495,729.9,485.4,737.9,478,739.7
		L478,739.7z M477.7,659.8c16.2-1.6,33.2-14,34.6-29.5c7.3,24.7,8.3,25.9,5.8,27.8c-17.9,14-11.1,42.5,9,43.7c1.4,0.1,2.8,0.4,4.1,1
		c0.8,0.4,1.5,1,2,1.7c1.2,1.7,1.4,3.9,1.5,6c0,0.2,0,0.3,0.1,0.5c-5.6,0.8-11.3,0.7-16.8-0.5C494.1,706,480.5,697,477.7,659.8
		L477.7,659.8z M460,211c-11.1,10.6-11.4,18.6-13.7,26.2l-13.3-2.9c0-18.5,17.6-44.3,39.1-46.9v17.4
		C467.8,205.2,463.9,207.3,460,211z M472,210.4v17.1c-2.2,1-4,2.6-5.2,4.7c-2.6,4.1-4.2,8.7-6.2,13.1c-7.5-4.8-9.2-5.8-9.1-6.7
		C455,220.1,464.6,212.1,472,210.4L472,210.4z M472.3,290.2c-16.2,1.6-33.2,14-34.6,29.5c-7.3-24.7-8.3-25.9-5.8-27.8
		c17.9-14,11.1-42.5-9-43.7c-1.4-0.1-2.8-0.4-4.1-1c-0.8-0.4-1.5-1-2-1.7c-1.2-1.7-1.4-3.9-1.5-6c0-0.2,0-0.3-0.1-0.5
		c5.6-0.8,11.3-0.7,16.8,0.5C455.9,244,469.5,253,472.3,290.2L472.3,290.2z M739.7,472h-17.1c-1-2.2-2.6-4-4.7-5.2
		c-4.1-2.6-8.7-4.2-13.1-6.2c4.8-7.5,5.8-9.2,6.7-9.1C729.9,455,737.9,464.6,739.7,472z M712.8,446.2l2.9-13.3
		c18.5,0,44.3,17.6,46.9,39.1h-17.4c-0.5-4.2-2.6-8.2-6.3-12C728.5,448.8,720.5,448.5,712.8,446.2L712.8,446.2z M716.4,475
		c0,1.2-0.7,2.3-1.8,2.9c-15.7,10-16,5.8-33.4-2.9c17.3-8.8,17.7-13,33.4-2.9C715.7,472.7,716.4,473.8,716.4,475z M710.5,431.9
		c-4.5,24-13.5,37.5-50.7,40.4c-1.6-16.2-14-33.2-29.5-34.6c24.7-7.3,25.9-8.3,27.8-5.8c14,17.9,42.5,11.1,43.7-9
		c0.1-1.4,0.4-2.8,1-4.1c0.4-0.8,1-1.5,1.7-2c1.7-1.2,3.9-1.4,6-1.5c0.2,0,0.3,0,0.5-0.1C711.9,420.8,711.7,426.4,710.5,431.9
		L710.5,431.9z M608.5,552.1c3.3-5.8-1.7-16.3-20.6-22.2c9.1-5.1,8.6-5.1,14.1-2.6c17.4,7.8,20.5,21.3,15.5,30s-18.3,12.7-33.7,1.6
		c-4.9-3.5-4.7-3.1-4.8-13.6C593.6,558.8,605.2,557.8,608.5,552.1L608.5,552.1z M578.7,534.9c0.5-0.9,1.5-1.3,2.5-1
		c11.5,3.5,26.6,8.9,22.4,15.3c-3.5,6.9-15.7-3.5-24.5-11.7C578.4,536.8,578.2,535.7,578.7,534.9L578.7,534.9z M565.9,522.5
		c0.2-1.8,0.5-3.6,0.9-5.4c9.9,0.8,24.4,2,27.8-10.1c3.1-12.2-10.1-18.4-19-22.6c0.5-1.7,1.1-3.5,1.9-5.1c3-6,30.3,9.3,24.2,29.6
		C596.8,529.6,565.6,529.2,565.9,522.5z M475,572.5c-17-0.3-18.5-22.7-14.2-23.9c6.7-1.8,11.3-5.4,14.2-11c2.9,5.6,7.6,9.2,14.2,11
		C493.5,549.8,492,572.2,475,572.5L475,572.5z M477.1,596.4c2.7,11.7,5.6,27.5-2.1,27.1c-7.7,0.5-4.8-15.4-2.1-27.1
		c0.3-1.2,1.4-1.9,2.6-1.6C476.3,595,476.9,595.6,477.1,596.4L477.1,596.4z M341.5,552.1c3.3,5.8,15,6.7,29.5-6.8
		c-0.1,10.4,0.1,10-4.8,13.6c-15.5,11.1-28.7,7.1-33.7-1.6s-1.9-22.2,15.5-30c5.5-2.5,5.1-2.5,14.1,2.6
		C343.2,535.8,338.1,546.3,341.5,552.1z M370.9,537.5c-8.8,8.2-21,18.6-24.5,11.7c-4.2-6.4,10.9-11.9,22.4-15.3
		c1.1-0.4,2.3,0.3,2.7,1.4C371.7,536.1,371.5,537,370.9,537.5z M348.3,509c-6.1-20.3,21.2-35.6,24.2-29.6c0.7,1.7,1.4,3.4,1.9,5.1
		c-9,4.2-22.1,10.4-19,22.6c3.4,12.1,17.9,10.9,27.8,10.1c0.4,1.8,0.7,3.6,0.9,5.4C384.4,529.2,353.2,529.6,348.3,509z M341.5,397.9
		c-3.3,5.8,1.7,16.3,20.6,22.2c-9.1,5.1-8.6,5.1-14.1,2.6c-17.4-7.8-20.5-21.3-15.5-30s18.3-12.7,33.7-1.6c4.9,3.5,4.7,3.1,4.8,13.6
		C356.4,391.2,344.8,392.2,341.5,397.9z M371.3,415.1c-0.5,0.9-1.5,1.3-2.5,1c-11.5-3.5-26.6-8.9-22.4-15.3
		c3.5-6.9,15.7,3.5,24.5,11.7C371.6,413.2,371.8,414.3,371.3,415.1L371.3,415.1z M384.1,427.5c-0.2,1.8-0.5,3.6-0.9,5.4
		c-9.9-0.8-24.4-2-27.8,10.1c-3.1,12.2,10.1,18.4,19,22.6c-0.5,1.7-1.1,3.5-1.9,5.1c-3,6-30.3-9.3-24.2-29.6
		C353.2,420.4,384.4,420.8,384.1,427.5z M475,377.5c17,0.3,18.5,22.7,14.2,23.9c-6.7,1.8-11.3,5.4-14.2,11c-2.9-5.6-7.6-9.2-14.2-11
		C456.5,400.2,458,377.8,475,377.5L475,377.5z M472.9,353.6c-2.7-11.7-5.6-27.5,2.1-27.1c7.7-0.5,4.8,15.4,2.1,27.1
		c-0.3,1.2-1.4,1.9-2.6,1.6C473.7,355,473.1,354.4,472.9,353.6L472.9,353.6z M608.5,397.9c-3.3-5.8-15-6.7-29.5,6.8
		c0.1-10.4-0.1-10,4.8-13.6c15.5-11.1,28.7-7.1,33.7,1.6s1.9,22.2-15.5,30c-5.5,2.5-5.1,2.5-14.1-2.6
		C606.8,414.2,611.9,403.7,608.5,397.9z M579.1,412.5c8.8-8.2,21-18.6,24.5-11.7c4.2,6.4-10.9,11.9-22.4,15.3
		c-1.1,0.4-2.3-0.3-2.7-1.4C578.3,413.9,578.5,413,579.1,412.5z M601.7,441.1c6.1,20.3-21.2,35.6-24.2,29.6
		c-0.7-1.7-1.4-3.4-1.9-5.1c9-4.2,22.1-10.4,19-22.6c-3.4-12.1-17.9-10.9-27.8-10.1c-0.4-1.8-0.7-3.6-0.9-5.4
		C565.6,420.8,596.8,420.4,601.7,441.1L601.7,441.1z M596.5,472.9c11.7-2.7,27.5-5.6,27.1,2.1c0.5,7.7-15.4,4.8-27.1,2.1
		c-1.2-0.3-1.9-1.4-1.6-2.6C595,473.7,595.7,473.1,596.5,472.9L596.5,472.9z M534,534c17.1,4.3,21.7,5.5,26.3,12.1
		c2.9,4.1,1.6,9-1.8,12.4s-8.3,4.7-12.4,1.8C539.5,555.7,538.3,551.1,534,534L534,534L534,534z M531.7,524.2
		c1.8-6.7,1-12.5-2.4-17.8c6.3,0.3,11.8-2,16.7-6.8c3.2-3.1,21.8,9.4,13.6,24.2C550.7,538.3,530.6,528.5,531.7,524.2L531.7,524.2z
		 M502.3,502.5h0.2v-0.2c4.7,1.1,9.6,2.9,14.8,0.2c7,0.6,13.7,16.4,7.6,22.4s-21.8-0.7-22.4-7.6
		C505.3,512.1,503.4,507.2,502.3,502.5L502.3,502.5z M502.6,432.6c0.6-7,16.4-13.7,22.4-7.6s-0.7,21.8-7.6,22.4
		c-5.2-2.7-10.2-0.8-14.8,0.2v-0.2h-0.2C503.4,442.8,505.3,437.9,502.6,432.6L502.6,432.6z M531.7,425.8c-1.1-4.3,19-14.2,27.8,0.4
		c8.2,14.9-10.4,27.4-13.6,24.2c-4.9-4.8-10.3-7.1-16.7-6.8C532.7,438.4,533.5,432.5,531.7,425.8L531.7,425.8z M534,416
		c4.3-17.1,5.5-21.7,12.1-26.3c4.1-2.9,9-1.6,12.4,1.8s4.7,8.3,1.8,12.4C555.7,410.5,551.1,411.7,534,416L534,416L534,416z
		 M543.3,456.7c2.3,8.2-11.5,18.5-17.8,15.6c-3.2-5-8.4-5.8-13-7.2l0.1-0.1h-0.2c3.3-3.5,7.3-6.8,7.6-12.8
		C524.1,446.4,541.2,448.5,543.3,456.7L543.3,456.7z M519.9,475c0,3.7-10.6,7.5-27.2,0C509.3,467.5,519.9,471.3,519.9,475z
		 M513.9,452.6c1.8,3.2-5.4,11.8-23.5,13.6C501,451.4,512,449.4,513.9,452.6L513.9,452.6z M483.9,459.7
		c1.8-18.1,10.4-25.4,13.6-23.5S498.6,449,483.9,459.7L483.9,459.7z M490.3,483.8c18.1,1.8,25.4,10.4,23.5,13.6
		S501,498.6,490.3,483.8L490.3,483.8z M497.5,513.8c-3.2,1.8-11.8-5.4-13.6-23.5C498.6,501,500.6,512,497.5,513.8L497.5,513.8z
		 M520.1,497.8c-0.3-5.9-4.3-9.2-7.6-12.8h0.2l-0.1-0.1c4.6-1.4,9.8-2.3,13-7.2c6.3-2.9,20.1,7.4,17.8,15.6
		C541.2,501.5,524.1,503.6,520.1,497.8L520.1,497.8z M555.6,496.6L555.6,496.6L555.6,496.6c16.9-4.8,21.5-6.1,28.8-2.7
		c4.5,2.1,5.9,7,4.6,11.7s-4.9,8.3-9.8,7.8C571.2,512.6,567.9,509.2,555.6,496.6L555.6,496.6z M548.7,489.2
		c-1.8-6.7-5.4-11.3-11-14.2c5.6-2.9,9.2-7.6,11-14.2c1.2-4.3,23.5-2.8,23.9,14.2C572.2,492,549.8,493.5,548.7,489.2L548.7,489.2z
		 M555.7,453.4L555.7,453.4L555.7,453.4c12.3-12.6,15.6-16,23.6-16.8c5-0.5,8.6,3.1,9.8,7.8s-0.1,9.6-4.6,11.7
		C577.2,459.5,572.5,458.2,555.7,453.4L555.7,453.4z M561.7,420c-1.5-1.1-2.9-2.2-4.2-3.5c5.7-8.1,14-20.1,5.2-29.1
		c-9-8.8-21-0.5-29.1,5.2c-1.3-1.3-2.4-2.7-3.5-4.2c-3.6-5.6,23.2-21.6,37.8-6.2C583.2,396.8,567.2,423.7,561.7,420L561.7,420z
		 M534,368.7c3.5-11.5,8.9-26.6,15.3-22.4c6.9,3.5-3.5,15.7-11.7,24.5c-0.8,0.9-2.2,0.9-3,0.1C534,370.4,533.8,369.5,534,368.7z
		 M545.3,371c13.5-14.5,12.5-26.2,6.8-29.5s-16.3,1.7-22.2,20.6c-5.1-9.1-5.1-8.6-2.6-14.1c7.8-17.4,21.3-20.5,30-15.5
		s12.7,18.3,1.6,33.7C555.4,371.1,555.8,370.8,545.3,371z M524.2,418.4c-6.7-1.8-12.5-1-17.8,2.4c0.3-6.3-2-11.8-6.8-16.7
		c-3.1-3.2,9.4-21.8,24.2-13.6C538.3,399.3,528.5,419.4,524.2,418.4L524.2,418.4z M513.4,370.8c-0.7,8-4.1,11.4-16.8,23.6l0,0l0,0
		c-4.8-16.9-6.1-21.5-2.7-28.8c2.1-4.5,7-5.9,11.7-4.6S513.8,365.8,513.4,370.8L513.4,370.8z M493.3,406.8
		c8.3,2.1,10.3,19.2,4.6,23.2c-5.9,0.3-9.2,4.3-12.8,7.6v-0.2l-0.1,0.1c-1.4-4.6-2.3-9.8-7.2-13
		C474.8,418.2,485.1,404.4,493.3,406.8L493.3,406.8z M475,457.3c-7.5-16.6-3.7-27.2,0-27.2S482.5,440.7,475,457.3z M475,519.9
		c-3.7,0-7.5-10.6,0-27.2C482.5,509.3,478.7,519.9,475,519.9z M472.3,424.5c-5,3.2-5.8,8.4-7.2,13l-0.1-0.1v0.2
		c-3.5-3.3-6.8-7.3-12.8-7.6c-5.7-4-3.7-21.1,4.6-23.2C464.9,404.4,475.2,418.2,472.3,424.5L472.3,424.5z M447.4,517.4
		c-0.6,7-16.4,13.7-22.4,7.6s0.7-21.8,7.6-22.4c5.2,2.7,10.2,0.8,14.8-0.2v0.2h0.2C446.6,507.2,444.7,512.1,447.4,517.4z
		 M418.3,524.2c1.1,4.3-19,14.2-27.8-0.4c-8.2-14.9,10.4-27.4,13.6-24.2c4.9,4.8,10.3,7.1,16.7,6.8
		C417.3,511.6,416.5,517.5,418.3,524.2z M416,534c-4.3,17.1-5.5,21.7-12.1,26.3c-4.1,2.9-9,1.6-12.4-1.8s-4.7-8.3-1.8-12.4
		C394.3,539.5,398.9,538.3,416,534L416,534L416,534z M416,416c-17.1-4.3-21.7-5.5-26.3-12.1c-2.9-4.1-1.6-9,1.8-12.4
		s8.3-4.7,12.4-1.8C410.5,394.3,411.7,398.9,416,416L416,416L416,416z M418.3,425.8c-1.8,6.7-1,12.5,2.4,17.8
		c-6.3-0.3-11.8,2-16.7,6.8c-3.2,3.1-21.8-9.4-13.6-24.2C399.3,411.7,419.4,421.5,418.3,425.8L418.3,425.8z M447.7,447.5h-0.2v0.2
		c-4.7-1.1-9.6-2.9-14.8-0.2c-7-0.7-13.7-16.4-7.6-22.4s21.8,0.7,22.4,7.6C444.7,437.9,446.6,442.8,447.7,447.5L447.7,447.5z
		 M436.2,452.6c1.8-3.2,12.9-1.2,23.5,13.6C441.6,464.3,434.3,455.7,436.2,452.6L436.2,452.6z M457.3,475c-16.6,7.5-27.2,3.7-27.2,0
		S440.7,467.5,457.3,475z M429.9,452.1c0.3,5.9,4.3,9.2,7.6,12.8h-0.2l0.1,0.1c-4.6,1.4-9.8,2.3-13,7.2c-6.3,2.9-20.1-7.4-17.8-15.6
		C408.8,448.5,425.9,446.4,429.9,452.1z M394.4,453.4L394.4,453.4L394.4,453.4c-16.9,4.8-21.5,6.1-28.8,2.7c-4.5-2.1-5.9-7-4.6-11.7
		s4.9-8.3,9.8-7.8C378.8,437.4,382.1,440.8,394.4,453.4z M401.3,460.8c1.8,6.7,5.4,11.3,11,14.2c-5.6,2.9-9.2,7.6-11,14.2
		c-1.2,4.3-23.5,2.8-23.9-14.2C377.8,458,400.2,456.5,401.3,460.8z M394.3,496.6L394.3,496.6L394.3,496.6
		c-12.3,12.6-15.6,16-23.6,16.8c-5,0.5-8.6-3.1-9.8-7.8s0.1-9.6,4.6-11.7C372.8,490.5,377.5,491.8,394.3,496.6L394.3,496.6z
		 M406.7,493.3c-2.3-8.2,11.5-18.5,17.8-15.6c3.2,5,8.4,5.8,13,7.2l-0.1,0.1h0.2c-3.3,3.5-7.3,6.8-7.6,12.8
		C425.9,503.6,408.8,501.5,406.7,493.3L406.7,493.3z M436.1,497.4c-1.8-3.2,5.4-11.8,23.5-13.6C449,498.6,438,500.6,436.1,497.4
		L436.1,497.4z M466.1,490.3c-1.8,18.1-10.4,25.4-13.6,23.5S451.4,501,466.1,490.3L466.1,490.3z M452.5,436.2
		c3.2-1.8,11.8,5.4,13.6,23.5C451.4,449,449.4,438,452.5,436.2L452.5,436.2z M453.4,394.4L453.4,394.4L453.4,394.4
		c-12.6-12.3-16-15.6-16.8-23.6c-0.5-5,3.1-8.6,7.8-9.8s9.6,0.1,11.7,4.6C459.5,372.8,458.2,377.5,453.4,394.4L453.4,394.4z
		 M450.4,404.1c-4.8,4.9-7.1,10.3-6.8,16.7c-5.3-3.4-11.2-4.2-17.8-2.4c-4.3,1.1-14.2-19,0.4-27.8
		C441.1,382.3,453.6,400.9,450.4,404.1L450.4,404.1z M397.9,341.5c-5.8,3.3-6.7,15,6.8,29.5c-10.4-0.1-10,0.1-13.6-4.8
		c-11.1-15.5-7.1-28.7,1.6-33.7s22.2-1.9,30,15.5c2.5,5.5,2.5,5.1-2.6,14.1C414.2,343.2,403.7,338.1,397.9,341.5z M415.1,371.3
		c-0.9,0.5-2,0.4-2.7-0.4c-8.2-8.8-18.6-21-11.7-24.5c6.4-4.2,11.9,10.9,15.3,22.4C416.4,369.7,416,370.8,415.1,371.3L415.1,371.3z
		 M420,388.4c-1.1,1.5-2.2,2.9-3.5,4.2c-8.1-5.7-20.1-14-29.1-5.2c-8.8,9-0.5,21,5.2,29.1c-1.3,1.3-2.7,2.4-4.2,3.5
		c-5.6,3.6-21.6-23.2-6.2-37.8C396.8,366.8,423.7,382.8,420,388.4z M355.2,475c0,1-0.7,1.9-1.7,2.1c-11.7,2.7-27.5,5.6-27.1-2.1
		c-0.5-7.7,15.4-4.8,27.1-2.1C354.5,473.1,355.2,474,355.2,475z M349.7,466.1c-19.3-4.4-28.9,2.2-28.9,8.9s9.6,13.3,28.9,8.9
		c-5.3,9-4.9,8.8-10.9,9.3c-19,1.9-28.4-8.2-28.4-18.2s9.5-20.1,28.4-18.2C344.8,457.3,344.4,457.1,349.7,466.1z M388.4,530
		c1.5,1.1,2.9,2.2,4.2,3.5c-5.7,8.1-14,20.1-5.2,29.1c9,8.8,21,0.5,29.1-5.2c1.3,1.3,2.4,2.7,3.5,4.2c3.6,5.6-23.2,21.6-37.8,6.2
		C366.8,553.2,382.8,526.3,388.4,530z M416.1,581.3c-3.5,11.5-8.9,26.6-15.3,22.4c-6.9-3.5,3.5-15.7,11.7-24.5
		c0.8-0.9,2.2-0.9,3-0.1C416.1,579.6,416.3,580.5,416.1,581.3z M404.7,579.1c-13.5,14.5-12.5,26.2-6.8,29.5s16.3-1.7,22.2-20.6
		c5.1,9.1,5.1,8.6,2.6,14.1c-7.8,17.4-21.3,20.5-30,15.5s-12.7-18.3-1.6-33.7C394.6,578.9,394.2,579.2,404.7,579.1L404.7,579.1z
		 M425.8,531.7c6.7,1.8,12.5,1,17.8-2.4c-0.3,6.3,2,11.8,6.8,16.7c3.1,3.2-9.4,21.8-24.2,13.6C411.7,550.7,421.5,530.6,425.8,531.7
		L425.8,531.7z M436.6,579.2c0.7-8,4.1-11.3,16.8-23.6l0,0l0,0c4.8,16.9,6.1,21.5,2.7,28.8c-2.1,4.5-7,5.9-11.7,4.6
		S436.2,584.2,436.6,579.2L436.6,579.2z M456.7,543.2c-8.3-2.1-10.3-19.2-4.6-23.2c5.9-0.3,9.2-4.3,12.8-7.6v0.2l0.1-0.1
		c1.4,4.6,2.3,9.8,7.2,13C475.2,531.8,464.9,545.6,456.7,543.2L456.7,543.2z M477.7,525.5c5-3.2,5.8-8.4,7.2-13l0.1,0.1v-0.2
		c3.5,3.3,6.8,7.3,12.8,7.6c5.7,4,3.7,21.1-4.6,23.2C485.1,545.6,474.8,531.8,477.7,525.5L477.7,525.5z M496.6,555.6L496.6,555.6
		L496.6,555.6c12.6,12.3,16,15.6,16.8,23.6c0.5,5-3.1,8.6-7.8,9.8s-9.6-0.1-11.7-4.6C490.5,577.2,491.8,572.5,496.6,555.6
		L496.6,555.6z M499.5,545.9c4.8-4.9,7.1-10.3,6.8-16.7c5.3,3.4,11.2,4.2,17.8,2.4c4.3-1.1,14.2,19-0.4,27.8
		C508.9,567.7,496.4,549.1,499.5,545.9L499.5,545.9z M552.1,608.5c5.8-3.3,6.7-15-6.8-29.5c10.4,0.1,10-0.1,13.6,4.8
		c11.1,15.5,7.1,28.7-1.6,33.7s-22.2,1.9-30-15.5c-2.5-5.5-2.5-5.1,2.6-14.1C535.8,606.8,546.3,611.9,552.1,608.5L552.1,608.5z
		 M534.9,578.7c0.9-0.5,2-0.4,2.7,0.4c8.2,8.8,18.6,21,11.7,24.5c-6.4,4.2-11.9-10.9-15.3-22.4C533.6,580.3,534,579.2,534.9,578.7
		L534.9,578.7z M530,561.6c1.1-1.5,2.2-2.9,3.5-4.2c8.1,5.7,20.1,14,29.1,5.2c8.8-9,0.5-21-5.2-29.1c1.3-1.3,2.7-2.4,4.2-3.5
		c5.6-3.6,21.6,23.2,6.2,37.8C553.2,583.2,526.3,567.2,530,561.6z M600.3,483.9c19.3,4.4,28.9-2.2,28.9-8.9s-9.6-13.3-28.9-8.9
		c5.3-9,4.9-8.8,10.9-9.3c19-1.9,28.4,8.2,28.4,18.2s-9.5,20.1-28.4,18.2C605.2,492.7,605.6,492.9,600.3,483.9L600.3,483.9z
		 M601.5,428.7l0.2-0.1c0.3-0.2,0.6-0.4,1-0.6c22.5-8.4,26-26.1,19.3-37.8s-23.8-17.5-42.4-2.2c-0.3,0.2-0.6,0.4-1,0.6l-0.2,0.1
		c-3-5.1-4.8-7.5-3.3-9c17.2-17.2,43.5-10.4,53.4,6.8c9.9,17.2,2.7,43.3-20.8,49.6C605.5,436.6,604.4,433.8,601.5,428.7L601.5,428.7
		z M570.4,374.9c-1.6,1.6-3.9-0.2-9-3.3l0.1-0.2c0.2-0.4,0.4-0.7,0.6-1c15.3-18.6,9.5-35.6-2.2-42.4s-29.4-3.3-37.8,19.3
		c-0.2,0.4-0.3,0.7-0.6,1c0,0.1-0.1,0.1-0.1,0.2c-5.2-2.9-7.9-4-7.3-6.2c6.3-23.5,32.5-30.8,49.6-20.8S587.6,357.7,570.4,374.9
		L570.4,374.9z M522.5,384.1c-1.8-0.2-3.6-0.5-5.4-0.9c0.8-9.9,2-24.4-10.1-27.8c-12.2-3.1-18.4,10.1-22.6,19
		c-1.7-0.5-3.5-1.1-5.1-1.9c-6-3,9.3-30.3,29.6-24.2C529.6,353.2,529.2,384.4,522.5,384.1z M493.2,338.8c-0.6,6-0.4,5.6-9.3,10.9
		c4.4-19.3-2.2-28.9-8.9-28.9s-13.3,9.6-8.9,28.9c-9-5.3-8.8-4.9-9.3-10.9c-1.9-19,8.2-28.4,18.2-28.4S495.1,319.8,493.2,338.8z
		 M470.7,372.5c-1.7,0.7-3.4,1.4-5.1,1.9c-4.2-9-10.4-22.1-22.6-19c-12.1,3.4-10.9,17.9-10.1,27.8c-1.8,0.4-3.6,0.7-5.4,0.9
		c-6.7,0.3-7.1-30.9,13.5-35.8C461.4,342.2,476.6,369.5,470.7,372.5z M428.7,348.5c0-0.1-0.1-0.1-0.1-0.2c-0.2-0.3-0.4-0.6-0.6-1
		c-8.4-22.5-26.1-26-37.8-19.3s-17.5,23.8-2.2,42.4c0.2,0.3,0.4,0.6,0.6,1l0.1,0.2c-5.1,3-7.5,4.9-9,3.3
		c-17.2-17.2-10.4-43.5,6.8-53.4c17.2-9.9,43.3-2.7,49.6,20.8C436.6,344.5,433.8,345.6,428.7,348.5L428.7,348.5z M374.9,379.6
		c1.6,1.6-0.2,3.9-3.3,9l-0.2-0.1c-0.4-0.2-0.7-0.4-1-0.6c-18.6-15.3-35.6-9.5-42.4,2.2s-3.3,29.4,19.3,37.8c0.4,0.2,0.7,0.3,1,0.6
		l0.2,0.1c-2.9,5.2-4,7.9-6.2,7.3c-23.5-6.3-30.8-32.5-20.8-49.6S357.7,362.4,374.9,379.6L374.9,379.6z M340.6,442.4
		c2.2,0.6,1.8,3.5,1.7,9.5h-0.3c-0.4,0-0.8,0-1.2,0c-23.7-4-35.6,9.6-35.6,23.1s11.9,27.1,35.6,23.1c0.4,0,0.8,0,1.2,0h0.3
		c0,5.9,0.5,8.9-1.7,9.5c-23.5,6.3-42.9-12.7-42.8-32.6S317.1,436.2,340.6,442.4L340.6,442.4z M342.4,514c2.2-0.6,3.3,2.2,6.2,7.3
		l-0.2,0.1c-0.3,0.2-0.6,0.4-1,0.6c-22.5,8.4-26,26.1-19.3,37.8s23.8,17.5,42.4,2.2c0.3-0.2,0.6-0.4,1-0.6l0.2-0.1
		c3,5.1,4.9,7.5,3.3,9c-17.2,17.2-43.5,10.4-53.4-6.8S318.9,520.3,342.4,514z M379.6,575.1c1.6-1.6,3.9,0.2,9,3.3l-0.1,0.2
		c-0.2,0.4-0.4,0.7-0.6,1c-15.3,18.6-9.5,35.6,2.2,42.4c11.7,6.8,29.4,3.3,37.8-19.3c0.2-0.4,0.3-0.7,0.6-1c0-0.1,0.1-0.1,0.1-0.2
		c5.2,2.9,7.9,4,7.3,6.2c-6.3,23.5-32.5,30.8-49.6,20.8S362.4,592.3,379.6,575.1L379.6,575.1z M427.5,565.9c1.8,0.2,3.6,0.5,5.4,0.9
		c-0.8,9.9-2,24.4,10.1,27.8c12.2,3.1,18.4-10.1,22.6-19c1.7,0.5,3.5,1.1,5.1,1.9c6,3-9.3,30.3-29.6,24.2
		C420.4,596.8,420.8,565.6,427.5,565.9L427.5,565.9z M456.8,611.2c0.6-6,0.4-5.6,9.3-10.9c-4.4,19.3,2.2,28.9,8.9,28.9
		s13.3-9.6,8.9-28.9c9,5.3,8.8,4.9,9.3,10.9c1.9,19-8.2,28.4-18.2,28.4S454.9,630.2,456.8,611.2L456.8,611.2z M479.3,577.5
		c1.7-0.7,3.4-1.4,5.1-1.9c4.2,9,10.4,22.1,22.6,19c12.1-3.4,10.9-17.9,10.1-27.8c1.8-0.4,3.6-0.7,5.4-0.9
		c6.7-0.3,7.1,30.9-13.5,35.8C488.6,607.8,473.4,580.5,479.3,577.5L479.3,577.5z M521.3,601.5c0,0.1,0.1,0.1,0.1,0.2
		c0.2,0.3,0.4,0.6,0.6,1c8.4,22.5,26.1,26,37.8,19.3s17.5-23.8,2.2-42.4c-0.2-0.3-0.4-0.6-0.6-1l-0.1-0.2c5.1-3,7.5-4.8,9-3.3
		c17.2,17.2,10.4,43.5-6.8,53.4s-43.3,2.7-49.6-20.8C513.4,605.5,516.2,604.4,521.3,601.5L521.3,601.5z M575.1,570.4
		c-1.6-1.6,0.2-3.9,3.3-9l0.2,0.1c0.4,0.2,0.7,0.4,1,0.6c18.6,15.3,35.6,9.5,42.4-2.2s3.3-29.4-19.3-37.8c-0.4-0.2-0.7-0.3-1-0.6
		l-0.2-0.1c2.9-5.2,4-7.9,6.2-7.3c23.5,6.3,30.8,32.5,20.8,49.6S592.3,587.6,575.1,570.4L575.1,570.4z M609.4,507.6
		c-2.2-0.6-1.8-3.5-1.7-9.5h0.3c0.4,0,0.8,0,1.2,0c23.7,4,35.6-9.6,35.6-23.1s-11.9-27.1-35.6-23.1c-0.4,0-0.8,0-1.2,0h-0.3
		c0-5.9-0.5-8.9,1.7-9.5c23.5-6.3,42.9,12.7,42.8,32.6S632.9,513.8,609.4,507.6L609.4,507.6z M694.1,416.3
		c5.9,20.6-28,26.6-32.8,8.8S688.8,395.5,694.1,416.3L694.1,416.3z M708.9,409c-1.8,0.9-3.8,1.9-5.9,1.7c-0.9-0.1-1.8-0.4-2.5-0.9
		c-1.2-0.8-2.2-1.8-3-3c-11-16.8-39.1-8.4-42.3,14c-0.4,3.1-1.9,2.9-27,8.9c12.7-9,15-29.9,8.3-44.7c33.6-16.1,48.2-8.9,64.1,9.6
		c3.8,4.2,6.8,9,8.8,14.3C709.2,408.9,709,408.9,708.9,409L708.9,409z M689.5,360.7c1.2-2.1,1.7-4.5,1.4-6.9l14.8-8.5
		c2.2,7.3,0.1,19.6-14.1,31.9c-0.8,0.6-2.5-0.4-10.4-4.5C684,368.7,687.2,364.9,689.5,360.7L689.5,360.7z M687.9,348.7
		c-1.9-1.4-4.3-2.2-6.7-2.2c-4.8-0.2-9.7,0.7-14.5,1.2c0.4-8.8,0.4-10.9,1.3-11.2c17.7-6.2,29.4-1.9,34.7,3.7L687.9,348.7z
		 M695.3,381c5.5-5.8,12.2-10.1,15.8-25c1.2-5.2,1.1-9.7-0.6-13.6l15-8.7c8.5,19.9-5,48.1-21.1,57.3L695.3,381z M707.6,337.2
		c-2.5-3.4-6.3-5.8-11.5-7.3c-14.7-4.3-21.8-0.6-29.6,1.2l-4.1-13c16-9.3,47.2-6.9,60.2,10.4L707.6,337.2z M681.1,352.6
		c1.8-0.1,3.4,1.4,3.4,3.2c0,0.7-0.2,1.3-0.5,1.9c-8.6,16.5-11,13-30.4,14.1C664.3,355.6,662.5,351.8,681.1,352.6z M633.7,380.2
		c-9.5-13.2-28.7-21.7-42.9-15.2c17.8-18.7,18.3-20.1,21.2-19c21,8.5,42.3-11.7,33.3-29.6c-0.7-1.3-1-2.6-1.1-4.1
		c-0.1-0.9,0.1-1.8,0.5-2.6c0.9-1.9,2.7-3.1,4.4-4.3c0.1-0.1,0.3-0.2,0.4-0.3c3.5,4.4,6.2,9.4,7.9,14.8
		C665.5,343,664.5,359.2,633.7,380.2L633.7,380.2z M635.4,314.6c15.4,14.9-10.9,37-24,24S620.4,299.2,635.4,314.6L635.4,314.6z
		 M644.5,300.9c-1.1,1.7-2.4,3.5-4.3,4.4c-0.8,0.4-1.7,0.5-2.6,0.5c-1.4-0.1-2.8-0.5-4.1-1.1c-18-9-38.1,12.3-29.6,33.3
		c1.2,2.9-0.2,3.4-19,21.2c6.5-14.2-2-33.4-15.2-42.9c21-30.8,37.3-31.8,60.3-23.7c5.4,1.7,10.4,4.4,14.8,7.9
		C644.7,300.6,644.6,300.7,644.5,300.9z M603.6,268.8c0-2.4-0.8-4.7-2.2-6.7l8.5-14.8c5.5,5.2,9.9,17,3.7,34.7
		c-0.4,0.9-2.4,0.9-11.2,1.3C602.9,278.4,603.8,273.6,603.6,268.8z M596.2,259.1c-2.4-0.3-4.8,0.2-6.9,1.4c-4.3,2.2-8,5.4-11.9,8.3
		c-4.1-7.9-5.1-9.6-4.5-10.4c12.2-14.2,24.5-16.3,31.8-14.1L596.2,259.1z M578.1,296.4c1.1-19.4-2.4-21.8,14.1-30.4
		c1.6-1,3.6-0.5,4.6,1c0.4,0.6,0.5,1.2,0.5,1.9C598.2,287.5,594.4,285.7,578.1,296.4z M631.8,287.5l-13-4.1
		c1.8-7.8,5.6-14.9,1.2-29.6c-1.5-5.1-3.9-8.9-7.3-11.5l8.7-15C638.7,240.4,641.1,271.5,631.8,287.5z M607.6,239.4
		c-3.9-1.6-8.4-1.8-13.6-0.6c-14.9,3.6-19.2,10.4-25,15.8l-10.1-9.2c9.2-16.1,37.4-29.6,57.3-21.1L607.6,239.4z M565.1,313.6
		c-14.8-6.7-35.7-4.5-44.7,8.3c6-25.1,5.8-26.6,8.9-27c22.5-3.2,30.8-31.3,14-42.3c-1.2-0.8-2.2-1.8-3-3c-0.5-0.7-0.8-1.6-0.9-2.5
		c-0.2-2.1,0.8-4.1,1.7-5.9c0.1-0.2,0.1-0.3,0.2-0.5c5.3,2.1,10.1,5.1,14.3,8.8C574,265.4,581.2,280,565.1,313.6z M524.9,288.7
		c-17.8-4.8-11.8-38.7,8.8-32.8C554.5,261.2,542.7,293.4,524.9,288.7L524.9,288.7z M534.8,239.5c-0.1,2-0.3,4.2-1.5,6
		c-0.5,0.7-1.2,1.3-2,1.7c-1.3,0.6-2.7,1-4.1,1c-20.1,1.1-26.9,29.7-9,43.7c2.5,1.9,1.5,3.1-5.8,27.8c-1.4-15.5-18.4-27.9-34.6-29.5
		c2.8-37.1,16.4-46.2,40.4-50.7c5.5-1.2,11.2-1.4,16.8-0.5C534.8,239.1,534.8,239.3,534.8,239.5L534.8,239.5z M507.6,340.6
		c-0.6,2.2-3.5,1.8-9.5,1.7c0-0.1,0-0.2,0-0.3c0-0.4,0-0.8,0-1.2c4-23.7-9.6-35.6-23.1-35.6s-27.1,11.9-23.1,35.6c0,0.4,0,0.8,0,1.2
		c0,0.1,0,0.2,0,0.3c-5.9,0-8.9,0.5-9.5-1.7c-6.3-23.5,12.7-42.9,32.6-42.8S513.8,317.1,507.6,340.6z M416.3,255.9
		c20.6-5.9,26.6,28,8.8,32.8S395.5,261.2,416.3,255.9z M410.7,247c-0.1,0.9-0.4,1.8-0.9,2.5c-0.8,1.2-1.8,2.2-3,3
		c-16.8,11-8.4,39.1,14,42.3c3.1,0.4,2.9,1.9,8.9,27c-9-12.7-29.9-15-44.7-8.3c-16.1-33.6-8.9-48.2,9.6-64.1c4.2-3.8,9-6.8,14.3-8.8
		c0,0.2,0.1,0.3,0.2,0.5C409.9,242.9,410.9,244.9,410.7,247L410.7,247z M360.7,260.5c-2.1-1.2-4.5-1.7-6.9-1.4l-8.5-14.8
		c7.3-2.2,19.6-0.1,31.9,14.1c0.6,0.8-0.4,2.5-4.5,10.4C368.7,266,364.9,262.8,360.7,260.5L360.7,260.5z M371.9,296.4
		c-16.2-10.6-20-8.8-19.2-27.4c-0.1-1.8,1.4-3.4,3.2-3.5c0.7,0,1.3,0.2,1.9,0.5C374.2,274.6,370.8,277,371.9,296.4L371.9,296.4z
		 M347.6,283.2c-8.8-0.4-10.9-0.4-11.2-1.3c-6.2-17.7-1.9-29.4,3.7-34.7l8.5,14.8c-1.4,1.9-2.2,4.3-2.2,6.7
		C346.2,273.6,347.1,278.4,347.6,283.2L347.6,283.2z M381,254.7c-5.8-5.5-10.1-12.2-25-15.8c-5.2-1.2-9.7-1.1-13.6,0.6l-8.7-15
		c19.9-8.5,48.1,5,57.3,21.1L381,254.7z M337.2,242.4c-3.4,2.5-5.8,6.3-7.3,11.5c-4.3,14.7-0.6,21.8,1.2,29.6l-13,4.1
		c-9.3-16-6.9-47.1,10.4-60.2L337.2,242.4z M319.9,292.6c23-8.1,39.3-7,60.3,23.7c-13.2,9.5-21.7,28.7-15.2,42.9
		c-18.7-17.8-20.1-18.3-19-21.2c8.5-21-11.7-42.4-29.6-33.3c-1.3,0.7-2.6,1-4.1,1.1c-0.9,0.1-1.8-0.1-2.6-0.5
		c-1.9-0.9-3.1-2.7-4.3-4.4c-0.1-0.1-0.2-0.3-0.3-0.4C309.5,297,314.5,294.3,319.9,292.6z M338.6,338.6c-13.1,13-39.4-9.1-24-24
		C329.6,299.2,351.6,325.6,338.6,338.6z M305.3,309.7c0.4,0.8,0.5,1.7,0.5,2.6c-0.1,1.4-0.5,2.8-1.1,4.1c-9,18,12.3,38.1,33.3,29.6
		c2.9-1.2,3.4,0.2,21.2,19c-14.2-6.5-33.4,2-42.9,15.2c-30.8-21-31.8-37.3-23.7-60.3c1.7-5.4,4.4-10.4,7.9-14.8
		c0.1,0.1,0.2,0.2,0.4,0.3C302.6,306.6,304.4,307.8,305.3,309.7z M296.3,371.9c-19.4-1.1-21.8,2.4-30.4-14.1c-1-1.6-0.5-3.6,1-4.6
		c0.6-0.4,1.2-0.5,1.9-0.5C287.5,351.8,285.7,355.6,296.3,371.9L296.3,371.9z M259.1,353.8c-0.3,2.4,0.2,4.8,1.4,6.9
		c2.2,4.3,5.4,8,8.3,11.9c-7.9,4.1-9.6,5.1-10.4,4.5c-14.2-12.2-16.3-24.5-14.1-31.9L259.1,353.8z M247.3,340.1
		c5.2-5.5,17-9.9,34.7-3.7c0.9,0.4,0.9,2.4,1.3,11.2c-4.8-0.5-9.7-1.4-14.5-1.2c-2.4,0-4.7,0.8-6.7,2.2L247.3,340.1z M283.4,331.2
		c-7.8-1.8-14.9-5.6-29.6-1.2c-5.1,1.5-8.9,3.9-11.5,7.3l-15-8.7c13-17.3,44.1-19.7,60.2-10.4L283.4,331.2z M239.4,342.4
		c-1.6,3.9-1.8,8.4-0.6,13.6c3.6,14.9,10.4,19.2,15.8,25l-9.2,10.1c-16.1-9.2-29.6-37.4-21.1-57.3L239.4,342.4z M249.5,394.5
		c15.9-18.5,30.5-25.7,64.1-9.6c-6.7,14.8-4.5,35.7,8.3,44.7c-25.1-6-26.6-5.8-27-8.9c-3.2-22.5-31.3-30.8-42.3-14
		c-0.8,1.2-1.8,2.2-3,3c-0.7,0.5-1.6,0.8-2.5,0.9c-2.1,0.2-4.1-0.8-5.9-1.7c-0.2-0.1-0.3-0.1-0.5-0.2
		C242.7,403.6,245.7,398.7,249.5,394.5L249.5,394.5z M288.7,425.1c-4.8,17.8-38.6,11.8-32.8-8.8
		C261.2,395.5,293.4,407.3,288.7,425.1L288.7,425.1z M245.4,416.7c0.7,0.5,1.3,1.2,1.7,2c0.6,1.3,1,2.7,1,4.1
		c1.1,20.1,29.7,26.9,43.7,9c1.9-2.5,3.1-1.5,27.8,5.8c-15.5,1.4-27.9,18.4-29.5,34.6c-37.2-2.8-46.2-16.3-50.7-40.3
		c-1.2-5.5-1.4-11.2-0.5-16.8c0.2,0,0.3,0.1,0.5,0.1C241.5,415.3,243.7,415.5,245.4,416.7L245.4,416.7z M268.7,475
		c-17.3,8.8-17.7,13-33.4,2.9c-1.6-0.9-2.2-2.9-1.4-4.5c0.3-0.6,0.8-1.1,1.4-1.4C251,462,251.4,466.2,268.7,475z M238.5,451.5
		c1-0.1,2,1.6,6.7,9.1c-4.4,2-9.1,3.6-13.1,6.2c-2.1,1.2-3.7,3-4.7,5.2h-17.1C212.1,464.6,220.1,455,238.5,451.5z M211,460
		c-3.7,3.9-5.8,7.8-6.3,12h-17.4c2.6-21.5,28.4-39.1,46.9-39.1l2.9,13.3C229.5,448.5,221.5,448.8,211,460z M233.4,427.3
		c-1,0.3-1.9,0.5-2.8,0.7c-4.9,1.2-10.1,1.8-14.7,3.7c-22.9,9.3-32.9,24.8-33.6,40.3h-15.5c3.5-32.7,35.7-62.6,66.5-56.7
		L233.4,427.3z M182.4,478c0.6,15.5,10.7,31,33.5,40.4c4.7,1.9,9.9,2.5,14.7,3.7c0.9,0.2,1.7,0.5,2.8,0.7v12
		c-30.9,5.9-63-24-66.5-56.7L182.4,478z M187.4,478h17.4c0.5,4.2,2.6,8.2,6.3,12c10.6,11.1,18.6,11.4,26.2,13.7l-2.9,13.3
		C215.7,517.1,189.9,499.5,187.4,478L187.4,478z M210.4,478h17.1c1,2.2,2.6,4,4.7,5.2c4.1,2.6,8.7,4.2,13.1,6.2
		c-4.8,7.5-5.8,9.2-6.7,9.1C220.1,495,212.1,485.4,210.4,478L210.4,478z M239.5,518.1c4.5-24,13.5-37.5,50.7-40.4
		c1.6,16.2,14,33.2,29.5,34.6c-24.7,7.3-25.9,8.3-27.8,5.8c-14-17.9-42.5-11.1-43.7,9c-0.1,1.4-0.4,2.8-1,4.1c-0.4,0.8-1,1.5-1.7,2
		c-1.7,1.2-3.9,1.4-6,1.5c-0.2,0-0.3,0-0.5,0.1C238.1,529.3,238.3,523.6,239.5,518.1L239.5,518.1z M256,533.7
		c-5.9-20.6,28-26.6,32.8-8.8S261.2,554.5,256,533.7L256,533.7z M241.1,541c1.8-0.9,3.8-1.9,5.9-1.7c0.9,0.1,1.8,0.4,2.5,0.9
		c1.2,0.8,2.2,1.8,3,3c11,16.8,39.1,8.4,42.3-14c0.4-3.1,1.9-2.9,27-8.9c-12.7,9-15,29.9-8.3,44.7c-33.6,16.1-48.2,8.9-64.1-9.6
		c-3.8-4.2-6.8-9-8.8-14.3C240.8,541.1,241,541.1,241.1,541z M260.5,589.3c-1.2,2.1-1.7,4.5-1.4,6.9l-14.8,8.5
		c-2.2-7.3-0.1-19.6,14.1-31.8c0.8-0.6,2.5,0.4,10.4,4.5C266,581.3,262.8,585.1,260.5,589.3L260.5,589.3z M262.1,601.4
		c1.9,1.4,4.3,2.2,6.7,2.2c4.8,0.2,9.7-0.7,14.5-1.2c-0.4,8.8-0.4,10.9-1.3,11.2c-17.7,6.2-29.4,1.9-34.7-3.7L262.1,601.4z
		 M254.7,569c-5.5,5.8-12.2,10.1-15.8,25c-1.2,5.2-1.1,9.7,0.6,13.6l-15,8.7c-8.5-19.9,5-48.1,21.1-57.3L254.7,569z M242.4,612.8
		c2.5,3.4,6.3,5.8,11.5,7.3c14.7,4.3,21.8,0.6,29.6-1.2l4.1,13c-16,9.3-47.1,6.9-60.2-10.4L242.4,612.8z M268.9,597.4
		c-1.8,0.1-3.4-1.4-3.4-3.2c0-0.7,0.2-1.3,0.5-1.9c8.6-16.5,11-13,30.4-14.1C285.7,594.4,287.5,598.2,268.9,597.4z M316.3,569.8
		c9.5,13.2,28.7,21.7,42.9,15.2c-17.8,18.7-18.3,20.1-21.2,19c-21-8.5-42.4,11.7-33.3,29.6c0.7,1.3,1,2.6,1.1,4.1
		c0.1,0.9-0.1,1.8-0.5,2.6c-0.9,1.9-2.7,3.2-4.4,4.3c-0.1,0.1-0.3,0.2-0.4,0.3c-3.5-4.4-6.2-9.4-7.9-14.8
		C284.5,607,285.5,590.8,316.3,569.8L316.3,569.8z M314.6,635.4c-15.4-14.9,10.9-37,24-24S329.6,650.8,314.6,635.4z M305.5,649.1
		c1.1-1.7,2.4-3.5,4.3-4.4c0.8-0.4,1.7-0.5,2.6-0.5c1.4,0.1,2.8,0.5,4.1,1.1c18,9,38.1-12.3,29.6-33.3c-1.2-2.9,0.2-3.4,19-21.2
		c-6.5,14.2,2,33.4,15.2,42.9c-21,30.8-37.3,31.8-60.3,23.7c-5.4-1.7-10.4-4.4-14.8-7.9C305.3,649.4,305.4,649.3,305.5,649.1z
		 M346.4,681.2c0,2.4,0.8,4.7,2.2,6.7l-8.5,14.8c-5.5-5.2-9.9-17-3.7-34.7c0.4-0.9,2.4-0.9,11.2-1.3
		C347.1,671.6,346.2,676.4,346.4,681.2z M353.8,690.9c2.4,0.3,4.8-0.2,6.9-1.4c4.3-2.2,8-5.4,11.9-8.3c4.1,7.9,5.1,9.6,4.5,10.4
		c-12.2,14.2-24.5,16.3-31.9,14.1L353.8,690.9z M371.9,653.6c-1.1,19.4,2.4,21.8-14.1,30.4c-1.6,1-3.6,0.5-4.6-1
		c-0.4-0.6-0.5-1.2-0.5-1.9C351.8,662.5,355.6,664.3,371.9,653.6L371.9,653.6z M318.2,662.5l13,4.1c-1.8,7.8-5.6,14.8-1.2,29.6
		c1.5,5.2,3.9,8.9,7.3,11.5l-8.7,15C311.3,709.6,308.9,678.5,318.2,662.5L318.2,662.5z M342.4,710.6c3.9,1.6,8.4,1.8,13.6,0.6
		c14.9-3.6,19.2-10.4,25-15.8l10.1,9.2c-9.2,16.1-37.4,29.6-57.3,21.1L342.4,710.6z M384.9,636.4c14.8,6.7,35.7,4.5,44.7-8.3
		c-6,25.1-5.8,26.6-8.9,27c-22.5,3.2-30.8,31.3-14,42.3c1.2,0.8,2.2,1.8,3,3c0.5,0.7,0.8,1.6,0.9,2.5c0.2,2.1-0.8,4.1-1.7,5.9
		c-0.1,0.2-0.1,0.3-0.2,0.5c-5.3-2.1-10.1-5.1-14.3-8.8C376,684.6,368.8,670,384.9,636.4L384.9,636.4z M425.1,661.3
		c17.8,4.8,11.8,38.7-8.8,32.8C395.5,688.8,407.3,656.6,425.1,661.3L425.1,661.3z M415.2,710.5c0.1-2,0.3-4.2,1.5-6
		c0.5-0.7,1.2-1.3,2-1.7c1.3-0.6,2.7-1,4.1-1c20.1-1.2,26.9-29.7,9-43.7c-2.5-1.9-1.5-3.1,5.8-27.8c1.4,15.5,18.4,27.9,34.6,29.5
		c-2.8,37.2-16.3,46.2-40.3,50.7c-5.5,1.2-11.2,1.4-16.8,0.5C415.2,710.9,415.2,710.7,415.2,710.5L415.2,710.5z M442.4,609.4
		c0.6-2.2,3.5-1.8,9.5-1.7c0,0.1,0,0.2,0,0.3c0,0.4,0,0.8,0,1.2c-4,23.7,9.6,35.6,23.1,35.6s27.1-11.9,23.1-35.6c0-0.4,0-0.8,0-1.2
		c0-0.1,0-0.2,0-0.3c5.9-0.1,8.9-0.5,9.5,1.7c6.3,23.5-12.7,42.9-32.6,42.8S436.2,632.9,442.4,609.4L442.4,609.4z M533.7,694.1
		c-20.6,5.9-26.6-28-8.8-32.8S554.5,688.8,533.7,694.1L533.7,694.1z M539.3,703c0.1-0.9,0.4-1.8,0.9-2.5c0.8-1.2,1.8-2.2,3-3
		c16.8-11,8.4-39.1-14-42.3c-3.1-0.4-2.9-1.9-8.9-27c9,12.7,29.9,15,44.7,8.3c16.1,33.6,8.9,48.2-9.6,64.1c-4.2,3.8-9,6.8-14.3,8.8
		c0-0.2-0.1-0.3-0.2-0.5C540.1,707.1,539.1,705.1,539.3,703L539.3,703z M589.3,689.5c2.1,1.2,4.5,1.7,6.9,1.4l8.5,14.8
		c-7.3,2.2-19.6,0.1-31.8-14.1c-0.6-0.8,0.4-2.5,4.5-10.4C581.3,684,585.1,687.2,589.3,689.5L589.3,689.5z M578.1,653.7
		c16.2,10.6,20,8.8,19.2,27.4c0.1,1.8-1.4,3.4-3.2,3.4c-0.7,0-1.3-0.2-1.9-0.5C575.8,675.4,579.2,673,578.1,653.7L578.1,653.7z
		 M602.4,666.8c8.8,0.4,10.9,0.4,11.2,1.3c6.2,17.7,1.9,29.4-3.7,34.7l-8.5-14.8c1.4-1.9,2.2-4.3,2.2-6.7
		C603.8,676.4,602.9,671.6,602.4,666.8L602.4,666.8z M569,695.3c5.8,5.5,10.1,12.2,25,15.8c5.2,1.2,9.7,1.1,13.6-0.6l8.7,15
		c-19.9,8.5-48.1-5-57.3-21.1L569,695.3z M612.8,707.6c3.4-2.5,5.8-6.3,7.3-11.5c4.3-14.7,0.6-21.8-1.2-29.6l13-4.1
		c9.3,16,6.9,47.2-10.4,60.2L612.8,707.6z M630.1,657.4c-23,8.1-39.3,7-60.3-23.7c13.2-9.5,21.7-28.7,15.2-42.9
		c18.7,17.8,20.1,18.3,19,21.2c-8.5,21,11.7,42.3,29.6,33.3c1.3-0.7,2.6-1,4.1-1.1c0.9-0.1,1.8,0.1,2.6,0.5c1.9,0.9,3.2,2.7,4.3,4.4
		c0.1,0.1,0.2,0.3,0.3,0.4C640.5,653,635.5,655.7,630.1,657.4L630.1,657.4z M611.4,611.4c13.1-13,39.4,9.1,24,24
		C620.4,650.8,598.4,624.4,611.4,611.4L611.4,611.4z M644.7,640.3c-0.4-0.8-0.5-1.7-0.5-2.6c0.1-1.4,0.5-2.8,1.1-4.1
		c9-18-12.3-38.1-33.3-29.6c-2.9,1.2-3.4-0.2-21.2-19c14.2,6.5,33.4-2,42.9-15.2c30.8,21,31.8,37.3,23.7,60.3
		c-1.7,5.4-4.4,10.4-7.9,14.8c-0.1-0.1-0.2-0.2-0.4-0.3C647.4,643.4,645.6,642.2,644.7,640.3L644.7,640.3z M653.7,578.1
		c19.4,1.1,21.8-2.4,30.4,14.1c1,1.6,0.5,3.6-1,4.6c-0.6,0.4-1.2,0.5-1.9,0.5C662.5,598.2,664.3,594.4,653.7,578.1L653.7,578.1z
		 M690.9,596.2c0.3-2.4-0.2-4.8-1.4-6.9c-2.2-4.3-5.4-8-8.3-11.9c7.9-4.1,9.6-5.1,10.4-4.5c14.2,12.2,16.3,24.5,14.1,31.8
		L690.9,596.2z M702.8,609.9c-5.2,5.5-17,9.9-34.7,3.7c-0.9-0.4-0.9-2.4-1.3-11.2c4.8,0.5,9.7,1.4,14.5,1.2c2.4,0,4.7-0.8,6.7-2.2
		L702.8,609.9z M666.6,618.8c7.8,1.8,14.8,5.6,29.6,1.2c5.2-1.5,8.9-3.9,11.5-7.3l15,8.7c-13,17.3-44.1,19.7-60.2,10.4L666.6,618.8z
		 M710.6,607.6c1.6-3.9,1.8-8.4,0.6-13.6c-3.6-14.9-10.4-19.2-15.8-25l9.2-10.1c16.1,9.2,29.6,37.4,21.1,57.3L710.6,607.6z
		 M700.5,555.5c-15.9,18.5-30.5,25.7-64.1,9.6c6.7-14.8,4.5-35.7-8.3-44.7c25.1,6,26.6,5.8,27,8.9c3.2,22.5,31.3,30.8,42.3,14
		c0.8-1.2,1.8-2.2,3-3c0.7-0.5,1.6-0.8,2.5-0.9c2.1-0.2,4.1,0.8,5.9,1.7c0.2,0.1,0.3,0.1,0.5,0.2
		C707.3,546.4,704.3,551.3,700.5,555.5L700.5,555.5z M661.3,524.9c4.8-17.8,38.7-11.8,32.8,8.8C688.8,554.5,656.6,542.7,661.3,524.9
		L661.3,524.9z M704.6,533.3c-0.7-0.5-1.3-1.2-1.7-2c-0.6-1.3-1-2.7-1-4.1c-1.2-20.1-29.7-26.9-43.7-9c-1.9,2.5-3.1,1.5-27.8-5.8
		c15.5-1.4,27.9-18.4,29.5-34.6c37.2,2.8,46.2,16.4,50.7,40.4c1.2,5.5,1.4,11.2,0.5,16.8c-0.2,0-0.3-0.1-0.5-0.1
		C708.5,534.7,706.3,534.5,704.6,533.3L704.6,533.3z M711.5,498.5c-1,0.1-2-1.6-6.7-9.1c4.4-2,9.1-3.6,13.1-6.2
		c2.1-1.2,3.7-3,4.7-5.2h17.1C737.9,485.4,729.9,495,711.5,498.5L711.5,498.5z M739,490c3.7-3.9,5.8-7.8,6.3-12h17.4
		c-2.6,21.5-28.4,39.1-46.9,39.1l-2.9-13.3C720.5,501.5,728.5,501.2,739,490z M716.6,522.7c1-0.3,1.9-0.5,2.8-0.7
		c4.9-1.2,10.1-1.8,14.8-3.7c22.9-9.3,32.9-24.8,33.6-40.3h15.5c-3.5,32.7-35.7,62.6-66.5,56.7L716.6,522.7z M767.7,472
		c-0.7-15.5-10.7-31-33.5-40.4c-4.7-1.9-9.9-2.5-14.8-3.7c-0.9-0.2-1.7-0.5-2.8-0.7v-12c30.9-5.9,63,24,66.5,56.7L767.7,472z
		 M845.3,426.8c-19.4,22.7-13,25.7-64.8-9.3C801.4,405.9,819.9,425.1,845.3,426.8L845.3,426.8z M726.1,407.7
		c19.7-17,34.6-33.3,56.6-25.6c4.3,1.5,9.5,3.7,10.6,7.6c1.1,3.9-2.4,8.4-5.3,11.9C772.7,419.2,751.6,412.6,726.1,407.7z
		 M792.9,408.2c13.3-19.7,9.1-3.1,42.5-5.1c12.3-0.7,21.1-2.7,30.3-9.5C836.4,437.9,850.2,417.2,792.9,408.2z M801.9,387.4
		c-2.7-15.1,43.5-48.5,77.2-20.7C863.8,407.7,807.1,401.9,801.9,387.4L801.9,387.4z M823.1,357.1c-30,15.1-17.9,27.3-39.4,16.9
		c45.1-36.5,22.8-47.5,70.4-23.8C842.7,348.9,834.1,351.5,823.1,357.1L823.1,357.1z M768.4,372c27.4-56.2,23.3-50.4,51.5-40.4
		C798.7,345.7,792.2,371.6,768.4,372z M745.8,383.5c18.7-33.7-11-52.5,42.5-58.3C764,350.5,777.4,365,745.8,383.5L745.8,383.5z
		 M714.1,405.9l-6-10.4c0.8-0.8,1.4-1.4,2-2c3.6-3.5,7.8-6.6,10.9-10.6c15.1-19.5,16.1-38,8.9-51.7l13.4-7.8
		C756.7,353.6,743.8,395.5,714.1,405.9L714.1,405.9z M727,326c-8.3-13.1-24.8-21.5-49.2-18.2c-5,0.7-9.8,2.8-14.6,4.2
		c-0.9,0.3-1.7,0.5-2.8,0.8l-6-10.4c23.8-20.5,66.6-10.7,86,15.9L727,326z M689.6,286.2c31.9-18.1,37.6,0.7,71.8-7.6
		C729.6,322,728.2,286.9,689.6,286.2z M710.9,272.5c12.3-20.5,37.9-13.1,60.7-24.4C766.2,277.5,773.3,276.8,710.9,272.5z
		 M716.9,258.2c1.7-23.8,6.3-7.2,34.3-25.6c10.3-6.8,16.9-12.9,21.5-23.5C769.5,262.2,771,237.4,716.9,258.2L716.9,258.2z
		 M714.3,235.7c-9.9-11.8,13.4-63.7,56.5-56.5C778,222.3,726.1,245.6,714.3,235.7z M717.5,198.8c-18.4,28-1.9,32.6-25.7,34.3
		c20.8-54.1-4-52.6,49.1-55.8C730.4,181.9,724.3,188.5,717.5,198.8z M677.5,239.1c-4.4-62.4-5-55.3,24.4-60.7
		C690.6,201.2,698,226.9,677.5,239.1z M695,240.7c4.5-0.9,10.1-1.5,13,1.3s2.2,8.5,1.3,13c-4.3,22.9-25.9,27.7-50.5,36.2
		C667.3,266.6,672.2,245,695,240.7L695,240.7z M647.6,295.6l-10.4-6c0.3-1,0.5-1.9,0.8-2.8c1.4-4.8,3.5-9.6,4.2-14.6
		c3.3-24.4-5-40.9-18.2-49.2l7.7-13.4C658.2,229,668.1,271.8,647.6,295.6L647.6,295.6z M618.8,220c-13.8-7.2-32.2-6.2-51.7,8.9
		c-4,3.1-7.1,7.3-10.6,10.9c-0.6,0.7-1.2,1.3-2,2l-10.4-6c10.4-29.6,52.3-42.5,82.4-29.2L618.8,220z M542.3,223.9
		c-4.9-25.5-11.5-46.6,6.1-61.8c3.5-3,7.9-6.4,11.9-5.3s6.1,6.3,7.6,10.6C575.6,189.3,559.3,204.3,542.3,223.9L542.3,223.9z
		 M532.5,169.4c-35-51.8-32-45.4-9.3-64.8C524.9,130.1,544.1,148.6,532.5,169.4L532.5,169.4z M531.2,194.7c-19.8-33-51-16.7-29.3-66
		C511.7,162.5,530.9,158.1,531.2,194.7L531.2,194.7z M534.7,233.3h-12c-0.3-1-0.5-1.9-0.7-2.8c-1.2-4.9-1.8-10.1-3.7-14.7
		c-9.3-22.8-24.8-32.9-40.3-33.5v-15.5C510.7,170.4,540.6,202.5,534.7,233.3L534.7,233.3z M517.1,234.2l-13.3,2.9
		c-2.3-7.6-2.6-15.6-13.7-26.2c-3.9-3.7-7.8-5.8-12-6.3v-17.3C499.5,189.9,517.1,215.7,517.1,234.2L517.1,234.2z M498.5,238.5
		c0.1,1-1.6,2-9.1,6.7c-2-4.4-3.6-9.1-6.2-13.1c-1.2-2.1-3-3.7-5.2-4.7v-17.1C485.4,212.1,495,220.1,498.5,238.5L498.5,238.5z
		 M475,268.7c-8.8-17.3-13-17.7-2.9-33.4c0.9-1.6,2.9-2.2,4.5-1.4c0.6,0.3,1.1,0.8,1.4,1.4C488,251,483.8,251.4,475,268.7z
		 M472,182.3c-15.5,0.6-31,10.7-40.4,33.5c-1.9,4.7-2.5,9.9-3.7,14.7c-0.2,0.9-0.5,1.7-0.7,2.8h-12c-5.9-30.9,24-63,56.7-66.5
		L472,182.3z M418.8,194.8c0.2-36.7,19.5-32.2,29.3-66C469.8,178,438.7,161.7,418.8,194.8L418.8,194.8z M417.5,169.5
		c-11.6-20.9,7.6-39.4,9.3-64.8C449.5,124.1,452.5,117.6,417.5,169.5L417.5,169.5z M401.6,162.1c17.7,15.2,11,36.3,6.1,61.8
		c-17-19.7-33.3-34.6-25.6-56.6c1.5-4.3,3.7-9.5,7.6-10.6C393.6,155.7,398.1,159.1,401.6,162.1L401.6,162.1z M405.9,235.9l-10.4,6
		c-0.8-0.8-1.4-1.4-2-2c-3.4-3.7-6.5-7.9-10.5-11c-19.5-15.1-38-16.1-51.8-8.9l-7.8-13.4C353.6,193.3,395.5,206.2,405.9,235.9
		L405.9,235.9z M326,223c-13.1,8.3-21.5,24.8-18.2,49.2c0.7,5,2.8,9.8,4.2,14.6c0.3,0.9,0.5,1.7,0.8,2.8l-10.4,6
		c-20.5-23.8-10.7-66.6,15.9-86L326,223z M291.2,291.2c-24.5-8.5-46.1-13.4-50.5-36.2c-0.9-4.5-1.5-10.1,1.3-13s8.5-2.1,13-1.3
		C277.9,245,282.7,266.6,291.2,291.2z M272.5,239.1c-20.5-12.3-13.1-37.9-24.4-60.7C277.5,183.8,276.8,176.7,272.5,239.1z
		 M258.2,233.1c-23.7-1.7-7.2-6.3-25.6-34.3c-6.8-10.3-12.9-16.9-23.5-21.5C262.2,180.5,237.4,179,258.2,233.1L258.2,233.1z
		 M235.7,235.7c-11.8,9.9-63.7-13.4-56.5-56.5C222.3,172,245.6,223.9,235.7,235.7z M198.8,232.5c28,18.4,32.6,1.9,34.3,25.6
		c-54.1-20.8-52.6,4-55.8-49.1C181.9,219.6,188.5,225.7,198.8,232.5L198.8,232.5z M239.1,272.5c-62.4,4.4-55.3,5-60.7-24.4
		C201.2,259.4,226.9,252,239.1,272.5L239.1,272.5z M260.4,286.2c-38.5,0.7-40,35.8-71.8-7.6C222.8,287,228.5,268.1,260.4,286.2
		L260.4,286.2z M295.6,302.4l-6,10.4c-1-0.3-1.9-0.5-2.8-0.8c-4.8-1.4-9.6-3.5-14.6-4.2c-24.4-3.3-40.9,5-49.2,18.2l-13.4-7.7
		C229,291.8,271.8,281.9,295.6,302.4L295.6,302.4z M220,331.2c-7.2,13.8-6.2,32.2,8.9,51.7c3.1,4,7.3,7.1,10.9,10.6
		c0.7,0.6,1.3,1.2,2,2l-6,10.4c-29.6-10.4-42.5-52.3-29.2-82.4L220,331.2z M223.9,407.7c-25.5,4.9-46.6,11.5-61.8-6.1
		c-3-3.5-6.4-7.9-5.3-11.9s6.3-6.1,10.6-7.6C189.3,374.4,204.3,390.7,223.9,407.7L223.9,407.7z M204.2,383.5
		c-31.6-18.5-18.2-33-42.5-58.3C215.2,331,185.5,349.8,204.2,383.5z M181.6,372c-23.9-0.4-30.3-26.3-51.5-40.4
		C158.4,321.6,154.2,315.8,181.6,372z M166.3,373.9c-21.4,10.4-9.4-1.8-39.4-16.9c-11.1-5.6-19.7-8.2-31.1-6.9
		C143.5,326.4,121.2,337.4,166.3,373.9z M148.1,387.4c-5.2,14.5-61.9,20.3-77.2-20.7C104.7,338.9,150.8,372.3,148.1,387.4
		L148.1,387.4z M114.6,403.1c33.5,1.9,29.2-14.7,42.5,5.1c-57.3,9.1-43.5,29.8-72.9-14.6C93.5,400.4,102.2,402.4,114.6,403.1z
		 M169.5,417.5c-51.8,35-45.4,32-64.8,9.3C130.1,425.1,148.6,405.9,169.5,417.5L169.5,417.5z M194.8,418.8c-33,19.8-16.7,51-66,29.3
		C162.5,438.3,158.1,419.1,194.8,418.8z M194.8,531.1c-36.7-0.2-32.2-19.5-66-29.3C178,480.2,161.7,511.3,194.8,531.1L194.8,531.1z
		 M223.9,542.3c-19.7,17-34.6,33.3-56.6,25.6c-4.3-1.5-9.5-3.7-10.6-7.6s2.4-8.4,5.3-11.9C177.3,530.8,198.4,537.4,223.9,542.3
		L223.9,542.3z M169.5,532.5c-20.9,11.6-39.4-7.6-64.8-9.3C124.1,500.5,117.6,497.5,169.5,532.5z M157.1,541.8
		c-13.4,19.7-9.1,3.1-42.5,5.1c-12.4,0.7-21.1,2.7-30.4,9.5C113.6,512.1,99.8,532.8,157.1,541.8L157.1,541.8z M148.1,562.6
		c2.7,15.1-43.4,48.5-77.2,20.7C86.2,542.3,142.9,548.1,148.1,562.6L148.1,562.6z M126.9,592.9c30-15.1,17.9-27.3,39.4-16.9
		c-45.1,36.5-22.8,47.5-70.4,23.8C107.3,601.2,115.9,598.5,126.9,592.9L126.9,592.9z M181.6,578c-27.4,56.2-23.3,50.4-51.5,40.4
		C151.4,604.3,157.8,578.4,181.6,578z M204.2,566.5c-18.7,33.7,11,52.5-42.5,58.3C186,599.5,172.6,585,204.2,566.5z M235.9,544.1
		l6,10.4c-0.8,0.8-1.4,1.4-2,2c-3.7,3.5-7.9,6.5-11,10.5c-15.1,19.5-16.1,38-8.9,51.8l-13.4,7.8
		C193.3,596.4,206.2,554.5,235.9,544.1z M223,624c8.3,13.1,24.8,21.5,49.2,18.2c5-0.7,9.8-2.8,14.6-4.2c0.9-0.3,1.7-0.5,2.8-0.8
		l6,10.4c-23.8,20.5-66.6,10.7-86-15.9L223,624z M260.4,663.8c-31.9,18.1-37.6-0.7-71.8,7.6C220.4,628,221.9,663.1,260.4,663.8
		L260.4,663.8z M239.1,677.6c-12.3,20.5-37.9,13.1-60.7,24.4C183.8,672.5,176.7,673.2,239.1,677.6L239.1,677.6z M233.1,691.9
		c-1.7,23.8-6.3,7.2-34.3,25.7c-10.4,6.8-16.9,12.9-21.5,23.5C180.5,687.8,179,712.6,233.1,691.9L233.1,691.9z M235.7,714.3
		c9.9,11.8-13.4,63.7-56.5,56.5C172,727.7,223.9,704.4,235.7,714.3L235.7,714.3z M232.5,751.2c18.4-28,1.9-32.6,25.6-34.3
		c-20.8,54.2,4,52.6-49.1,55.8C219.6,768.1,225.7,761.5,232.5,751.2L232.5,751.2z M272.4,710.9c4.4,62.4,5,55.3-24.4,60.7
		C259.4,748.8,252,723.1,272.4,710.9L272.4,710.9z M255,709.3c-4.5,0.8-10.1,1.5-13-1.3s-2.1-8.5-1.3-13
		c4.3-22.9,25.9-27.7,50.5-36.2C282.7,683.3,277.9,705,255,709.3z M302.5,654.4l10.4,6c-0.3,1-0.5,1.9-0.8,2.8
		c-1.4,4.8-3.5,9.6-4.2,14.6c-3.3,24.4,5,40.9,18.2,49.2l-7.7,13.4C291.8,721,281.9,678.2,302.5,654.4L302.5,654.4z M331.2,730
		c13.8,7.2,32.2,6.2,51.7-8.9c4-3.1,7.1-7.3,10.6-10.9c0.6-0.7,1.2-1.3,2-2l10.4,6c-10.4,29.7-52.3,42.5-82.4,29.2L331.2,730z
		 M407.7,726.1c4.9,25.5,11.5,46.6-6.1,61.8c-3.5,3-7.9,6.4-11.9,5.3s-6.1-6.3-7.6-10.6C374.4,760.7,390.7,745.7,407.7,726.1
		L407.7,726.1z M417.5,780.6c35,51.8,32,45.4,9.3,64.8C425.1,819.9,405.9,801.4,417.5,780.6L417.5,780.6z M418.8,755.3
		c19.8,33,51,16.7,29.3,66C438.3,787.5,419.1,791.9,418.8,755.3L418.8,755.3z M415.3,716.7h12c0.3,1,0.5,1.9,0.7,2.8
		c1.2,4.9,1.8,10.1,3.7,14.7c9.3,22.8,24.8,32.9,40.3,33.5v15.5C439.3,779.7,409.4,747.5,415.3,716.7L415.3,716.7z M432.9,715.8
		l13.3-2.9c2.3,7.6,2.6,15.7,13.7,26.2c3.9,3.7,7.8,5.8,12,6.3v17.4C450.5,760.1,432.9,734.3,432.9,715.8L432.9,715.8z M451.5,711.5
		c-0.1-1,1.6-2,9.1-6.7c2,4.4,3.6,9.1,6.2,13.1c1.2,2.1,3,3.7,5.2,4.7v17.1C464.6,737.9,455,729.9,451.5,711.5L451.5,711.5z
		 M475,681.3c8.8,17.3,13,17.7,2.9,33.4c-0.9,1.6-2.9,2.2-4.5,1.4c-0.6-0.3-1.1-0.8-1.4-1.4C462,699,466.2,698.6,475,681.3z
		 M478,767.7c15.5-0.7,31-10.7,40.4-33.5c1.9-4.7,2.5-9.9,3.7-14.7c0.2-0.9,0.5-1.7,0.7-2.8h12c5.9,30.9-24,63-56.7,66.5L478,767.7z
		 M531.2,755.2c-0.2,36.7-19.5,32.2-29.3,66C480.2,772,511.3,788.3,531.2,755.2L531.2,755.2z M532.5,780.5
		c11.6,20.9-7.6,39.4-9.3,64.8C500.5,825.9,497.5,832.4,532.5,780.5L532.5,780.5z M548.4,787.9c-17.7-15.2-11-36.3-6.1-61.8
		c17,19.7,33.3,34.6,25.6,56.6c-1.5,4.3-3.7,9.5-7.6,10.6S551.9,790.9,548.4,787.9L548.4,787.9z M544.1,714.1l10.4-6
		c0.8,0.8,1.4,1.4,2,2c3.5,3.6,6.6,7.8,10.6,10.9c19.5,15.1,38,16.1,51.7,8.9l7.8,13.4C596.4,756.7,554.5,743.8,544.1,714.1
		L544.1,714.1z M624,727c13.1-8.3,21.5-24.8,18.2-49.2c-0.7-5-2.8-9.8-4.2-14.6c-0.3-0.9-0.5-1.7-0.8-2.8l10.4-6
		c20.5,23.8,10.7,66.6-15.9,86L624,727z M658.8,658.8c24.5,8.5,46.2,13.3,50.5,36.2c0.8,4.5,1.5,10.1-1.3,13s-8.5,2.2-13,1.3
		C672.2,705,667.3,683.3,658.8,658.8L658.8,658.8z M677.6,710.9c20.5,12.3,13.1,37.9,24.4,60.7C672.5,766.2,673.2,773.3,677.6,710.9
		L677.6,710.9z M691.9,716.9c23.7,1.7,7.2,6.3,25.7,34.3c6.8,10.3,12.9,16.9,23.5,21.5C687.8,769.5,712.6,771,691.9,716.9
		L691.9,716.9z M714.3,714.3c11.8-9.9,63.7,13.4,56.5,56.5C727.7,778,704.4,726.1,714.3,714.3L714.3,714.3z M751.2,717.5
		c-28-18.4-32.6-1.9-34.3-25.7c54.2,20.8,52.6-4,55.8,49.1C768.1,730.4,761.5,724.3,751.2,717.5L751.2,717.5z M710.9,677.5
		c62.4-4.4,55.3-5,60.7,24.4C748.8,690.6,723.1,698,710.9,677.5L710.9,677.5z M689.7,663.8c38.5-0.7,40-35.8,71.8,7.6
		C727.2,663,721.5,681.9,689.7,663.8L689.7,663.8z M654.5,647.6l6-10.4c1,0.3,1.9,0.5,2.8,0.8c4.8,1.4,9.6,3.5,14.6,4.2
		c24.4,3.3,40.9-5,49.2-18.2l13.4,7.7C721,658.2,678.2,668.1,654.5,647.6L654.5,647.6z M730,618.8c7.2-13.8,6.2-32.2-8.9-51.7
		c-3.1-4-7.3-7.1-10.9-10.6c-0.7-0.6-1.3-1.2-2-2l6-10.4c29.7,10.4,42.5,52.3,29.2,82.4L730,618.8z M726.1,542.3
		c25.5-4.9,46.6-11.5,61.8,6.1c3,3.5,6.4,7.9,5.3,11.9s-6.3,6.1-10.6,7.6C760.7,575.6,745.7,559.3,726.1,542.3L726.1,542.3z
		 M745.8,566.5c31.6,18.5,18.2,33,42.5,58.3C734.8,619,764.5,600.2,745.8,566.5L745.8,566.5z M768.4,578
		c23.9,0.4,30.3,26.3,51.5,40.4C791.6,628.4,795.8,634.2,768.4,578z M783.7,576.1c21.4-10.4,9.4,1.8,39.4,16.9
		c11.1,5.6,19.7,8.2,31.1,6.9C806.5,623.6,828.8,612.6,783.7,576.1L783.7,576.1z M801.9,562.6c5.2-14.5,61.9-20.3,77.2,20.7
		C845.3,611.1,799.2,577.7,801.9,562.6L801.9,562.6z M835.4,546.9c-33.5-1.9-29.2,14.6-42.5-5.1c57.3-9.1,43.5-29.8,72.9,14.6
		C856.5,549.6,847.8,547.6,835.4,546.9z M780.5,532.5c51.8-35,45.4-32,64.8-9.3C819.9,524.9,801.4,544.1,780.5,532.5L780.5,532.5z
		 M755.2,531.2c33-19.8,16.7-51,66-29.3C787.5,511.7,791.9,530.9,755.2,531.2z M755.2,418.9c36.7,0.2,32.2,19.5,66,29.3
		C772,469.8,788.3,438.7,755.2,418.9L755.2,418.9z M895.2,359.4c-3,0.7-6,1.4-8.9,2.2c-2.1,0.6-4.4,0.3-6.3-0.9
		c-59.2-35.6-82.3-55.6-129.2-32.7l-2.1-7C793.8,291.2,805.7,305.8,895.2,359.4L895.2,359.4z M834.1,264.2c-2.8,1.6-6.2,2.2-9.4,1.7
		c-10.3-1.7-32.9-5.5-33.3-5.8l0.6-18.7l57.2,13.3c0.3,0.1,0.6,0.2,0.8,0.3L834.1,264.2z M853.1,260.1c0,0.3-0.1,0.6-0.2,0.9
		l-17.1,56.2l-16.5-8.8c0-0.5,8-22,11.7-31.7c1.1-3.1,3.3-5.6,6.2-7.3L853.1,260.1z M825.9,275.9c-12.6,38.3-8.9,31.1-26.2,25.5
		c2.2-5.7,4-9.5,4.8-12.2c0.2-0.7,0.7-1.4,1.4-1.8C807.7,286.4,812.3,283.7,825.9,275.9L825.9,275.9z M855.5,329.6
		c-18.6-11.3-17.6-4.8,3.3-69.6c0.8-2.6,2.6-4.7,4.9-6.1l15.9-9.2C876.8,259.5,860.8,313.1,855.5,329.6L855.5,329.6z M876.7,239.6
		l-15.9,9.2c-2.3,1.3-5.1,1.8-7.7,1.2c-66.6-14.3-61.5-10.1-61.9-31.9C808.2,221.8,862.5,234.8,876.7,239.6L876.7,239.6z
		 M822.9,270.7c-13.6,7.8-18.3,10.5-19.9,11.5c-0.7,0.4-1.5,0.5-2.2,0.3c-2.8-0.6-7-1-13-1.9C791.5,262.9,783.5,262.5,822.9,270.7
		L822.9,270.7z M800,287.4c-7.7,16.8-0.6,12.9-25.9,15C788.6,281.4,781.7,285.5,800,287.4L800,287.4z M785.2,169
		c1.7,104.3,8.4,121.9-40,146.1l-5.1-5.4c43.3-29.1,37.5-59.1,36.3-128.2c0-2.2,0.8-4.4,2.4-5.9C781,173.4,783.2,171.2,785.2,169
		L785.2,169z M781.1,164.8c-2.2,2.1-4.4,4.2-6.6,6.4c-1.6,1.6-3.7,2.5-5.9,2.4c-69.1-1.2-99-7-128.2,36.3l-5.3-5.1
		C659.2,156.4,676.8,163.1,781.1,164.8L781.1,164.8z M684.1,125.3c-0.5-3.2,0.1-6.5,1.7-9.4l9.2-16c0.1,0.3,0.2,0.5,0.3,0.8
		l13.3,57.2l-18.7,0.6C689.6,158.2,685.8,135.6,684.1,125.3L684.1,125.3z M669.4,162.3c-0.9-6-1.3-10.2-1.9-13
		c-0.2-0.8,0-1.6,0.3-2.2c1-1.7,3.7-6.4,11.5-19.9C687.5,166.5,687.2,158.5,669.4,162.3L669.4,162.3z M680.6,112.9
		c-1.6,2.8-4.2,5-7.3,6.2c-9.8,3.6-31.3,11.7-31.7,11.7l-8.8-16.5L689,97.1c0.3-0.1,0.6-0.1,0.9-0.2L680.6,112.9z M674.1,124.1
		c-7.8,13.6-10.6,18.3-11.5,19.9c-0.4,0.7-1,1.2-1.8,1.4c-2.7,0.9-6.6,2.6-12.2,4.9C643,133,635.9,136.7,674.1,124.1L674.1,124.1z
		 M662.7,149.9c1.8,18.4,6,11.5-15,25.9C649.8,150.5,645.8,157.6,662.7,149.9z M710.4,73.3c4.8,14.2,17.8,68.6,21.5,85.6
		c-21.8-0.5-17.6,4.7-31.9-61.9c-0.6-2.6-0.1-5.4,1.2-7.7L710.4,73.3z M705.2,70.3L696,86.2c-1.3,2.3-3.5,4.1-6.1,4.9
		c-64.8,20.9-58.3,22-69.6,3.3C636.9,89.1,690.5,73.3,705.2,70.3z M588.4,63.7c0.8-3,1.6-5.9,2.2-8.9
		c53.6,89.5,68.2,101.4,38.4,146.5l-7-2.1c22.9-46.9,2.9-69.9-32.7-129.2C588.2,68.2,587.8,65.9,588.4,63.7L588.4,63.7z
		 M562.6,148.1c-14.5-5.2-20.3-61.9,20.7-77.2C611.1,104.7,577.7,150.8,562.6,148.1z M585,53.3c-0.9,2.9-1.8,5.9-2.5,8.8
		c-0.6,2.2-2,4-3.9,5.1c-60.5,33.5-89.3,43.4-92.9,95.5l-7.2-1.7C475.2,107,493.8,104,585,53.3z M478,9.4
		c11.2,9.9,49.7,50.5,61.4,63.4c-19.1,10.5-12.9,12.8-58.6-37.7c-1.8-2-2.8-4.6-2.8-7.3V9.4z M478,40.1c0.2,0.2,0.5,0.4,0.7,0.6
		l40.1,43l-15.9,9.9c-0.4-0.2-15-17.9-21.6-26c-2.1-2.5-3.2-5.7-3.2-9L478,40.1z M487,107c-3.8-4.8-6.3-8.2-8.2-10.3
		c-0.5-0.6-0.8-1.3-0.8-2.1c0-1.9,0-7.4,0-23C504.8,101.6,500.5,94.8,487,107z M475,129.6c-10.9-23-10.7-14.9,0-29.9
		C485.7,114.7,485.9,106.6,475,129.6z M472,71.5c0,15.7,0,21.1,0,23c0,0.8-0.3,1.5-0.8,2.1c-1.9,2.1-4.4,5.6-8.2,10.3
		C449.5,94.8,445.2,101.6,472,71.5z M447.1,93.5l-15.9-9.9l40.1-43c0.2-0.2,0.4-0.4,0.7-0.6v18.5c0,3.3-1.1,6.5-3.2,9
		C462.1,75.6,447.5,93.3,447.1,93.5L447.1,93.5z M472,9.4v18.4c0,2.7-1,5.3-2.8,7.3c-45.7,50.5-39.5,48.2-58.6,37.7
		C422.3,59.9,460.8,19.3,472,9.4z M471.6,161l-7.2,1.7c-3.6-52.1-32.4-62-92.9-95.5c-2-1.1-3.4-2.9-3.9-5.1c-0.8-3-1.6-5.9-2.5-8.8
		C456.2,104,474.8,107,471.6,161z M366.7,70.9c41,15.4,35.2,72,20.7,77.2C372.3,150.8,338.9,104.7,366.7,70.9z M359.4,54.8
		c0.7,3,1.4,5.9,2.2,8.9c0.6,2.1,0.3,4.4-0.9,6.4c-35.6,59.2-55.6,82.3-32.7,129.2l-7,2.1C291.2,156.2,305.8,144.3,359.4,54.8z
		 M301.4,150.3c-5.7-2.2-9.5-4-12.2-4.9c-0.7-0.2-1.4-0.7-1.8-1.4c-1-1.7-3.7-6.4-11.5-19.9C314.1,136.7,307,133,301.4,150.3
		L301.4,150.3z M302.4,175.9c-21-14.5-16.8-7.5-15-25.9C304.1,157.6,300.2,150.5,302.4,175.9L302.4,175.9z M264.3,115.9
		c1.6,2.8,2.2,6.2,1.7,9.4c-1.7,10.3-5.5,32.9-5.8,33.3l-18.8-0.6l13.3-57.2c0.1-0.3,0.2-0.6,0.3-0.8L264.3,115.9z M260.2,96.9
		c0.3,0,0.6,0.1,0.9,0.2l56.2,17.1l-8.8,16.5c-0.5,0-22-8-31.7-11.7c-3.1-1.1-5.6-3.3-7.3-6.2L260.2,96.9z M270.7,127.1
		c7.8,13.6,10.5,18.3,11.5,19.9c0.4,0.7,0.5,1.5,0.3,2.2c-0.6,2.8-1,7-1.9,13C262.9,158.5,262.5,166.5,270.7,127.1L270.7,127.1z
		 M329.7,94.5c-11.3,18.6-4.8,17.6-69.6-3.3c-2.6-0.8-4.7-2.6-6.1-4.9l-9.2-15.9c14.6,3,68.2,18.9,84.8,24.2H329.7z M239.7,73.3
		l9.2,15.9c1.3,2.3,1.8,5.1,1.2,7.7c-14.3,66.6-10.1,61.5-31.9,61.9c3.6-17,16.6-71.3,21.4-85.6H239.7z M315,204.8l-5.4,5.1
		c-29.1-43.3-59.1-37.5-128.2-36.3c-2.2,0-4.4-0.8-5.9-2.4c-2.1-2.2-4.3-4.3-6.6-6.4C273.2,163.1,290.8,156.4,315,204.8z
		 M164.8,168.9c2.1,2.3,4.2,4.5,6.4,6.6c1.6,1.6,2.5,3.7,2.4,5.9c-1.2,69.1-7,99,36.3,128.2l-5.1,5.3
		C156.4,290.8,163.1,273.2,164.8,168.9z M175.9,302.3c-25.4-2.1-18.3,1.9-25.9-15C168.3,285.5,161.4,281.4,175.9,302.3L175.9,302.3z
		 M112.9,269.4c2.8,1.6,5,4.2,6.2,7.3c3.6,9.8,11.7,31.3,11.7,31.7l-16.5,8.8L97.1,261c-0.1-0.3-0.1-0.6-0.2-0.9L112.9,269.4z
		 M99.9,255c0.3-0.1,0.5-0.2,0.8-0.3l57.3-13.3l0.6,18.7c-0.4,0.2-23,4-33.3,5.8c-3.2,0.5-6.5-0.1-9.4-1.7L99.9,255z M124.1,275.9
		c13.6,7.8,18.3,10.6,19.9,11.5c0.7,0.4,1.2,1,1.4,1.8c0.9,2.7,2.6,6.6,4.9,12.2C133,307,136.7,314.1,124.1,275.9L124.1,275.9z
		 M162.2,280.6c-6,0.9-10.2,1.3-13,1.9c-0.8,0.2-1.6,0-2.2-0.3c-1.7-1-6.4-3.7-19.9-11.5C166.5,262.5,158.5,262.9,162.2,280.6
		L162.2,280.6z M158.8,218.1c-0.5,21.8,4.7,17.6-61.9,31.9c-2.6,0.6-5.4,0.1-7.7-1.2l-15.9-9.2C87.5,234.8,141.8,221.8,158.8,218.1
		L158.8,218.1z M70.3,244.8l15.9,9.2c2.3,1.3,4.1,3.5,4.9,6.1c20.9,64.8,22,58.3,3.3,69.6C89.1,313.1,73.2,259.5,70.3,244.8
		L70.3,244.8z M201.3,321l-2.1,7c-46.9-22.9-69.9-2.9-129.2,32.7c-1.9,1.1-4.2,1.5-6.4,0.9c-3-0.8-5.9-1.6-8.9-2.2
		C144.3,305.8,156.2,291.2,201.3,321L201.3,321z M53.3,365c2.9,0.9,5.9,1.8,8.8,2.5c2.2,0.6,4,2,5.1,3.9
		c33.5,60.5,43.4,89.3,95.5,92.9l-1.7,7.2C107,474.8,104,456.2,53.3,365z M67.6,468.7c-2.5,2.1-5.7,3.2-9,3.2H40.1
		c0.2-0.2,0.4-0.5,0.6-0.7l43-40.1l9.9,15.9C93.3,447.5,75.6,462.1,67.6,468.7L67.6,468.7z M107,463c-4.8,3.8-8.2,6.3-10.3,8.2
		c-0.6,0.5-1.3,0.8-2.1,0.8h-23C101.6,445.2,94.8,449.5,107,463z M58.6,478c3.3,0,6.5,1.1,9,3.2c8,6.6,25.7,21.3,26,21.6l-9.9,15.9
		l-43-40.1c-0.2-0.2-0.4-0.4-0.6-0.7L58.6,478z M71.6,478h23c0.8,0,1.5,0.3,2.1,0.8c2.1,1.9,5.6,4.4,10.3,8.2
		C94.8,500.5,101.6,504.8,71.6,478L71.6,478z M99.7,475c15-10.7,6.9-10.9,29.9,0C106.6,485.9,114.7,485.7,99.7,475L99.7,475z
		 M72.8,410.6c10.5,19.1,12.8,12.9-37.7,58.6c-2,1.8-4.6,2.8-7.3,2.8H9.4C19.3,460.8,59.9,422.3,72.8,410.6L72.8,410.6z M9.4,478
		h18.4c2.7,0,5.3,1,7.3,2.8c50.5,45.7,48.2,39.5,37.7,58.6C59.9,527.7,19.3,489.2,9.4,478z M161,478.4l1.7,7.2
		c-52.1,3.6-62,32.4-95.5,92.9c-1.1,2-2.9,3.4-5.1,3.9c-3,0.8-5.9,1.6-8.8,2.5C104,493.8,107,475.2,161,478.4L161,478.4z
		 M54.8,590.6c3-0.7,5.9-1.4,8.9-2.2c2.1-0.6,4.4-0.3,6.4,0.9c59.2,35.6,82.3,55.6,129.2,32.7l2.1,7.1
		C156.2,658.8,144.3,644.2,54.8,590.6z M115.9,685.8c2.8-1.6,6.2-2.2,9.4-1.7c10.3,1.7,32.9,5.5,33.3,5.8l-0.6,18.7l-57.2-13.3
		c-0.3-0.1-0.6-0.2-0.8-0.3L115.9,685.8z M96.9,689.8c0-0.3,0.1-0.6,0.2-0.9l17.1-56.2l16.5,8.8c0,0.5-8,22-11.7,31.7
		c-1.1,3.1-3.3,5.6-6.2,7.3L96.9,689.8z M124.1,674.1c12.6-38.3,8.9-31.1,26.2-25.5c-2.2,5.7-4,9.5-4.9,12.2
		c-0.2,0.7-0.7,1.4-1.4,1.8C142.4,663.6,137.6,666.3,124.1,674.1L124.1,674.1z M94.5,620.4c18.6,11.3,17.6,4.8-3.3,69.6
		c-0.8,2.6-2.6,4.7-4.9,6.1l-15.9,9.2C73.2,690.5,89.1,636.9,94.5,620.4L94.5,620.4z M73.3,710.4l15.9-9.2c2.3-1.3,5.1-1.8,7.7-1.2
		c66.6,14.3,61.5,10.1,61.9,31.9C141.8,728.2,87.5,715.2,73.3,710.4L73.3,710.4z M127.1,679.4c13.6-7.8,18.3-10.5,19.9-11.5
		c0.7-0.4,1.5-0.5,2.2-0.3c2.8,0.6,7,1,13,1.9C158.5,687.2,166.5,687.5,127.1,679.4L127.1,679.4z M150,662.7
		c7.7-16.8,0.6-12.9,25.9-15C161.4,668.7,168.3,664.5,150,662.7L150,662.7z M164.8,781.1c-1.7-104.3-8.4-121.9,40-146.1l5.1,5.4
		c-43.3,29.2-37.5,59.1-36.3,128.2c0,2.2-0.8,4.4-2.4,5.9C169,776.6,166.8,778.8,164.8,781.1L164.8,781.1z M168.9,785.2
		c2.3-2.1,4.5-4.2,6.6-6.4c1.6-1.6,3.7-2.5,5.9-2.4c69.1,1.2,99.1,7,128.2-36.3l5.4,5.1C290.8,793.6,273.2,786.9,168.9,785.2
		L168.9,785.2z M265.9,824.7c0.5,3.2-0.1,6.5-1.7,9.4l-9.2,16c-0.1-0.3-0.2-0.5-0.3-0.8L241.4,792l18.7-0.6
		C260.4,791.8,264.2,814.4,265.9,824.7L265.9,824.7z M280.6,787.7c0.9,6,1.3,10.2,1.9,13c0.2,0.8,0,1.6-0.3,2.2
		c-1,1.7-3.7,6.4-11.5,19.9C262.5,783.5,262.9,791.5,280.6,787.7L280.6,787.7z M269.4,837.1c1.6-2.8,4.2-5,7.3-6.2
		c9.8-3.6,31.3-11.7,31.7-11.7l8.8,16.5L261,852.9c-0.3,0.1-0.6,0.1-0.9,0.2L269.4,837.1z M275.9,825.9
		c7.8-13.6,10.6-18.3,11.5-19.9c0.4-0.7,1-1.2,1.8-1.4c2.7-0.9,6.6-2.6,12.2-4.8C307,817,314.1,813.3,275.9,825.9z M287.3,800.1
		c-1.8-18.4-6-11.5,15-25.9C300.2,799.5,304.1,792.4,287.3,800.1z M239.6,876.7c-4.8-14.2-17.8-68.6-21.5-85.6
		c21.8,0.5,17.6-4.7,31.9,61.9c0.6,2.6,0.1,5.4-1.2,7.7L239.6,876.7z M244.8,879.7l9.2-15.9c1.3-2.3,3.5-4.1,6.1-4.9
		c64.8-20.9,58.3-22,69.6-3.3C313.1,860.8,259.5,876.7,244.8,879.7z M361.6,886.3c-0.8,3-1.6,5.9-2.2,8.9
		c-53.6-89.5-68.2-101.4-38.4-146.5l7.1,2.1c-22.9,46.9-2.9,69.9,32.7,129.2C361.9,881.9,362.2,884.1,361.6,886.3L361.6,886.3z
		 M387.4,801.9c14.5,5.2,20.3,61.9-20.7,77.2C338.9,845.3,372.3,799.2,387.4,801.9L387.4,801.9z M365,896.7c0.9-2.9,1.8-5.8,2.5-8.8
		c0.6-2.2,2-4,3.9-5.1c60.5-33.5,89.3-43.4,92.9-95.5l7.2,1.7C474.8,843,456.2,846,365,896.7z M472,940.6
		c-11.2-9.9-49.7-50.5-61.4-63.4c19.1-10.5,12.9-12.8,58.6,37.7c1.8,2,2.8,4.6,2.8,7.3V940.6z M472,909.9c-0.2-0.2-0.5-0.4-0.7-0.6
		l-40.1-43l15.9-9.9c0.4,0.2,15,17.9,21.6,26c2.1,2.5,3.2,5.7,3.2,9L472,909.9z M463,843.1c3.8,4.8,6.3,8.2,8.2,10.3
		c0.5,0.6,0.8,1.3,0.8,2.1c0,1.9,0,7.3,0,23C445.2,848.4,449.5,855.2,463,843.1L463,843.1z M475,820.4c10.9,23,10.7,14.9,0,30
		C464.3,835.3,464.1,843.4,475,820.4z M478,878.5c0-15.7,0-21.1,0-23c0-0.8,0.3-1.5,0.8-2.1c1.9-2.1,4.4-5.5,8.2-10.3
		C500.5,855.2,504.8,848.4,478,878.5L478,878.5z M502.9,856.5l15.9,9.9l-40.1,42.9c-0.2,0.2-0.4,0.4-0.7,0.6v-18.5
		c0-3.3,1.1-6.5,3.2-9C487.9,874.4,502.5,856.7,502.9,856.5L502.9,856.5z M478,940.6v-18.4c0-2.7,1-5.3,2.8-7.3
		c45.7-50.5,39.5-48.2,58.6-37.7C527.7,890.1,489.2,930.7,478,940.6z M478.4,789l7.2-1.7c3.6,52.1,32.4,62,92.9,95.5
		c2,1.1,3.4,2.9,3.9,5.1c0.8,3,1.6,5.9,2.5,8.8C493.8,846,475.2,843,478.4,789z M583.3,879.1c-41-15.4-35.2-72-20.7-77.2
		C577.7,799.2,611.1,845.3,583.3,879.1L583.3,879.1z M590.6,895.2c-0.7-3-1.4-6-2.2-8.9c-0.6-2.1-0.3-4.4,0.9-6.3
		c35.6-59.2,55.6-82.3,32.7-129.2l7.1-2.1C658.8,793.8,644.2,805.7,590.6,895.2L590.6,895.2z M648.6,799.7c5.7,2.2,9.5,4,12.2,4.8
		c0.7,0.2,1.4,0.7,1.8,1.4c1,1.7,3.7,6.4,11.5,19.9C635.9,813.3,643,817,648.6,799.7L648.6,799.7z M647.6,774.1
		c21,14.5,16.8,7.5,15,25.9C645.8,792.4,649.8,799.5,647.6,774.1L647.6,774.1z M685.7,834.1c-1.6-2.8-2.2-6.2-1.7-9.4
		c1.7-10.3,5.5-32.9,5.8-33.3l18.7,0.6l-13.3,57.2c-0.1,0.3-0.2,0.6-0.3,0.8L685.7,834.1z M689.8,853.1c-0.3,0-0.6-0.1-0.9-0.2
		l-56.1-17.1l8.8-16.5c0.5,0,22,8,31.7,11.7c3.1,1.1,5.6,3.3,7.3,6.2L689.8,853.1z M679.2,822.9c-7.8-13.6-10.5-18.3-11.5-19.9
		c-0.4-0.7-0.5-1.5-0.3-2.2c0.6-2.8,1-7,1.9-13C687.2,791.5,687.5,783.5,679.2,822.9L679.2,822.9z M620.2,855.5
		c11.3-18.6,4.8-17.6,69.6,3.3c2.6,0.8,4.7,2.6,6.1,4.9l9.2,15.9c-14.6-3-68.2-18.8-84.7-24.2L620.2,855.5z M710.2,876.7l-9.2-15.9
		c-1.3-2.3-1.8-5.1-1.2-7.7c14.3-66.6,10.1-61.5,31.9-61.9c-3.6,17-16.6,71.4-21.4,85.6L710.2,876.7z M635,745.2l5.4-5.1
		c29.2,43.3,59.1,37.5,128.2,36.3c2.2,0,4.4,0.8,5.9,2.4c2.1,2.2,4.3,4.3,6.6,6.4C676.8,786.9,659.2,793.6,635,745.2z M785.2,781.1
		c-2.1-2.2-4.2-4.4-6.4-6.6c-1.6-1.6-2.5-3.7-2.4-5.9c1.2-69.1,7-99-36.3-128.2l5.1-5.4C793.6,659.2,786.9,676.8,785.2,781.1
		L785.2,781.1z M774.1,647.7c25.4,2.1,18.3-1.8,25.9,15C781.7,664.5,788.6,668.7,774.1,647.7z M837.1,680.6c-2.8-1.6-5-4.2-6.2-7.3
		c-3.6-9.8-11.7-31.3-11.7-31.7l16.5-8.8l17.1,56.2c0.1,0.3,0.1,0.6,0.2,0.9L837.1,680.6z M850.1,695c-0.3,0.1-0.5,0.2-0.8,0.3
		L792,708.6l-0.6-18.7c0.4-0.2,23-4,33.3-5.8c3.2-0.5,6.5,0.1,9.4,1.7L850.1,695z M825.9,674.2c-13.6-7.8-18.3-10.6-19.9-11.5
		c-0.7-0.4-1.2-1-1.4-1.8c-0.9-2.7-2.6-6.6-4.8-12.2C817,643,813.3,635.9,825.9,674.2z M787.8,669.4c6-0.9,10.2-1.3,13-1.9
		c0.8-0.2,1.6,0,2.2,0.3c1.7,1,6.4,3.7,19.9,11.5C783.5,687.5,791.5,687.2,787.8,669.4z M791.2,731.9c0.5-21.8-4.7-17.6,61.9-31.9
		c2.6-0.6,5.4-0.1,7.7,1.2l15.9,9.2C862.5,715.2,808.2,728.2,791.2,731.9z M879.7,705.2l-15.9-9.2c-2.3-1.3-4.1-3.5-4.9-6.1
		c-20.9-64.8-22-58.3-3.3-69.6C860.8,636.9,876.8,690.5,879.7,705.2z M748.7,629l2.1-7.1c46.9,22.9,69.9,2.9,129.2-32.7
		c1.9-1.1,4.2-1.5,6.3-0.9c3,0.8,5.9,1.6,8.9,2.2C805.7,644.2,793.8,658.8,748.7,629z M896.7,584.9c-2.9-0.9-5.8-1.8-8.8-2.5
		c-2.2-0.6-4-2-5.1-3.9c-33.5-60.5-43.4-89.3-95.5-92.9l1.7-7.2C843,475.2,846,493.8,896.7,584.9L896.7,584.9z M877.2,539.3
		c-10.5-19.1-12.8-12.9,37.7-58.6c2-1.8,4.6-2.8,7.3-2.8h18.4C930.7,489.2,890.1,527.7,877.2,539.3L877.2,539.3z"/>
</g>
</svg>
