<?xml version="1.0" encoding="UTF-8"?>
<svg width="700pt" height="700pt" version="1.1" viewBox="0 0 700 700" xmlns="http://www.w3.org/2000/svg">
 <path d="m295.75 107.27c3.3242-3.1484 5.25-7.3516 5.25-11.551 0-4.1992-1.9258-8.2266-5.25-11.199-3.1484-2.625-3.3242-7.3516-0.69922-10.324 2.8008-3.1484 7.3516-3.5 10.5-0.69922 6.6484 5.9492 10.324 13.824 10.324 22.227 0 8.5742-3.6758 16.449-10.324 22.398-3.5 3.1484-5.4258 7-5.4258 11.199s1.9258 8.2266 5.4258 11.199c3.1484 2.8008 3.3242 7.5234 0.69922 10.5-1.3984 1.5742-3.5 2.4492-5.6016 2.4492-1.75 0-3.5-0.69922-4.8984-1.75-6.8242-5.5977-10.5-13.648-10.5-22.223s3.6758-16.449 10.5-22.227zm-77.176 22.227c0 8.5742 3.6758 16.449 10.324 22.398 1.3984 1.0508 3.1484 1.75 4.8984 1.75 2.1016 0 4.0234-0.875 5.4258-2.4492 2.8008-3.1484 2.4492-7.6992-0.52344-10.5-3.5-3.1484-5.4258-7-5.4258-11.199s1.9258-8.2266 5.4258-11.199c6.6484-5.9492 10.324-13.824 10.324-22.398 0-8.3984-3.6758-16.273-10.324-22.227-2.9727-2.9766-7.6992-2.4492-10.5 0.52344-2.625 3.1523-2.4492 7.6992 0.69922 10.324 3.3242 3.1484 5.4258 7 5.4258 11.199 0 4.1992-1.9258 8.3984-5.4258 11.551-6.6484 5.7773-10.324 13.652-10.324 22.227zm133.35 0c0 8.5742 3.6758 16.449 10.324 22.398 1.3984 1.0508 3.1484 1.75 4.8984 1.75 1.9258 0 4.0234-0.875 5.4258-2.4492 2.8008-3.1484 2.4492-7.6992-0.52344-10.5-3.5-3.1484-5.4258-7-5.4258-11.199s1.9258-8.2266 5.4258-11.199c6.6484-5.9492 10.324-13.824 10.324-22.398 0-8.3984-3.6758-16.273-10.324-22.227-3.1484-2.8008-7.6992-2.4492-10.5 0.69922s-2.4492 7.6992 0.52344 10.324c3.5 3.1484 5.4258 7 5.4258 11.199 0 4.1992-1.9258 8.3984-5.4258 11.551-6.3008 5.6016-10.148 13.477-10.148 22.051zm242.9 160.12c-2.4492 25.199-12.426 46.199-18.023 56.352 8.5742 7 12.074 18.727 8.3984 29.574-15.398 46.199-57.051 88.023-103.25 103.43-2.8008 0.875-5.7734 1.3984-8.5742 1.3984-8.0508 0-15.574-3.5-20.824-9.9766-10.324 5.4258-31.5 15.398-56.352 18.023h-3.1484c-11.727 0-22.227-6.8242-26.949-17.148-2.1016 0.17578-4.5508 0.17578-7.5234 0.17578-12.074 0-29.926-2.2734-47.426-13.824h-86.277c-17.148 0-80.324-17.148-80.324-46.898 0-4.1992 3.3242-7.5234 7.5234-7.5234h89.25c-11.727-9.2734-22.227-20.648-31.5-33.773-0.17578-0.17578-0.35156-0.17578-0.35156-0.52344-13.473-18.906-32.547-24.855-50.922-30.633-16.273-4.8984-33.074-9.9766-43.574-24.148-8.9258-12.426-12.074-28.875-8.3984-44.102 3.3242-14.176 12.25-26.074 24.5-32.199 14.176-7.5234 29.051-6.8242 43.051 0.875v-34.824c0-4.0234 3.3242-7.5234 7.5234-7.5234h238.7c4.1992 0 7.5234 3.5 7.5234 7.5234v56c0 9.1016-1.0508 18.375-2.625 27.824 6.6484-7.5234 17.148-10.324 26.949-7.875 2.8008-4.0234 7.1758-10.852 10.324-18.898 3.6758-9.4492 11.727-16.625 21.176-19.426 1.9258-6.3008 7.1758-27.824 3.3242-51.102-1.3984-7.6992 1.75-15.574 8.0508-20.477 6.125-4.5508 14.176-5.9492 21.176-2.8008 61.426 26.25 63.176 74.898 61.602 92.75 11.199 4.7305 18.375 16.98 16.973 29.754zm-95.723-49.523 64.227 15.398c1.0508-15.926-2.4492-53.551-53.023-75.074-3.1484-1.3984-5.4258 0.17578-6.4766 0.875-1.9258 1.5742-2.8008 4.0234-2.4492 6.6484 3.6719 21.875 0.34766 41.824-2.2773 52.152zm-308.53 94.5c-10.5-24.148-16.625-50.227-16.625-74.727v-3.5c-10.324-7.875-22.75-12.426-36.051-5.4258-8.5742 4.5508-14.523 12.602-16.977 22.75-2.625 11.023-0.35156 22.926 6.125 31.676 7.5234 10.324 20.648 14.352 35.875 18.898 8.9297 2.8008 18.379 5.7773 27.652 10.328zm77.875 68.422h3.5c-0.35156-5.25 1.0508-10.324 4.375-14.699 4.8984-6.125 12.773-9.4492 20.648-7.875 23.102 3.6758 44.449-1.5742 50.926-3.5 2.8008-9.4492 9.9766-17.324 19.602-21.176 7.875-3.1484 14.699-7.5234 18.727-10.324-2.8008-11.023 1.3984-23.102 11.199-29.574 2.2734-1.5742 4.5508-3.1484 6.6484-5.0742 5.4258-16.977 8.75-34.301 8.75-50.926v-48.477h-224v48.477c0 55.477 34.301 120.75 79.625 143.15zm-43.574 39.727h69.301c-6.125-6.8242-11.727-15.051-16.625-24.852h-114.62c11.199 12.426 46.551 24.852 61.949 24.852zm137.38 14-15.398-64.398c-10.5 2.625-30.449 5.9492-52.324 2.4492-0.35156-0.17578-0.875-0.17578-1.2266-0.17578-2.1016 0-4.0234 0.875-5.4258 2.625-0.69922 0.875-2.1016 3.3242-0.69922 6.3008 21.523 50.574 59.148 54.074 75.074 53.199zm82.949 0.69922-10.676-19.949-42-78.398c-4.7266 3.3242-11.727 7.5234-19.773 10.5-8.3984 3.1484-13.125 12.426-11.023 21.523l16.977 71.227c1.75 7.3516 8.5742 12.074 15.926 11.199 22.047-2.4492 41.297-11.199 50.57-16.102zm120.4-101.15-2.2734-1.3984-112.35-60.023c-1.9258-1.0508-4.0234-1.5742-6.125-1.5742-4.0234 0-7.875 1.9258-10.148 5.25-7.5234 11.551-17.852 21.875-29.398 29.398-5.25 3.5-6.8242 10.5-3.6758 16.273l36.75 68.773 23.273 43.574 1.0508 2.2734c2.8008 5.0742 8.9258 7.5234 14.523 5.7734 42.176-14.176 79.977-51.801 93.977-93.801 2.0977-5.5938-0.35156-11.895-5.6016-14.52zm3.5-84.176-71.227-16.977c-9.1016-1.9258-18.551 2.625-21.699 11.023-3.1484 7.875-7.1758 15.051-10.5 19.773l98.523 52.676c4.8984-9.4492 13.824-28.699 16.102-50.75 0.52344-7.1719-4.1992-13.996-11.199-15.746z"/>
</svg>
