<?xml version="1.0" encoding="UTF-8"?>
<svg width="700pt" height="700pt" version="1.1" viewBox="0 0 700 700" xmlns="http://www.w3.org/2000/svg" xmlns:xlink="http://www.w3.org/1999/xlink">
 <defs>
  <symbol id="l" overflow="visible">
   <path d="m3.6562-0.21875c-0.1875 0.09375-0.38672 0.16797-0.59375 0.21875-0.19922 0.050781-0.40625 0.078125-0.625 0.078125-0.66797 0-1.1992-0.17969-1.5938-0.54688-0.38672-0.375-0.57812-0.87891-0.57812-1.5156 0-0.64453 0.19141-1.1484 0.57812-1.5156 0.39453-0.375 0.92578-0.5625 1.5938-0.5625 0.21875 0 0.42578 0.027344 0.625 0.078125 0.20703 0.054687 0.40625 0.125 0.59375 0.21875v0.82812c-0.1875-0.125-0.375-0.21875-0.5625-0.28125-0.17969-0.0625-0.37109-0.09375-0.57812-0.09375-0.36719 0-0.65625 0.12109-0.875 0.35938-0.21094 0.23047-0.3125 0.55469-0.3125 0.96875 0 0.40625 0.10156 0.73047 0.3125 0.96875 0.21875 0.23047 0.50781 0.34375 0.875 0.34375 0.20703 0 0.39844-0.023437 0.57812-0.078125 0.1875-0.0625 0.375-0.16016 0.5625-0.29688z"/>
  </symbol>
  <symbol id="c" overflow="visible">
   <path d="m2.6875-2.1719c-0.085938-0.039063-0.16797-0.070313-0.25-0.09375-0.085938-0.019531-0.16797-0.03125-0.25-0.03125-0.25 0-0.44531 0.085937-0.57812 0.25-0.125 0.15625-0.1875 0.38281-0.1875 0.67188v1.375h-0.96875v-2.9844h0.96875v0.48438c0.11328-0.19531 0.25-0.33594 0.40625-0.42188 0.16406-0.09375 0.35938-0.14062 0.57812-0.14062h0.10938c0.039063 0 0.09375 0.007812 0.15625 0.015625z"/>
  </symbol>
  <symbol id="b" overflow="visible">
   <path d="m3.4375-1.5v0.26562h-2.2344c0.03125 0.23047 0.11328 0.40234 0.25 0.51562 0.13281 0.10547 0.32812 0.15625 0.57812 0.15625 0.20703 0 0.41406-0.023438 0.625-0.078125 0.20703-0.0625 0.42188-0.15625 0.64062-0.28125v0.73438c-0.21875 0.09375-0.44531 0.16406-0.67188 0.20312-0.23047 0.039062-0.45312 0.0625-0.67188 0.0625-0.54297 0-0.96484-0.13281-1.2656-0.40625-0.30469-0.28125-0.45312-0.67188-0.45312-1.1719 0-0.47656 0.14453-0.85938 0.4375-1.1406 0.30078-0.28125 0.70703-0.42188 1.2188-0.42188 0.46875 0 0.84375 0.14062 1.125 0.42188s0.42188 0.66406 0.42188 1.1406zm-0.96875-0.32812c0-0.17578-0.058594-0.31641-0.17188-0.42188-0.10547-0.11328-0.24219-0.17188-0.40625-0.17188-0.1875 0-0.33984 0.054687-0.45312 0.15625-0.11719 0.10547-0.1875 0.25-0.21875 0.4375z"/>
  </symbol>
  <symbol id="j" overflow="visible">
   <path d="m1.7969-1.3438c-0.19922 0-0.35156 0.039062-0.45312 0.10938-0.09375 0.0625-0.14062 0.16406-0.14062 0.29688 0 0.11719 0.035156 0.21094 0.10938 0.28125 0.082031 0.0625 0.19531 0.09375 0.34375 0.09375 0.17578 0 0.32812-0.0625 0.45312-0.1875s0.1875-0.28516 0.1875-0.48438v-0.10938zm1.4688-0.35938v1.7031h-0.96875v-0.4375c-0.125 0.17969-0.27344 0.30859-0.4375 0.39062-0.15625 0.082031-0.35156 0.125-0.57812 0.125-0.3125 0-0.57031-0.085938-0.76562-0.26562-0.1875-0.1875-0.28125-0.42188-0.28125-0.70312 0-0.35156 0.11719-0.61328 0.35938-0.78125 0.23828-0.16406 0.61719-0.25 1.1406-0.25h0.5625v-0.0625c0-0.15625-0.0625-0.26562-0.1875-0.32812-0.11719-0.070312-0.29688-0.10938-0.54688-0.10938-0.21094 0-0.40234 0.023437-0.57812 0.0625-0.17969 0.042969-0.33984 0.10156-0.48438 0.17188v-0.71875c0.19531-0.050781 0.39844-0.085938 0.60938-0.10938 0.20703-0.03125 0.41406-0.046875 0.625-0.046875 0.53906 0 0.92969 0.10938 1.1719 0.32812 0.23828 0.21094 0.35938 0.55469 0.35938 1.0312z"/>
  </symbol>
  <symbol id="a" overflow="visible">
   <path d="m1.5-3.8438v0.85938h0.98438v0.67188h-0.98438v1.2812c0 0.13672 0.023438 0.23047 0.078125 0.28125 0.0625 0.042969 0.17578 0.0625 0.34375 0.0625h0.48438v0.6875h-0.8125c-0.38672 0-0.65625-0.078125-0.8125-0.23438s-0.23438-0.42188-0.23438-0.79688v-1.2812h-0.46875v-0.67188h0.46875v-0.85938z"/>
  </symbol>
  <symbol id="i" overflow="visible">
   <path d="m2.5-2.5469v-1.6094h0.95312v4.1562h-0.95312v-0.4375c-0.13672 0.17969-0.28125 0.30859-0.4375 0.39062-0.15625 0.082031-0.33984 0.125-0.54688 0.125-0.375 0-0.68359-0.14453-0.92188-0.4375-0.23047-0.28906-0.34375-0.67188-0.34375-1.1406 0-0.45703 0.11328-0.83203 0.34375-1.125 0.23828-0.28906 0.54688-0.4375 0.92188-0.4375 0.19531 0 0.375 0.042969 0.53125 0.125 0.16406 0.085938 0.31641 0.21484 0.45312 0.39062zm-0.64062 1.9375c0.20703 0 0.36328-0.070313 0.46875-0.21875 0.11328-0.15625 0.17188-0.37891 0.17188-0.67188 0-0.28125-0.058594-0.49219-0.17188-0.64062-0.10547-0.15625-0.26172-0.23438-0.46875-0.23438-0.19922 0-0.35547 0.078125-0.46875 0.23438-0.10547 0.14844-0.15625 0.35938-0.15625 0.64062 0 0.29297 0.050781 0.51562 0.15625 0.67188 0.11328 0.14844 0.26953 0.21875 0.46875 0.21875z"/>
  </symbol>
  <symbol id="n" overflow="visible">
   <path d="m2.0469-0.60938c0.20703 0 0.36328-0.070313 0.46875-0.21875 0.11328-0.15625 0.17188-0.37891 0.17188-0.67188 0-0.28125-0.058594-0.49219-0.17188-0.64062-0.10547-0.15625-0.26172-0.23438-0.46875-0.23438-0.19922 0-0.35547 0.078125-0.46875 0.23438-0.10547 0.14844-0.15625 0.35938-0.15625 0.64062 0 0.29297 0.050781 0.51562 0.15625 0.67188 0.11328 0.14844 0.26953 0.21875 0.46875 0.21875zm-0.625-1.9375c0.125-0.17578 0.26562-0.30469 0.42188-0.39062 0.16406-0.082031 0.35156-0.125 0.5625-0.125 0.36328 0 0.66406 0.14844 0.90625 0.4375 0.23828 0.29297 0.35938 0.66797 0.35938 1.125 0 0.46875-0.12109 0.85156-0.35938 1.1406-0.24219 0.29297-0.54297 0.4375-0.90625 0.4375-0.21094 0-0.39844-0.042969-0.5625-0.125-0.15625-0.082031-0.29688-0.21094-0.42188-0.39062v0.4375h-0.96875v-4.1562h0.96875z"/>
  </symbol>
  <symbol id="m" overflow="visible">
   <path d="m0.0625-2.9844h0.95312l0.8125 2.0156 0.6875-2.0156h0.95312l-1.2656 3.2656c-0.125 0.33203-0.27344 0.56641-0.4375 0.70312-0.16797 0.13281-0.39062 0.20312-0.67188 0.20312h-0.54688v-0.64062h0.29688c0.16406 0 0.28516-0.027344 0.35938-0.078125 0.070313-0.054688 0.12891-0.14062 0.17188-0.26562l0.03125-0.09375z"/>
  </symbol>
  <symbol id="h" overflow="visible">
   <path d="m3.4688-1.8281v1.8281h-0.96875v-1.3906c0-0.25781-0.007812-0.4375-0.015625-0.53125-0.011719-0.10156-0.03125-0.17578-0.0625-0.21875-0.03125-0.0625-0.085937-0.10938-0.15625-0.14062-0.0625-0.039062-0.13281-0.0625-0.20312-0.0625-0.21094 0-0.37109 0.078125-0.48438 0.23438-0.10547 0.15625-0.15625 0.37109-0.15625 0.64062v1.4688h-0.96875v-4.1562h0.96875v1.6094c0.13281-0.17578 0.28516-0.30469 0.45312-0.39062 0.16406-0.082031 0.34375-0.125 0.53125-0.125 0.34375 0 0.60156 0.10938 0.78125 0.32812 0.1875 0.21094 0.28125 0.51172 0.28125 0.90625z"/>
  </symbol>
  <symbol id="g" overflow="visible">
   <path d="m3.4688-1.8281v1.8281h-0.96875v-1.3906c0-0.25781-0.007812-0.4375-0.015625-0.53125-0.011719-0.10156-0.03125-0.17578-0.0625-0.21875-0.03125-0.0625-0.085937-0.10938-0.15625-0.14062-0.0625-0.039062-0.13281-0.0625-0.20312-0.0625-0.21094 0-0.37109 0.078125-0.48438 0.23438-0.10547 0.15625-0.15625 0.37109-0.15625 0.64062v1.4688h-0.96875v-2.9844h0.96875v0.4375c0.13281-0.17578 0.28516-0.30469 0.45312-0.39062 0.16406-0.082031 0.34375-0.125 0.53125-0.125 0.34375 0 0.60156 0.10938 0.78125 0.32812 0.1875 0.21094 0.28125 0.51172 0.28125 0.90625z"/>
  </symbol>
  <symbol id="f" overflow="visible">
   <path d="m0.42188-1.1719v-1.8125h0.96875v0.29688 0.60938 0.48438c0 0.24219 0.003906 0.41797 0.015625 0.53125 0.007812 0.10547 0.03125 0.17969 0.0625 0.21875 0.039062 0.0625 0.09375 0.11719 0.15625 0.15625 0.0625 0.03125 0.13281 0.046875 0.21875 0.046875 0.19531 0 0.35156-0.078125 0.46875-0.23438 0.11328-0.15625 0.17188-0.36719 0.17188-0.64062v-1.4688h0.95312v2.9844h-0.95312v-0.4375c-0.14844 0.17969-0.30469 0.30859-0.46875 0.39062-0.15625 0.082031-0.33594 0.125-0.53125 0.125-0.34375 0-0.60938-0.10156-0.79688-0.3125-0.17969-0.21875-0.26562-0.53125-0.26562-0.9375z"/>
  </symbol>
  <symbol id="k" overflow="visible">
   <path d="m0.45312-2.9844h0.96875v2.9844h-0.96875zm0-1.1719h0.96875v0.78125h-0.96875z"/>
  </symbol>
  <symbol id="e" overflow="visible">
   <path d="m2.7969-2.8906v0.71875c-0.21094-0.082031-0.40625-0.14453-0.59375-0.1875-0.1875-0.039063-0.37109-0.0625-0.54688-0.0625-0.17969 0-0.3125 0.023437-0.40625 0.0625-0.085938 0.042969-0.125 0.10938-0.125 0.20312 0 0.085938 0.03125 0.14844 0.09375 0.1875 0.070312 0.042969 0.19531 0.074219 0.375 0.09375l0.15625 0.015625c0.48828 0.0625 0.81641 0.16797 0.98438 0.3125 0.17578 0.13672 0.26562 0.35938 0.26562 0.67188s-0.12109 0.55469-0.35938 0.71875c-0.23047 0.15625-0.57812 0.23438-1.0469 0.23438-0.19922 0-0.40625-0.015625-0.625-0.046875-0.21094-0.03125-0.42188-0.078125-0.64062-0.14062v-0.71875c0.1875 0.085937 0.37891 0.15234 0.57812 0.20312 0.20703 0.042969 0.41406 0.0625 0.625 0.0625 0.1875 0 0.32812-0.023438 0.42188-0.078125 0.09375-0.050781 0.14062-0.125 0.14062-0.21875s-0.039062-0.16016-0.10938-0.20312c-0.0625-0.039062-0.1875-0.070312-0.375-0.09375l-0.17188-0.015625c-0.42969-0.050781-0.73047-0.14844-0.90625-0.29688-0.16797-0.14453-0.25-0.36328-0.25-0.65625 0-0.32031 0.10938-0.55469 0.32812-0.70312 0.21875-0.15625 0.55078-0.23438 1-0.23438 0.17578 0 0.35938 0.015625 0.54688 0.046875 0.19531 0.023437 0.41016 0.0625 0.64062 0.125z"/>
  </symbol>
  <symbol id="u" overflow="visible">
   <path d="m0.5-3.9844h1.0312v3.9844h-1.0312z"/>
  </symbol>
  <symbol id="t" overflow="visible">
   <path d="m2.4219-4.1562v0.625h-0.51562c-0.13672 0-0.23438 0.027344-0.29688 0.078125-0.054687 0.054687-0.078125 0.13672-0.078125 0.25v0.21875h0.82812v0.67188h-0.82812v2.3125h-0.95312v-2.3125h-0.46875v-0.67188h0.46875v-0.21875c0-0.32031 0.085937-0.5625 0.26562-0.71875 0.1875-0.15625 0.47266-0.23438 0.85938-0.23438z"/>
  </symbol>
  <symbol id="d" overflow="visible">
   <path d="m1.875-2.375c-0.21094 0-0.37109 0.078125-0.48438 0.23438-0.10547 0.14844-0.15625 0.35938-0.15625 0.64062 0 0.29297 0.050781 0.51562 0.15625 0.67188 0.11328 0.14844 0.27344 0.21875 0.48438 0.21875 0.20703 0 0.36719-0.070313 0.48438-0.21875 0.11328-0.15625 0.17188-0.37891 0.17188-0.67188 0-0.28125-0.058594-0.49219-0.17188-0.64062-0.11719-0.15625-0.27734-0.23438-0.48438-0.23438zm0-0.6875c0.51953 0 0.92188 0.14062 1.2031 0.42188 0.28906 0.27344 0.4375 0.65234 0.4375 1.1406 0 0.5-0.14844 0.89062-0.4375 1.1719-0.28125 0.27344-0.68359 0.40625-1.2031 0.40625-0.51172 0-0.91406-0.13281-1.2031-0.40625-0.29297-0.28125-0.4375-0.67188-0.4375-1.1719 0-0.48828 0.14453-0.86719 0.4375-1.1406 0.28906-0.28125 0.69141-0.42188 1.2031-0.42188z"/>
  </symbol>
  <symbol id="s" overflow="visible">
   <path d="m3.2344-2.5c0.11328-0.17578 0.25391-0.3125 0.42188-0.40625 0.16406-0.10156 0.35156-0.15625 0.5625-0.15625 0.33203 0 0.58594 0.10938 0.76562 0.32812 0.1875 0.21094 0.28125 0.51172 0.28125 0.90625v1.8281h-0.96875v-1.5625c0.007813-0.019531 0.015625-0.039062 0.015625-0.0625v-0.10938c0-0.21875-0.03125-0.375-0.09375-0.46875s-0.16406-0.14062-0.29688-0.14062c-0.1875 0-0.33594 0.078125-0.4375 0.23438-0.09375 0.14844-0.14062 0.35938-0.14062 0.64062v1.4688h-0.96875v-1.5625c0-0.33203-0.03125-0.54688-0.09375-0.64062-0.054688-0.09375-0.15234-0.14062-0.29688-0.14062-0.17969 0-0.32031 0.078125-0.42188 0.23438-0.09375 0.14844-0.14062 0.35938-0.14062 0.64062v1.4688h-0.96875v-2.9844h0.96875v0.4375c0.11328-0.17578 0.24219-0.30469 0.39062-0.39062 0.15625-0.082031 0.32812-0.125 0.51562-0.125 0.20703 0 0.39062 0.054688 0.54688 0.15625 0.15625 0.09375 0.27344 0.23047 0.35938 0.40625z"/>
  </symbol>
  <symbol id="r" overflow="visible">
   <path d="m0.5-3.9844h1.1562l1.4375 2.7344v-2.7344h0.98438v3.9844h-1.1562l-1.4375-2.7344v2.7344h-0.98438z"/>
  </symbol>
  <symbol id="q" overflow="visible">
   <path d="m0.5-3.9844h1.7031c0.50781 0 0.89844 0.11719 1.1719 0.34375 0.26953 0.21875 0.40625 0.53906 0.40625 0.95312 0 0.41797-0.13672 0.74219-0.40625 0.96875-0.27344 0.21875-0.66406 0.32812-1.1719 0.32812h-0.67188v1.3906h-1.0312zm1.0312 0.75v1.1094h0.5625c0.19531 0 0.34766-0.046875 0.45312-0.14062 0.11328-0.10156 0.17188-0.24219 0.17188-0.42188 0-0.17578-0.058594-0.3125-0.17188-0.40625-0.10547-0.09375-0.25781-0.14062-0.45312-0.14062z"/>
  </symbol>
  <symbol id="p" overflow="visible">
   <path d="m0.45312-2.9844h0.96875v2.9375c0 0.39453-0.10156 0.69531-0.29688 0.90625-0.1875 0.21875-0.46484 0.32812-0.82812 0.32812h-0.48438v-0.64062h0.17188c0.17578 0 0.29688-0.042969 0.35938-0.125 0.070312-0.074219 0.10938-0.23047 0.10938-0.46875zm0-1.1719h0.96875v0.78125h-0.96875z"/>
  </symbol>
  <symbol id="o" overflow="visible">
   <path d="m2.875-2.8906v0.76562c-0.125-0.082031-0.25781-0.14453-0.39062-0.1875-0.13672-0.039062-0.27344-0.0625-0.40625-0.0625-0.27344 0-0.48047 0.078125-0.625 0.23438-0.14844 0.15625-0.21875 0.37109-0.21875 0.64062 0 0.28125 0.070313 0.5 0.21875 0.65625 0.14453 0.15625 0.35156 0.23438 0.625 0.23438 0.14453 0 0.28516-0.019531 0.42188-0.0625 0.13281-0.039063 0.25781-0.10938 0.375-0.20312v0.78125c-0.14844 0.0625-0.29688 0.10156-0.45312 0.125-0.15625 0.03125-0.3125 0.046875-0.46875 0.046875-0.54297 0-0.96484-0.13281-1.2656-0.40625-0.30469-0.28125-0.45312-0.67188-0.45312-1.1719 0-0.48828 0.14844-0.86719 0.45312-1.1406 0.30078-0.28125 0.72266-0.42188 1.2656-0.42188 0.15625 0 0.3125 0.015625 0.46875 0.046875 0.15625 0.023437 0.30469 0.0625 0.45312 0.125z"/>
  </symbol>
 </defs>
 <g>
  <path d="m542.32 500.59h-19.152c-3.0234 0-5.4688 2.4492-5.4688 5.4688 0 3.0234 2.4453 5.4688 5.4688 5.4688h19.152c3.0195 0 5.4688-2.4453 5.4688-5.4688 0-3.0195-2.4492-5.4688-5.4688-5.4688z"/>
  <path d="m496.12 500.59c-8.3164 0.035156-16.566 0.066406-24.801 0.097656 0-0.015625 0.003906-0.027344 0.003906-0.042968v-168.61c4.9922 4.3438 9.1016 6.4062 12.672 6.4062 0.98047 0 1.918-0.15625 2.8203-0.45703 3.6875-1.2305 5.6133-4.6953 5.9883-7.8125 0.66797-2.6836 3.3516-14.871-0.21875-25.59-1.1211-3.3672-3.5078-5.6719-6.7227-6.4922-4.3398-1.1016-9.6641 0.99609-14.539 3.9688v-39.062c0-3.0195-2.4453-5.4688-5.4688-5.4688-3.0195 0-5.4688 2.4492-5.4688 5.4688v4.6836c-8.1758-5.5273-33.852-24.676-43.922-53.207-1.0039-2.8477-4.1289-4.3438-6.9766-3.3359-2.8477 1.0039-4.3438 4.1289-3.3359 6.9766 13.336 37.789 49.652 59.703 51.191 60.621 0.875 0.51953 1.8359 0.76562 2.7852 0.76562 0.085938 0 0.16797-0.011719 0.25781-0.015625v27.949c-16.855-11.828-32.023-24.898-45.086-38.91-8.1016-8.6914-15.535-17.887-22.094-27.328-31.18-44.883-36.242-86.07-37.047-99.57 52.434 2.7109 96.312 42.785 103.25 95.348 0.39453 2.9961 3.1406 5.1016 6.1367 4.707 2.9922-0.39453 5.1016-3.1445 4.707-6.1367-7.6016-57.613-55.57-101.58-112.98-104.81l35.926-31.117c0.089843-0.078125 0.17578-0.16016 0.26172-0.24219 10.176-10.043 10.777-27.387 1.3633-39.484-8.0156-10.305-23.824-16.898-44.703-5.6523-20.758-11.449-36.637-5.0195-44.758 5.207-9.5312 12.004-9.1055 29.352 0.97266 39.496 0.082031 0.085938 0.16797 0.16406 0.25781 0.24219l35.789 31.629c-62.84 4.1836-112.69 56.633-112.69 120.52v49.859c-4.8633-2.9531-10.168-5.0352-14.488-3.9375-3.2109 0.81641-5.5977 3.1211-6.7188 6.4883-3.5742 10.719-0.89062 22.906-0.21875 25.59 0.37109 3.1133 2.3008 6.5781 5.9883 7.8086 0.90625 0.30078 1.8438 0.45703 2.8203 0.45703 3.5586 0 7.6484-2.0469 12.617-6.3594v90.465c0 3.0195 2.4492 5.4688 5.4688 5.4688 3.0195 0 5.4688-2.4492 5.4688-5.4688v-99.648c0.050782 0.0625 0.10547 0.125 0.15625 0.1875 8.5234 13.879 29.754 59.039 42.781 178.62-14.219-0.027343-28.5-0.0625-42.906-0.10937 0-0.03125 0.007813-0.058594 0.007813-0.085938v-45.559c0-3.0195-2.4492-5.4688-5.4688-5.4688s-5.4688 2.4492-5.4688 5.4688v45.559c0 0.015625 0.003906 0.03125 0.003906 0.050781-9.1758-0.03125-18.383-0.066406-27.668-0.10547-2.9883-0.007812-5.4805 2.4297-5.4922 5.4453-0.011719 3.0195 2.4258 5.4805 5.4453 5.4922 50.309 0.21094 98.832 0.31641 147.28 0.31641 48.449 0 96.828-0.10547 146.86-0.31641 3.0195-0.011718 5.457-2.4727 5.4453-5.4922 0-3.0273-2.4141-5.4844-5.4805-5.4531zm-57.438-189.87c2.3555 0.54688 7.0898 3.4688 11.656 7.125-6.0625 6.8594-9.6914 9.6602-11.59 10.797-0.62109-2.8398-2.0586-10.98-0.066406-17.922zm21.559 12.402c0.046875-0.054688 0.097656-0.11328 0.14453-0.16797v177.69c0 0.023437 0.007813 0.050781 0.007813 0.078124-14.355 0.046876-28.605 0.082032-42.797 0.11328 13.031-118.87 34.16-163.87 42.645-177.71zm22.203-14.328c2.0195 6.9375 0.5625 15.082-0.070313 17.93-1.8438-1.1055-5.3164-3.7812-11.051-10.195v-1.0312c4.3945-3.457 8.8516-6.1836 11.121-6.7031zm-168.52-242.55c7.207-9.0742 19.648-9.4648 33.285-1.043 1.7461 1.0781 3.9453 1.0898 5.7031 0.027343 13.719-8.2852 26.156-7.7734 33.273 1.375 5.2852 6.7969 6.6016 17.922-0.29687 24.867l-36.113 31.277-35.801-31.637c-6.8281-7.0117-5.4023-18.125-0.050781-24.867zm30.941 75.371c-0.59375 9.043-2.9727 28.527-12.344 52.633-11.754 30.227-37.234 74.035-91.891 112.39v-28.004c0.10156 0.007813 0.20703 0.019532 0.30859 0.019532 0.94922 0 1.9102-0.25 2.7891-0.76563 1.5391-0.91406 37.855-22.832 51.191-60.617 1.0039-2.8477-0.48828-5.9727-3.3359-6.9766-2.8477-1.0078-5.9727 0.48828-6.9766 3.3359-10.09 28.59-35.852 47.758-43.973 53.242v-15.539c-0.007812-58.691 46.258-106.78 104.23-109.71zm-94.141 175.38c4.5703-3.6602 9.3086-6.5859 11.66-7.125 2.0195 6.9375 0.55859 15.082-0.070312 17.926-1.8945-1.1406-5.5234-3.9375-11.59-10.801zm-32.031 8.875c-0.62109-2.8438-2.0625-10.98-0.066406-17.922 2.2578 0.52344 6.6875 3.2305 11.062 6.6641v1.1211c-5.7031 6.375-9.1602 9.0391-10.996 10.137zm75.793 175c0.011718-0.26563 0.023437-0.53125-0.007813-0.80469-9.3164-85.754-22.828-134.31-33.426-160.98 1 0.27734 1.9609 0.43359 2.8828 0.43359 0.98047 0 1.918-0.15234 2.8203-0.45703 3.6875-1.2305 5.6133-4.6953 5.9883-7.8125 0.67188-2.6836 3.3555-14.871-0.21875-25.59-0.90625-2.7227-2.6484-4.7305-4.9766-5.8398 43.137-35.965 64.695-74.465 75.379-102.16 3.2148-8.332 5.6328-16.109 7.4609-23.156 5.0469 19.816 14.84 45.613 33.824 72.941 6.8594 9.8711 14.621 19.477 23.078 28.547 8.0117 8.5938 16.777 16.84 26.203 24.684-2.3203 1.1094-4.0586 3.1211-4.9648 5.8359-3.5742 10.715-0.89062 22.902-0.21484 25.59 0.375 3.1172 2.3008 6.582 5.9883 7.8125 0.90625 0.30078 1.8438 0.45703 2.8203 0.45703 0.92188 0 1.8828-0.15625 2.8828-0.43359-10.598 26.664-24.105 75.211-33.422 160.93-37.461 0.0625-74.57 0.066406-112.1 0.007813z"/>
  <path d="m177.43 500.59h-19.754c-3.0195 0-5.4688 2.4492-5.4688 5.4688 0 3.0234 2.4492 5.4688 5.4688 5.4688h19.754c3.0195 0 5.4688-2.4453 5.4688-5.4688 0-3.0195-2.4492-5.4688-5.4688-5.4688z"/>
  <use x="70" y="576.40625" xlink:href="#l"/>
  <use x="74.011719" y="576.40625" xlink:href="#c"/>
  <use x="76.710938" y="576.40625" xlink:href="#b"/>
  <use x="80.417969" y="576.40625" xlink:href="#j"/>
  <use x="84.109375" y="576.40625" xlink:href="#a"/>
  <use x="86.722656" y="576.40625" xlink:href="#b"/>
  <use x="90.433594" y="576.40625" xlink:href="#i"/>
  <use x="96.25" y="576.40625" xlink:href="#n"/>
  <use x="100.167969" y="576.40625" xlink:href="#m"/>
  <use x="105.636719" y="576.40625" xlink:href="#l"/>
  <use x="109.648438" y="576.40625" xlink:href="#h"/>
  <use x="113.542969" y="576.40625" xlink:href="#j"/>
  <use x="117.230469" y="576.40625" xlink:href="#g"/>
  <use x="121.125" y="576.40625" xlink:href="#f"/>
  <use x="125.019531" y="576.40625" xlink:href="#a"/>
  <use x="129.535156" y="576.40625" xlink:href="#k"/>
  <use x="131.410156" y="576.40625" xlink:href="#e"/>
  <use x="136.570312" y="576.40625" xlink:href="#u"/>
  <use x="138.605469" y="576.40625" xlink:href="#g"/>
  <use x="142.5" y="576.40625" xlink:href="#i"/>
  <use x="146.414062" y="576.40625" xlink:href="#f"/>
  <use x="150.304688" y="576.40625" xlink:href="#e"/>
  <use x="153.5625" y="576.40625" xlink:href="#a"/>
  <use x="156.175781" y="576.40625" xlink:href="#c"/>
  <use x="158.871094" y="576.40625" xlink:href="#k"/>
  <use x="160.746094" y="576.40625" xlink:href="#b"/>
  <use x="164.457031" y="576.40625" xlink:href="#e"/>
  <use x="70" y="581.875" xlink:href="#t"/>
  <use x="72.378906" y="581.875" xlink:href="#c"/>
  <use x="75.078125" y="581.875" xlink:href="#d"/>
  <use x="78.832031" y="581.875" xlink:href="#s"/>
  <use x="86.4375" y="581.875" xlink:href="#a"/>
  <use x="89.050781" y="581.875" xlink:href="#h"/>
  <use x="92.941406" y="581.875" xlink:href="#b"/>
  <use x="98.554688" y="581.875" xlink:href="#r"/>
  <use x="103.132812" y="581.875" xlink:href="#d"/>
  <use x="106.890625" y="581.875" xlink:href="#f"/>
  <use x="110.785156" y="581.875" xlink:href="#g"/>
  <use x="116.582031" y="581.875" xlink:href="#q"/>
  <use x="120.589844" y="581.875" xlink:href="#c"/>
  <use x="123.285156" y="581.875" xlink:href="#d"/>
  <use x="127.042969" y="581.875" xlink:href="#p"/>
  <use x="128.917969" y="581.875" xlink:href="#b"/>
  <use x="132.625" y="581.875" xlink:href="#o"/>
  <use x="135.867188" y="581.875" xlink:href="#a"/>
 </g>
</svg>
