<?xml version="1.0" encoding="UTF-8"?>
<svg width="700pt" height="700pt" version="1.1" viewBox="0 0 700 700" xmlns="http://www.w3.org/2000/svg" xmlns:xlink="http://www.w3.org/1999/xlink">
 <defs>
  <symbol id="s" overflow="visible">
   <path d="m18.766-1.125c-0.96875 0.5-1.9805 0.875-3.0312 1.125-1.043 0.25781-2.1367 0.39062-3.2812 0.39062-3.3984 0-6.0898-0.94531-8.0781-2.8438-1.9922-1.9062-2.9844-4.4844-2.9844-7.7344 0-3.2578 0.99219-5.8359 2.9844-7.7344 1.9883-1.9062 4.6797-2.8594 8.0781-2.8594 1.1445 0 2.2383 0.13281 3.2812 0.39062 1.0508 0.25 2.0625 0.625 3.0312 1.125v4.2188c-0.98047-0.65625-1.9453-1.1406-2.8906-1.4531-0.94922-0.3125-1.9492-0.46875-3-0.46875-1.875 0-3.3516 0.60547-4.4219 1.8125-1.0742 1.1992-1.6094 2.8555-1.6094 4.9688 0 2.1055 0.53516 3.7617 1.6094 4.9688 1.0703 1.1992 2.5469 1.7969 4.4219 1.7969 1.0508 0 2.0508-0.14844 3-0.45312 0.94531-0.3125 1.9102-0.80078 2.8906-1.4688z"/>
  </symbol>
  <symbol id="e" overflow="visible">
   <path d="m13.734-11.141c-0.4375-0.19531-0.87109-0.34375-1.2969-0.4375-0.41797-0.10156-0.83984-0.15625-1.2656-0.15625-1.2617 0-2.2305 0.40625-2.9062 1.2188-0.67969 0.80469-1.0156 1.9531-1.0156 3.4531v7.0625h-4.8906v-15.312h4.8906v2.5156c0.625-1 1.3438-1.7266 2.1562-2.1875 0.82031-0.46875 1.8008-0.70312 2.9375-0.70312 0.16406 0 0.34375 0.011719 0.53125 0.03125 0.19531 0.011719 0.47656 0.039062 0.84375 0.078125z"/>
  </symbol>
  <symbol id="a" overflow="visible">
   <path d="m17.641-7.7031v1.4062h-11.453c0.125 1.1484 0.53906 2.0078 1.25 2.5781 0.70703 0.57422 1.7031 0.85938 2.9844 0.85938 1.0312 0 2.082-0.14844 3.1562-0.45312 1.082-0.3125 2.1914-0.77344 3.3281-1.3906v3.7656c-1.1562 0.4375-2.3125 0.76562-3.4688 0.98438-1.1562 0.22656-2.3125 0.34375-3.4688 0.34375-2.7734 0-4.9297-0.70312-6.4688-2.1094-1.5312-1.4062-2.2969-3.3789-2.2969-5.9219 0-2.5 0.75391-4.4609 2.2656-5.8906 1.5078-1.4375 3.582-2.1562 6.2188-2.1562 2.4062 0 4.332 0.73047 5.7812 2.1875 1.4453 1.4492 2.1719 3.3828 2.1719 5.7969zm-5.0312-1.625c0-0.92578-0.27344-1.6719-0.8125-2.2344-0.54297-0.57031-1.25-0.85938-2.125-0.85938-0.94922 0-1.7188 0.26562-2.3125 0.79688s-0.96484 1.2969-1.1094 2.2969z"/>
  </symbol>
  <symbol id="d" overflow="visible">
   <path d="m9.2188-6.8906c-1.0234 0-1.793 0.17188-2.3125 0.51562-0.51172 0.34375-0.76562 0.85547-0.76562 1.5312 0 0.625 0.20703 1.1172 0.625 1.4688 0.41406 0.34375 0.98828 0.51562 1.7188 0.51562 0.92578 0 1.7031-0.32812 2.3281-0.98438 0.63281-0.66406 0.95312-1.4922 0.95312-2.4844v-0.5625zm7.4688-1.8438v8.7344h-4.9219v-2.2656c-0.65625 0.92969-1.3984 1.6055-2.2188 2.0312-0.82422 0.41406-1.8242 0.625-3 0.625-1.5859 0-2.8711-0.45703-3.8594-1.375-0.99219-0.92578-1.4844-2.1289-1.4844-3.6094 0-1.7891 0.61328-3.1016 1.8438-3.9375 1.2383-0.84375 3.1797-1.2656 5.8281-1.2656h2.8906v-0.39062c0-0.76953-0.30859-1.332-0.92188-1.6875-0.61719-0.36328-1.5703-0.54688-2.8594-0.54688-1.0547 0-2.0312 0.10547-2.9375 0.3125-0.89844 0.21094-1.7305 0.52344-2.5 0.9375v-3.7344c1.0391-0.25 2.0859-0.44141 3.1406-0.57812 1.0625-0.13281 2.125-0.20312 3.1875-0.20312 2.7578 0 4.75 0.54688 5.9688 1.6406 1.2266 1.0859 1.8438 2.8555 1.8438 5.3125z"/>
  </symbol>
  <symbol id="c" overflow="visible">
   <path d="m7.7031-19.656v4.3438h5.0469v3.5h-5.0469v6.5c0 0.71094 0.14062 1.1875 0.42188 1.4375s0.83594 0.375 1.6719 0.375h2.5156v3.5h-4.1875c-1.9375 0-3.3125-0.39844-4.125-1.2031-0.80469-0.8125-1.2031-2.1797-1.2031-4.1094v-6.5h-2.4219v-3.5h2.4219v-4.3438z"/>
  </symbol>
  <symbol id="b" overflow="visible">
   <path d="m12.766-13.078v-8.2031h4.9219v21.281h-4.9219v-2.2188c-0.66797 0.90625-1.4062 1.5703-2.2188 1.9844s-1.7578 0.625-2.8281 0.625c-1.8867 0-3.4336-0.75-4.6406-2.25-1.2109-1.5-1.8125-3.4258-1.8125-5.7812 0-2.3633 0.60156-4.2969 1.8125-5.7969 1.207-1.5 2.7539-2.25 4.6406-2.25 1.0625 0 2 0.21484 2.8125 0.64062 0.82031 0.42969 1.5664 1.0859 2.2344 1.9688zm-3.2188 9.9219c1.0391 0 1.8359-0.37891 2.3906-1.1406 0.55078-0.76953 0.82812-1.8828 0.82812-3.3438 0-1.457-0.27734-2.5664-0.82812-3.3281-0.55469-0.76953-1.3516-1.1562-2.3906-1.1562-1.043 0-1.8398 0.38672-2.3906 1.1562-0.55469 0.76172-0.82812 1.8711-0.82812 3.3281 0 1.4609 0.27344 2.5742 0.82812 3.3438 0.55078 0.76172 1.3477 1.1406 2.3906 1.1406z"/>
  </symbol>
  <symbol id="i" overflow="visible">
   <path d="m10.5-3.1562c1.0508 0 1.8516-0.37891 2.4062-1.1406 0.55078-0.76953 0.82812-1.8828 0.82812-3.3438 0-1.457-0.27734-2.5664-0.82812-3.3281-0.55469-0.76953-1.3555-1.1562-2.4062-1.1562-1.0547 0-1.8594 0.38672-2.4219 1.1562-0.55469 0.77344-0.82812 1.8828-0.82812 3.3281 0 1.4492 0.27344 2.5586 0.82812 3.3281 0.5625 0.77344 1.3672 1.1562 2.4219 1.1562zm-3.25-9.9219c0.67578-0.88281 1.4219-1.5391 2.2344-1.9688 0.82031-0.42578 1.7656-0.64062 2.8281-0.64062 1.8945 0 3.4453 0.75 4.6562 2.25 1.207 1.5 1.8125 3.4336 1.8125 5.7969 0 2.3555-0.60547 4.2812-1.8125 5.7812-1.2109 1.5-2.7617 2.25-4.6562 2.25-1.0625 0-2.0078-0.21094-2.8281-0.625-0.8125-0.42578-1.5586-1.0859-2.2344-1.9844v2.2188h-4.8906v-21.281h4.8906z"/>
  </symbol>
  <symbol id="h" overflow="visible">
   <path d="m0.34375-15.312h4.8906l4.125 10.391 3.5-10.391h4.8906l-6.4375 16.766c-0.64844 1.6953-1.4023 2.8828-2.2656 3.5625-0.86719 0.6875-2 1.0312-3.4062 1.0312h-2.8438v-3.2188h1.5312c0.83203 0 1.4375-0.13672 1.8125-0.40625 0.38281-0.26172 0.67969-0.73047 0.89062-1.4062l0.14062-0.42188z"/>
  </symbol>
  <symbol id="g" overflow="visible">
   <path d="m2.5781-20.406h6.6875l4.6562 10.922 4.6719-10.922h6.6875v20.406h-4.9844v-14.938l-4.7031 11.016h-3.3281l-4.7031-11.016v14.938h-4.9844z"/>
  </symbol>
  <symbol id="r" overflow="visible">
   <path d="m12.422-21.281v3.2188h-2.7031c-0.6875 0-1.1719 0.125-1.4531 0.375-0.27344 0.25-0.40625 0.6875-0.40625 1.3125v1.0625h4.1875v3.5h-4.1875v11.812h-4.8906v-11.812h-2.4375v-3.5h2.4375v-1.0625c0-1.6641 0.46094-2.8984 1.3906-3.7031 0.92578-0.80078 2.3672-1.2031 4.3281-1.2031z"/>
  </symbol>
  <symbol id="f" overflow="visible">
   <path d="m9.6406-12.188c-1.0859 0-1.9141 0.39062-2.4844 1.1719-0.57422 0.78125-0.85938 1.9062-0.85938 3.375s0.28516 2.5938 0.85938 3.375c0.57031 0.77344 1.3984 1.1562 2.4844 1.1562 1.0625 0 1.875-0.38281 2.4375-1.1562 0.57031-0.78125 0.85938-1.9062 0.85938-3.375s-0.28906-2.5938-0.85938-3.375c-0.5625-0.78125-1.375-1.1719-2.4375-1.1719zm0-3.5c2.6328 0 4.6914 0.71484 6.1719 2.1406 1.4766 1.418 2.2188 3.3867 2.2188 5.9062 0 2.5117-0.74219 4.4805-2.2188 5.9062-1.4805 1.418-3.5391 2.125-6.1719 2.125-2.6484 0-4.7148-0.70703-6.2031-2.125-1.4922-1.4258-2.2344-3.3945-2.2344-5.9062 0-2.5195 0.74219-4.4883 2.2344-5.9062 1.4883-1.4258 3.5547-2.1406 6.2031-2.1406z"/>
  </symbol>
  <symbol id="q" overflow="visible">
   <path d="m16.547-12.766c0.61328-0.94531 1.3477-1.6719 2.2031-2.1719 0.85156-0.5 1.7891-0.75 2.8125-0.75 1.7578 0 3.0977 0.54688 4.0156 1.6406 0.92578 1.0859 1.3906 2.6562 1.3906 4.7188v9.3281h-4.9219v-7.9844-0.35938c0.007813-0.13281 0.015625-0.32031 0.015625-0.5625 0-1.082-0.16406-1.8633-0.48438-2.3438-0.3125-0.48828-0.82422-0.73438-1.5312-0.73438-0.92969 0-1.6484 0.38672-2.1562 1.1562-0.51172 0.76172-0.77344 1.8672-0.78125 3.3125v7.5156h-4.9219v-7.9844c0-1.6953-0.14844-2.7852-0.4375-3.2656-0.29297-0.48828-0.8125-0.73438-1.5625-0.73438-0.9375 0-1.6641 0.38672-2.1719 1.1562-0.51172 0.76172-0.76562 1.8594-0.76562 3.2969v7.5312h-4.9219v-15.312h4.9219v2.2344c0.60156-0.86328 1.2891-1.5156 2.0625-1.9531 0.78125-0.4375 1.6406-0.65625 2.5781-0.65625 1.0625 0 2 0.25781 2.8125 0.76562 0.8125 0.51172 1.4258 1.2305 1.8438 2.1562z"/>
  </symbol>
  <symbol id="p" overflow="visible">
   <path d="m17.75-9.3281v9.3281h-4.9219v-7.1094c0-1.3438-0.03125-2.2656-0.09375-2.7656s-0.16797-0.86719-0.3125-1.1094c-0.1875-0.3125-0.44922-0.55469-0.78125-0.73438-0.32422-0.17578-0.69531-0.26562-1.1094-0.26562-1.0234 0-1.8242 0.39844-2.4062 1.1875-0.58594 0.78125-0.875 1.8711-0.875 3.2656v7.5312h-4.8906v-21.281h4.8906v8.2031c0.73828-0.88281 1.5195-1.5391 2.3438-1.9688 0.83203-0.42578 1.75-0.64062 2.75-0.64062 1.7695 0 3.1133 0.54688 4.0312 1.6406 0.91406 1.0859 1.375 2.6562 1.375 4.7188z"/>
  </symbol>
  <symbol id="o" overflow="visible">
   <path d="m2.5781-20.406h5.875l7.4219 14v-14h4.9844v20.406h-5.875l-7.4219-14v14h-4.9844z"/>
  </symbol>
  <symbol id="n" overflow="visible">
   <path d="m2.1875-5.9688v-9.3438h4.9219v1.5312c0 0.83594-0.007813 1.875-0.015625 3.125-0.011719 1.25-0.015625 2.0859-0.015625 2.5 0 1.2422 0.03125 2.1328 0.09375 2.6719 0.070313 0.54297 0.17969 0.93359 0.32812 1.1719 0.20703 0.32422 0.47266 0.57422 0.79688 0.75 0.32031 0.16797 0.69141 0.25 1.1094 0.25 1.0195 0 1.8203-0.39062 2.4062-1.1719 0.58203-0.78125 0.875-1.8672 0.875-3.2656v-7.5625h4.8906v15.312h-4.8906v-2.2188c-0.74219 0.89844-1.5234 1.5586-2.3438 1.9844-0.82422 0.41406-1.7344 0.625-2.7344 0.625-1.7617 0-3.1055-0.53906-4.0312-1.625-0.92969-1.082-1.3906-2.6602-1.3906-4.7344z"/>
  </symbol>
  <symbol id="m" overflow="visible">
   <path d="m17.75-9.3281v9.3281h-4.9219v-7.1406c0-1.3203-0.03125-2.2344-0.09375-2.7344s-0.16797-0.86719-0.3125-1.1094c-0.1875-0.3125-0.44922-0.55469-0.78125-0.73438-0.32422-0.17578-0.69531-0.26562-1.1094-0.26562-1.0234 0-1.8242 0.39844-2.4062 1.1875-0.58594 0.78125-0.875 1.8711-0.875 3.2656v7.5312h-4.8906v-15.312h4.8906v2.2344c0.73828-0.88281 1.5195-1.5391 2.3438-1.9688 0.83203-0.42578 1.75-0.64062 2.75-0.64062 1.7695 0 3.1133 0.54688 4.0312 1.6406 0.91406 1.0859 1.375 2.6562 1.375 4.7188z"/>
  </symbol>
  <symbol id="l" overflow="visible">
   <path d="m2.5781-20.406h8.7344c2.5938 0 4.582 0.57812 5.9688 1.7344 1.3945 1.1484 2.0938 2.7891 2.0938 4.9219 0 2.1367-0.69922 3.7812-2.0938 4.9375-1.3867 1.1562-3.375 1.7344-5.9688 1.7344h-3.4844v7.0781h-5.25zm5.25 3.8125v5.7031h2.9219c1.0195 0 1.8047-0.25 2.3594-0.75 0.5625-0.5 0.84375-1.2031 0.84375-2.1094 0-0.91406-0.28125-1.6172-0.84375-2.1094-0.55469-0.48828-1.3398-0.73438-2.3594-0.73438z"/>
  </symbol>
  <symbol id="k" overflow="visible">
   <path d="m2.3594-15.312h4.8906v15.031c0 2.0508-0.49609 3.6172-1.4844 4.7031-0.98047 1.082-2.4062 1.625-4.2812 1.625h-2.4219v-3.2188h0.85938c0.92578 0 1.5625-0.21094 1.9062-0.625 0.35156-0.41797 0.53125-1.2461 0.53125-2.4844zm0-5.9688h4.8906v4h-4.8906z"/>
  </symbol>
  <symbol id="j" overflow="visible">
   <path d="m14.719-14.828v3.9844c-0.65625-0.45703-1.3242-0.79688-2-1.0156-0.66797-0.21875-1.3594-0.32812-2.0781-0.32812-1.3672 0-2.4336 0.40234-3.2031 1.2031-0.76172 0.79297-1.1406 1.9062-1.1406 3.3438 0 1.4297 0.37891 2.543 1.1406 3.3438 0.76953 0.79297 1.8359 1.1875 3.2031 1.1875 0.75781 0 1.4844-0.10938 2.1719-0.32812 0.6875-0.22656 1.3203-0.56641 1.9062-1.0156v4c-0.76172 0.28125-1.5391 0.48828-2.3281 0.625-0.78125 0.14453-1.5742 0.21875-2.375 0.21875-2.7617 0-4.9219-0.70703-6.4844-2.125-1.5547-1.4141-2.3281-3.3828-2.3281-5.9062 0-2.5312 0.77344-4.5039 2.3281-5.9219 1.5625-1.4141 3.7227-2.125 6.4844-2.125 0.80078 0 1.5938 0.074219 2.375 0.21875 0.78125 0.13672 1.5547 0.35156 2.3281 0.64062z"/>
  </symbol>
 </defs>
 <g>
  <path d="m143.48 216.04c-0.16797 2.1289 0.89063 4.1602 2.7227 5.2539l12.59 7.4883 0.96484 14.609c0.14062 2.1289 1.4766 3.9883 3.4492 4.8008 0.69531 0.28516 1.418 0.42578 2.1406 0.42578 1.332 0 2.6562-0.47656 3.6914-1.3906l11.008-9.6562 14.195 3.6016c2.0781 0.51953 4.25-0.16797 5.6328-1.793 1.3828-1.625 1.7266-3.8867 0.88672-5.8477l-5.7773-13.461 7.8047-12.387c1.1367-1.8047 1.1484-4.0938 0.035156-5.9141-1.1133-1.8203-3.1484-2.8398-5.2852-2.6562l-14.582 1.3398-9.3672-11.25c-1.3672-1.6406-3.5273-2.3594-5.6094-1.8633-2.0703 0.5-3.6797 2.1328-4.1484 4.2109l-3.2383 14.285-13.598 5.4375c-1.9844 0.79297-3.3477 2.6367-3.5156 4.7656zm23.996-0.89062c1.7148-0.68359 2.9805-2.168 3.3828-3.9648l1.3828-6.0938 3.9922 4.793c1.1758 1.418 2.9688 2.1562 4.8164 1.9922l6.2148-0.57812-3.3281 5.2812c-0.98047 1.5586-1.1367 3.5-0.41016 5.1953l2.4648 5.7383-6.0547-1.5352c-1.7695-0.44141-3.6797 0.003906-5.0664 1.2227l-4.6914 4.1094-0.41016-6.2266c-0.125-1.8359-1.1406-3.5-2.7266-4.4414l-5.3633-3.1875z"/>
  <path d="m575.28 201.77c-1.1133-1.8203-3.1367-2.8398-5.2852-2.6562l-14.582 1.3398-9.3672-11.25c-1.3672-1.6406-3.5352-2.3594-5.6094-1.8633-2.0703 0.5-3.6797 2.1328-4.1484 4.2109l-3.2383 14.285-13.598 5.4375c-1.9805 0.79688-3.3359 2.6367-3.5039 4.7656-0.16797 2.1289 0.89063 4.1602 2.7227 5.2539l12.59 7.4883 0.96484 14.609c0.14062 2.1289 1.4766 3.9883 3.4492 4.8008 0.69531 0.28516 1.418 0.42578 2.1406 0.42578 1.332 0 2.6562-0.47656 3.6914-1.3906l11.008-9.6562 14.195 3.6016c2.082 0.51953 4.25-0.16797 5.6328-1.793 1.3828-1.625 1.7266-3.8867 0.88672-5.8477l-5.7773-13.461 7.8047-12.387c1.1211-1.8047 1.1328-4.0977 0.023438-5.9141zm-19.297 20.016 2.4648 5.7383-6.0547-1.5352c-1.7734-0.44141-3.6797 0.003906-5.0664 1.2227l-4.6914 4.1094-0.41016-6.2266c-0.125-1.8359-1.1406-3.5-2.7266-4.4414l-5.3633-3.1875 5.7969-2.3203c1.7148-0.68359 2.9805-2.168 3.3828-3.9648l1.3828-6.0938 3.9922 4.793c1.1758 1.418 2.9922 2.1562 4.8164 1.9922l6.2148-0.57812-3.3281 5.2812c-0.98828 1.5742-1.1406 3.5195-0.41016 5.2109z"/>
  <path d="m519.7 125.42c1.4883 1.5273 3.7031 2.0898 5.7383 1.4219l13.926-4.5195 11.621 8.9219c0.99609 0.76562 2.1992 1.1602 3.4102 1.1602 0.83984 0 1.6914-0.19141 2.4766-0.57812 1.9102-0.94531 3.125-2.8906 3.125-5.0195l0.011719-14.648 12.074-8.2891c1.7578-1.2109 2.6758-3.3086 2.375-5.4141-0.30859-2.1094-1.7812-3.8633-3.8086-4.5312l-13.926-4.5352-4.1562-14.043c-0.60547-2.0391-2.3203-3.5664-4.418-3.9258-2.1094-0.35156-4.2266 0.50391-5.4805 2.2188l-8.6172 11.84-14.637-0.38672c-2.1211-0.027344-4.1094 1.1016-5.1016 2.9922-0.99219 1.8828-0.82812 4.1719 0.42188 5.8984l8.5977 11.855-4.8906 13.809c-0.72656 2.0117-0.23437 4.2461 1.2578 5.7734zm16.988-28.668c1.8945 0.089844 3.5938-0.81641 4.6758-2.3008l3.6719-5.0469 1.7695 5.9883c0.51953 1.7656 1.8828 3.1602 3.6328 3.7344l5.9375 1.9336-5.1406 3.5352c-1.5195 1.0469-2.4297 2.7656-2.4297 4.6094l-0.003906 6.2422-4.9492-3.8008c-0.99219-0.76172-2.1953-1.1602-3.4102-1.1602-0.58203 0-1.1641 0.089844-1.7305 0.27344l-5.9375 1.9258 2.082-5.8867c0.61719-1.7422 0.33984-3.6641-0.74609-5.1562l-3.6641-5.0586z"/>
  <path d="m196.86 112.72c0.41016 0.027344 0.8125 0.042969 1.2148 0.042969 4.5977 0 8.9883-1.6562 12.473-4.7266 3.7852-3.3359 6.0547-7.9453 6.3672-12.988 0.32031-5.0352-1.3438-9.9023-4.6758-13.688-6.8945-7.8164-18.855-8.5781-26.68-1.6875-3.7852 3.3359-6.0547 7.9453-6.3672 12.988-0.32031 5.0352 1.3438 9.9023 4.6758 13.688 3.3398 3.793 7.9531 6.0508 12.992 6.3711zm-3.8945-24.641c1.4609-1.2812 3.2773-1.9219 5.0898-1.9219 2.1328 0 4.2617 0.87891 5.7773 2.6094 2.8047 3.1875 2.4961 8.0586-0.6875 10.871-1.5469 1.3594-3.5156 2-5.5781 1.9102-2.0547-0.12891-3.9297-1.0547-5.293-2.5977-1.3594-1.5391-2.0391-3.5234-1.9102-5.5781 0.13672-2.0508 1.0547-3.9336 2.6016-5.293z"/>
  <path d="m317.96 222.52c-11.305 9.957-12.398 27.254-2.4414 38.562 5.3945 6.1211 12.941 9.2461 20.52 9.2461 6.418 0 12.859-2.2383 18.043-6.8086 5.4766-4.8203 8.7461-11.492 9.2109-18.777 0.46484-7.2852-1.9414-14.312-6.7656-19.785-9.9609-11.305-27.258-12.395-38.566-2.4375zm28.719 32.602c-3.2305 2.8438-7.3359 4.2852-11.676 3.9922-4.2969-0.27344-8.2305-2.207-11.078-5.4375-2.8438-3.2305-4.2656-7.375-3.9922-11.676 0.26953-4.3008 2.1992-8.2305 5.4336-11.082 3.0586-2.6875 6.8594-4.0156 10.645-4.0156 4.4727 0 8.9258 1.8438 12.105 5.4609 2.8438 3.2305 4.2656 7.375 3.9922 11.676s-2.1992 8.2305-5.4297 11.082z"/>
  <path d="m373.26 351.43c11.996-10.566 13.16-28.93 2.5938-40.938-10.566-12-28.934-13.172-40.93-2.5859-12 10.566-13.164 28.93-2.5938 40.93 5.7227 6.4961 13.738 9.8164 21.785 9.8164 6.8047 0 13.641-2.3789 19.145-7.2227zm-32.531-9.9961c-6.4844-7.3633-5.7734-18.633 1.5977-25.121 3.375-2.9727 7.5781-4.4336 11.754-4.4336 4.9375 0 9.8516 2.0391 13.367 6.0273 6.4844 7.3633 5.7734 18.637-1.5898 25.129-7.3633 6.4727-18.641 5.7695-25.129-1.6016z"/>
  <path d="m134.88 343.89c3.3359 3.793 7.9531 6.0469 12.992 6.3672 0.41016 0.027344 0.8125 0.042969 1.2148 0.042969 4.5977-0.003906 8.9883-1.6562 12.473-4.7227 3.793-3.3359 6.0547-7.9453 6.3711-12.988 0.32031-5.0352-1.3438-9.9023-4.6758-13.688-3.332-3.7852-7.9453-6.0547-12.988-6.3711-5.0508-0.34766-9.9023 1.3398-13.691 4.6797-7.8203 6.8867-8.582 18.855-1.6953 26.68zm9.0898-18.27c1.4219-1.2539 3.207-1.9258 5.0859-1.9258 0.16797 0 0.33203 0.003906 0.5 0.015625 2.0547 0.125 3.9297 1.0547 5.2852 2.5938v0.003907c1.3594 1.5391 2.0391 3.5234 1.9102 5.5781-0.12891 2.0508-1.0547 3.9258-2.5977 5.2852-1.5469 1.3555-3.5156 1.9883-5.5781 1.9102-2.0547-0.12891-3.9297-1.0547-5.293-2.5977-2.8008-3.1836-2.4922-8.0625 0.6875-10.863z"/>
  <path d="m376.7 105.28c0.32031-5.0352-1.3438-9.9023-4.6758-13.688-3.332-3.7852-7.9453-6.0469-12.988-6.3672-5.0625-0.33984-9.9062 1.3398-13.691 4.6797-7.8164 6.8828-8.5781 18.848-1.6914 26.68 3.3359 3.793 7.9531 6.0469 12.992 6.3672 0.41016 0.027344 0.8125 0.042969 1.2148 0.042969 4.5977-0.003906 8.9883-1.6562 12.473-4.7266 3.7891-3.3398 6.0508-7.9492 6.3672-12.988zm-13.77 4.5859c-1.5391 1.3594-3.5273 2-5.5781 1.9102-2.0547-0.12891-3.9297-1.0547-5.293-2.5977-2.8047-3.1875-2.4961-8.0586 0.6875-10.863 1.4219-1.2539 3.207-1.9258 5.0859-1.9258 0.16406 0 0.33203 0.003906 0.5 0.011719 2.0508 0.12891 3.9297 1.0547 5.2852 2.5977 2.8086 3.1836 2.5 8.0547-0.6875 10.867z"/>
  <path d="m274.01 58.082c-2.3203-2.043-5.8594-1.8125-7.9023 0.50391-2.043 2.3242-1.8203 5.8633 0.50391 7.9062 56.789 49.996 62.965 110.72 63.016 111.33 0.26953 2.9062 2.7109 5.0898 5.5703 5.0898 0.16797 0 0.33984-0.003906 0.50781-0.023437 3.0781-0.28125 5.3477-2.9922 5.0742-6.0703-0.22656-2.6445-6.4688-65.645-66.77-118.73z"/>
  <path d="m380.02 180.46c0.15234 2.9844 2.625 5.3047 5.5898 5.3047 0.09375 0 0.19141 0 0.28516-0.003906 3.0859-0.15234 5.4648-2.7812 5.3125-5.8672-0.035157-0.71094-2.7227-71.191 59.695-111.32 2.5977-1.6758 3.3555-5.1367 1.6797-7.7383-1.6758-2.5977-5.1367-3.3555-7.7383-1.6797-68.012 43.719-64.988 118.16-64.824 121.31z"/>
  <path d="m215.23 138.95h-0.003907c-3.0898 0-5.5938 2.5039-5.6016 5.5938-0.003906 3.0898 2.4961 5.6016 5.5938 5.6055 35.578 0.050781 56.105 37.051 56.309 37.43 1.0195 1.8633 2.9414 2.9219 4.9297 2.9219 0.90234 0 1.8125-0.21094 2.6602-0.67188 2.7148-1.4727 3.7305-4.8594 2.2617-7.582-0.95703-1.7617-23.836-43.234-66.148-43.297z"/>
  <path d="m505.42 149.95c3.0117 0.69531 6.0312-1.1602 6.7305-4.1719 0.70703-3.0117-1.1641-6.0273-4.1719-6.7305-44.391-10.422-75.621 39.426-76.934 41.559-1.6172 2.6328-0.79688 6.082 1.8359 7.6992 0.91797 0.56641 1.9258 0.82812 2.9297 0.82812 1.8828 0 3.7188-0.94531 4.7773-2.6719 0.28125-0.44141 28.258-45.102 64.832-36.512z"/>
  <path d="m446.35 309.28c1.0742 1.293 2.6641 2.0156 4.3047 2.0156 0.4375 0 0.875-0.050781 1.3086-0.15234 2.0703-0.5 3.6797-2.1328 4.1484-4.2109l5.1289-22.652 21.566-8.6172c1.9805-0.79687 3.3359-2.6367 3.5039-4.7656 0.16797-2.1289-0.89062-4.1602-2.7227-5.2539l-19.957-11.871-1.5273-23.18c-0.14062-2.1289-1.4766-3.9883-3.4492-4.8008s-4.2266-0.44141-5.8359 0.96484l-17.461 15.309-22.512-5.707c-2.0664-0.52734-4.2461 0.17188-5.6328 1.793-1.3828 1.625-1.7266 3.8867-0.88672 5.8477l9.168 21.34-12.383 19.652c-1.1367 1.8047-1.1484 4.0938-0.035156 5.9141 1.1211 1.8203 3.168 2.8711 5.2852 2.6562l23.129-2.1289zm-19.402-45.645-5.8516-13.621 14.363 3.6406c1.7812 0.45312 3.6836 0 5.0664-1.2227l11.145-9.7734 0.98047 14.797c0.125 1.8359 1.1406 3.5 2.7266 4.4414l12.734 7.5781-13.766 5.5c-1.7148 0.68359-2.9805 2.168-3.3828 3.9648l-3.2695 14.453-9.4805-11.387c-1.0703-1.2812-2.6484-2.0156-4.3047-2.0156-0.16797 0-0.33984 0.003906-0.50781 0.023437l-14.762 1.3555 7.9023-12.539c0.98047-1.5547 1.1328-3.5039 0.40625-5.1953z"/>
  <path d="m218.62 324.44 20.16-1.8555 12.953 15.551c1.0742 1.293 2.6641 2.0156 4.3047 2.0156 0.4375 0 0.875-0.050782 1.3086-0.15234 2.0703-0.5 3.6797-2.1328 4.1562-4.2109l4.4648-19.738 18.793-7.5156c1.9805-0.79688 3.3359-2.6367 3.5039-4.7656s-0.89062-4.1602-2.7227-5.2539l-17.395-10.348-1.332-20.199c-0.14062-2.1289-1.4766-3.9883-3.4492-4.8008s-4.2266-0.44141-5.8359 0.96484l-15.223 13.344-19.621-4.9727c-2.0703-0.51953-4.25 0.17188-5.6328 1.793-1.3828 1.625-1.7266 3.8867-0.88672 5.8477l7.9922 18.602-10.793 17.125c-1.1367 1.8047-1.1484 4.0938-0.035156 5.9141 1.1211 1.8203 3.1836 2.875 5.2891 2.6562zm16.996-27.406-4.6758-10.879 11.48 2.9102c1.7852 0.45312 3.6797 0 5.0664-1.2227l8.8984-7.8047 0.78516 11.816c0.125 1.8359 1.1406 3.5 2.7266 4.4414l10.168 6.0469-10.992 4.3945c-1.7148 0.68359-2.9805 2.168-3.3828 3.9648l-2.6094 11.547-7.582-9.0938c-1.0703-1.2812-2.6484-2.0156-4.3047-2.0156-0.16797 0-0.33984 0.003906-0.50781 0.023437l-11.789 1.082 6.3125-10.012c0.97656-1.5664 1.1328-3.5078 0.40625-5.1992z"/>
  <path d="m142.06 452.64 13.926 4.5352 4.1562 14.043c0.60547 2.0391 2.3203 3.5664 4.418 3.9258 0.32031 0.054687 0.63672 0.085937 0.95312 0.085937 1.7695 0 3.4609-0.83984 4.5312-2.3008l8.6172-11.84 14.637 0.38672c2.1094 0 4.1094-1.1016 5.1016-2.9922 0.99219-1.8867 0.82812-4.1719-0.42188-5.8984l-8.6016-11.855 4.8945-13.809c0.71094-2.0039 0.22266-4.25-1.2656-5.7734-1.4883-1.5234-3.7109-2.0898-5.7383-1.4219l-13.934 4.5195-11.613-8.9219c-1.6914-1.293-3.9688-1.5195-5.8867-0.58203-1.9102 0.94141-3.125 2.8906-3.125 5.0195l-0.011719 14.645-12.074 8.293c-1.7539 1.2109-2.6758 3.3086-2.3672 5.4219 0.29688 2.1016 1.7773 3.8594 3.8047 4.5195zm19.402-10.672c1.5195-1.0469 2.4258-2.7656 2.4297-4.6094l0.003907-6.2383 4.9492 3.8008c1.4688 1.1211 3.3867 1.4727 5.1367 0.88672l5.9375-1.9258-2.082 5.8867c-0.61719 1.7422-0.33984 3.6641 0.74609 5.1562l3.668 5.0586-6.2383-0.16797c-1.7578 0.042969-3.5898 0.81641-4.6758 2.3008l-3.6719 5.0469-1.7695-5.9883c-0.51953-1.7656-1.8828-3.1602-3.6328-3.7344l-5.9375-1.9336z"/>
  <path d="m549 445.05c-6.8945-7.8164-18.859-8.5781-26.68-1.6875-3.7852 3.3359-6.0547 7.9453-6.3672 12.988-0.32031 5.0352 1.3438 9.9023 4.6758 13.688 3.3359 3.793 7.9531 6.0469 12.992 6.3672 0.41016 0.027344 0.8125 0.042968 1.2148 0.042968 4.5977 0 8.9883-1.6562 12.473-4.7266 3.7852-3.3359 6.0547-7.9453 6.3672-12.988 0.32031-5.0312-1.3438-9.8945-4.6758-13.684zm-9.0938 18.273c-1.5469 1.3594-3.5039 2.0039-5.5781 1.9102-2.0547-0.12891-3.9297-1.0547-5.293-2.5977-1.3594-1.5391-2.0391-3.5234-1.9102-5.5781 0.12891-2.0508 1.0547-3.9297 2.5977-5.293 1.4609-1.2812 3.2773-1.9219 5.0898-1.9219 2.1328 0 4.2617 0.87891 5.7773 2.6094 2.8125 3.1875 2.5039 8.0625-0.68359 10.871z"/>
  <path d="m519.27 345.36c4.4414 0 8.8984-1.5508 12.48-4.7148 3.7852-3.3359 6.0547-7.9453 6.3672-12.988 0.32031-5.0352-1.3438-9.9023-4.6758-13.688-3.3359-3.793-7.9531-6.0469-12.992-6.3672-5.0234-0.33203-9.9023 1.3438-13.688 4.6797-3.7852 3.3359-6.0547 7.9453-6.3672 12.988-0.32031 5.0352 1.3438 9.9023 4.6758 13.688 3.7344 4.2344 8.9531 6.4023 14.199 6.4023zm-5.1016-24.672c1.418-1.25 3.207-1.9219 5.0781-1.9219 0.16797 0 0.33203 0.003907 0.5 0.011719 2.0547 0.12891 3.9297 1.0547 5.293 2.5977 1.3594 1.5391 2.0391 3.5234 1.9102 5.5781-0.12891 2.0508-1.0547 3.9297-2.5977 5.293-3.1797 2.8008-8.0586 2.5039-10.871-0.6875s-2.4961-8.0625 0.6875-10.871z"/>
  <path d="m371.94 451.15c0.32031-5.0352-1.3438-9.9023-4.6758-13.688-6.8828-7.8164-18.848-8.5859-26.68-1.6914-3.7852 3.3359-6.0547 7.9453-6.3672 12.988-0.32031 5.0352 1.3438 9.9023 4.6758 13.688 3.3359 3.793 7.9531 6.0469 12.988 6.3711 0.41016 0.027344 0.81641 0.039063 1.2266 0.039063 4.5977 0 8.9805-1.6523 12.465-4.7227 3.7852-3.3281 6.0469-7.9375 6.3672-12.984zm-13.777 4.5938c-1.5391 1.3594-3.5156 2.0625-5.5781 1.9023-2.0547-0.12891-3.9375-1.0547-5.293-2.5977-1.3594-1.5391-2.0391-3.5234-1.9102-5.5781 0.12891-2.0508 1.0547-3.9297 2.5977-5.293 1.418-1.25 3.2031-1.9219 5.0742-1.9219 0.16797 0 0.33594 0.003907 0.5 0.015626 2.0547 0.12891 3.9375 1.0547 5.293 2.5977 2.8164 3.1914 2.5078 8.0625-0.68359 10.875z"/>
  <path d="m438.69 498.64c1.0625 0.93359 2.3789 1.3945 3.6953 1.3945 1.5508 0 3.0977-0.63672 4.207-1.8984 2.043-2.3242 1.8203-5.8633-0.50391-7.9062-56.785-50-62.961-110.72-63.02-111.33-0.28516-3.0742-3.0352-5.3633-6.082-5.0664-3.0781 0.28125-5.3477 2.9922-5.0742 6.0703 0.23828 2.6484 6.4805 65.648 66.777 118.74z"/>
  <path d="m326.81 374.86c-3.0859 0.15234-5.4648 2.7812-5.3125 5.8672 0.035156 0.71094 2.7227 71.191-59.695 111.32-2.5977 1.6758-3.3555 5.1367-1.6797 7.7383 1.0703 1.6641 2.8711 2.5703 4.7148 2.5703 1.0352 0 2.0898-0.29297 3.0234-0.89062 68-43.727 64.98-118.16 64.82-121.31-0.15625-3.0781-2.8125-5.4531-5.8711-5.3008z"/>
  <path d="m503.08 416.07c0.003907-3.0898-2.4961-5.6016-5.5938-5.6055-35.578-0.050782-56.105-37.051-56.309-37.43-1.4727-2.7031-4.8672-3.7227-7.5898-2.25-2.7148 1.4727-3.7305 4.8594-2.2617 7.582 0.95312 1.7656 23.828 43.242 66.148 43.301h0.003907c3.0938-0.003907 5.5938-2.5078 5.6016-5.5977z"/>
  <path d="m200.55 414.84c-0.70703 3.0117 1.1641 6.0273 4.1719 6.7305 4.1953 0.98438 8.2656 1.4297 12.207 1.4297 37.812 0 63.543-41.055 64.73-42.984 1.6172-2.6328 0.79688-6.082-1.8359-7.6992-2.6484-1.625-6.082-0.80469-7.707 1.8359-0.27344 0.44922-28.211 45.137-64.832 36.52-3.0312-0.6875-6.0273 1.1523-6.7344 4.168z"/>

 </g>
</svg>
