<?xml version="1.0" encoding="UTF-8"?>
<svg width="1200pt" height="1200pt" version="1.1" viewBox="0 0 1200 1200" xmlns="http://www.w3.org/2000/svg">
 <path d="m703.32 287.28c-21.59-36.547-60.875-58.969-103.32-58.969s-81.73 22.422-103.32 58.969l-245.52 419.4c-15.133 25.891-23.125 55.332-23.16 85.32v10.559c0.003906 42.738 16.176 83.891 45.273 115.19 29.094 31.301 68.957 50.43 111.58 53.551 42.625 3.1172 84.848-10.008 118.19-36.742l96.961-77.277 96.961 77.641c33.352 26.738 75.59 39.863 118.23 36.734 42.633-3.1289 82.504-22.281 111.59-53.605s45.246-72.5 45.219-115.25v-10.801c0.007812-30.07-7.9844-59.602-23.16-85.559zm-55.32 416.4c-0.007812 14.566-6.6289 28.336-18 37.441l-30 24-30-24c-11.371-9.1055-17.992-22.875-18-37.441v-7.6797c0-17.148 9.1484-32.996 24-41.57 14.852-8.5742 33.148-8.5742 48 0 14.852 8.5742 24 24.422 24 41.57zm252 99.121c0.039062 24.574-9.2305 48.25-25.945 66.266-16.715 18.016-39.633 29.031-64.141 30.828-24.508 1.8008-48.789-5.7539-67.953-21.133l-84-67.441 17.281-13.922h-0.003907c28.367-22.828 44.832-57.305 44.762-93.719v-7.6797c0-42.871-22.871-82.488-60-103.92-37.129-21.438-82.871-21.438-120 0-37.129 21.434-60 61.051-60 103.92v7.6797c-0.015625 36.453 16.543 70.938 45 93.719l17.398 13.801-84 67.441c-19.148 15.52-43.477 23.184-68.062 21.441-24.586-1.7383-47.59-12.754-64.363-30.816-16.773-18.059-26.055-41.816-25.973-66.465v-10.801c0.011719-17.25 4.6094-34.191 13.32-49.078l245.52-418.92c8.6758-14.457 24.301-23.305 41.16-23.305s32.484 8.8477 41.16 23.305l245.52 419.04c8.6914 14.855 13.289 31.75 13.32 48.961z"/>
</svg>
