<?xml version="1.0" encoding="UTF-8"?>
<svg width="700pt" height="700pt" version="1.1" viewBox="0 0 700 700" xmlns="http://www.w3.org/2000/svg">
 <path d="m575.05 130.2c-6.3125 0-12.367 2.5078-16.828 6.9727-4.4648 4.4609-6.9727 10.516-6.9727 16.828v28.352c-11.426-11.98-27.195-18.855-43.75-19.078h-227.5c-4.2422-12.512-12.332-23.359-23.113-31-10.781-7.6367-23.699-11.668-36.91-11.523h-71.227v-36.75c-0.69141-8.0508-5.3867-15.211-12.496-19.051-7.1094-3.8359-15.672-3.8359-22.781 0-7.1094 3.8398-11.809 11-12.496 19.051v407.05c0 2.3203 0.92188 4.5469 2.5625 6.1875 1.6406 1.6406 3.8672 2.5625 6.1875 2.5625h30.273c2.3203 0 4.5469-0.92188 6.1875-2.5625s2.5625-3.8672 2.5625-6.1875v-36.051h402.5v35c0 2.3203 0.92188 4.5469 2.5625 6.1875s3.8672 2.5625 6.1875 2.5625h30.273c2.3203 0 4.5469-0.92188 6.1875-2.5625 1.6406-1.6406 2.5625-3.8672 2.5625-6.1875v-336c0-6.3438-2.5312-12.422-7.0312-16.891s-10.602-6.957-16.941-6.9102zm-23.801 117.07h-402.5v-13.125h402.5zm-122.5 106.93v-16.625h55.824v16.625zm-150.32 0c-4.1328-12.34-12.023-23.078-22.57-30.707-10.547-7.625-23.215-11.758-36.23-11.816h-70.875v-46.902h262.5v89.426zm-129.68-25.023h71.227c8.3203 0.035157 16.469 2.3984 23.52 6.8203 7.0508 4.4219 12.723 10.727 16.379 18.203h-111.12zm336.18-9.1016h-55.824v-22.574h55.824zm0-40.074h-55.824v-15.227h55.824zm-336.18 91.699h358.75c10.293 0.011719 20.266 3.5898 28.211 10.133 7.9492 6.543 13.379 15.641 15.363 25.742h-402.32zm358.05-17.5h-4.375v-89.426h48.824v108.5c-11.426-11.977-27.195-18.852-43.75-19.074zm43.574-137.55h-401.62v-35.875h358.75c10.172 0.17187 19.98 3.8242 27.785 10.355 7.8008 6.5273 13.129 15.539 15.09 25.52zm-330.4-78.398c8.3203 0.035156 16.469 2.3984 23.52 6.8203 7.0508 4.4219 12.723 10.727 16.379 18.203h-111.12v-25.023zm-88.727 344.05h-12.773v-398.3c0.09375-3.5078 2.9648-6.3008 6.4727-6.3008 3.4805 0 6.3008 2.8203 6.3008 6.3008zm17.5-44.801v-12.949h402.5v12.949zm432.77 44.273h-12.773v-327.77c0-3.4805 2.8203-6.3008 6.3008-6.3008 3.5078 0 6.3789 2.793 6.4727 6.3008z"/>
</svg>
