<?xml version="1.0" encoding="UTF-8"?>
<svg width="700pt" height="700pt" version="1.1" viewBox="0 0 700 700" xmlns="http://www.w3.org/2000/svg" xmlns:xlink="http://www.w3.org/1999/xlink">
 <defs>
  <symbol id="t" overflow="visible">
   <path d="m0.9375-0.0625c-0.042969 0.03125-0.089844 0.054688-0.14062 0.0625-0.054687 0.0078125-0.10938 0.015625-0.17188 0.015625-0.16797 0-0.30469-0.046875-0.40625-0.14062-0.10547-0.09375-0.15625-0.22266-0.15625-0.39062 0-0.15625 0.050781-0.28125 0.15625-0.375 0.10156-0.10156 0.23828-0.15625 0.40625-0.15625 0.0625 0 0.11719 0.011719 0.17188 0.03125 0.050781 0.011719 0.097656 0.027344 0.14062 0.046875v0.21875c-0.042969-0.039062-0.089844-0.066406-0.14062-0.078125-0.054687-0.019531-0.10547-0.03125-0.15625-0.03125-0.09375 0-0.16797 0.03125-0.21875 0.09375-0.054687 0.0625-0.078125 0.14844-0.078125 0.25 0 0.10547 0.023438 0.1875 0.078125 0.25 0.050781 0.0625 0.125 0.09375 0.21875 0.09375 0.050781 0 0.10156-0.003906 0.15625-0.015625 0.050781-0.019531 0.097656-0.046875 0.14062-0.078125z"/>
  </symbol>
  <symbol id="c" overflow="visible">
   <path d="m0.6875-0.5625c-0.023438-0.007812-0.042969-0.015625-0.0625-0.015625-0.023438-0.007813-0.042969-0.015625-0.0625-0.015625-0.0625 0-0.11719 0.023438-0.15625 0.0625-0.03125 0.042969-0.046875 0.10156-0.046875 0.17188v0.35938h-0.23438v-0.76562h0.23438v0.125c0.03125-0.050781 0.066406-0.085937 0.10938-0.10938 0.039062-0.019531 0.09375-0.03125 0.15625-0.03125h0.015625 0.046875z"/>
  </symbol>
  <symbol id="a" overflow="visible">
   <path d="m0.89062-0.39062v0.078125h-0.57812c0 0.054688 0.015625 0.09375 0.046875 0.125 0.039063 0.03125 0.09375 0.046875 0.15625 0.046875 0.050781 0 0.10156-0.003906 0.15625-0.015625 0.0625-0.019531 0.11719-0.046875 0.17188-0.078125v0.1875c-0.054688 0.023438-0.10938 0.039062-0.17188 0.046875-0.054687 0.0078125-0.10938 0.015625-0.17188 0.015625-0.13672 0-0.24609-0.03125-0.32812-0.09375-0.074219-0.070313-0.10938-0.17578-0.10938-0.3125 0-0.125 0.035156-0.21875 0.10938-0.28125 0.070313-0.070313 0.17578-0.10938 0.3125-0.10938 0.125 0 0.22266 0.039062 0.29688 0.10938 0.070312 0.074219 0.10938 0.16797 0.10938 0.28125zm-0.25-0.078125c0-0.039062-0.015625-0.078125-0.046875-0.10938s-0.070312-0.046875-0.10938-0.046875c-0.054687 0-0.09375 0.015625-0.125 0.046875-0.023437 0.023437-0.039063 0.058594-0.046875 0.10938z"/>
  </symbol>
  <symbol id="e" overflow="visible">
   <path d="m0.46875-0.34375c-0.054688 0-0.09375 0.011719-0.125 0.03125-0.023438 0.011719-0.03125 0.03125-0.03125 0.0625s0.007812 0.058594 0.03125 0.078125c0.019531 0.023437 0.046875 0.03125 0.078125 0.03125 0.050781 0 0.09375-0.015625 0.125-0.046875 0.03125-0.039062 0.046875-0.082031 0.046875-0.125v-0.03125zm0.375-0.09375v0.4375h-0.25v-0.10938c-0.03125 0.042969-0.070312 0.074219-0.10938 0.09375-0.042969 0.019531-0.09375 0.03125-0.15625 0.03125-0.085937 0-0.15234-0.019531-0.20312-0.0625-0.042969-0.050781-0.0625-0.11328-0.0625-0.1875 0-0.082031 0.03125-0.14453 0.09375-0.1875 0.0625-0.050781 0.16016-0.078125 0.29688-0.078125h0.14062v-0.015625c0-0.03125-0.015625-0.054687-0.046875-0.078125-0.03125-0.019531-0.078125-0.03125-0.14062-0.03125-0.054688 0-0.10547 0.007812-0.15625 0.015625-0.042969 0.011719-0.085938 0.027344-0.125 0.046875v-0.1875c0.050781-0.007812 0.10156-0.015625 0.15625-0.015625 0.050781-0.007813 0.10938-0.015625 0.17188-0.015625 0.13281 0 0.23438 0.027344 0.29688 0.078125 0.0625 0.054687 0.09375 0.14062 0.09375 0.26562z"/>
  </symbol>
  <symbol id="b" overflow="visible">
   <path d="m0.39062-0.98438v0.21875h0.25v0.17188h-0.25v0.32812c0 0.03125 0.003906 0.058594 0.015625 0.078125 0.007812 0.011719 0.039062 0.015625 0.09375 0.015625h0.125v0.17188h-0.21875c-0.09375 0-0.16406-0.019531-0.20312-0.0625-0.042969-0.039062-0.0625-0.10938-0.0625-0.20312v-0.32812h-0.125v-0.17188h0.125v-0.21875z"/>
  </symbol>
  <symbol id="k" overflow="visible">
   <path d="m0.64062-0.65625v-0.40625h0.25v1.0625h-0.25v-0.10938c-0.03125 0.042969-0.070313 0.074219-0.10938 0.09375-0.042969 0.019531-0.089844 0.03125-0.14062 0.03125-0.09375 0-0.17188-0.035156-0.23438-0.10938-0.0625-0.070312-0.09375-0.17188-0.09375-0.29688 0-0.11328 0.03125-0.20703 0.09375-0.28125 0.0625-0.070313 0.14062-0.10938 0.23438-0.10938 0.050781 0 0.097656 0.011719 0.14062 0.03125 0.039062 0.023438 0.078125 0.054688 0.10938 0.09375zm-0.15625 0.5c0.050781 0 0.085937-0.019531 0.10938-0.0625 0.03125-0.039062 0.046875-0.097656 0.046875-0.17188 0-0.070313-0.015625-0.125-0.046875-0.15625-0.023438-0.039063-0.058594-0.0625-0.10938-0.0625-0.054687 0-0.09375 0.023437-0.125 0.0625-0.03125 0.03125-0.046875 0.085937-0.046875 0.15625 0 0.074219 0.015625 0.13281 0.046875 0.17188 0.03125 0.042969 0.070313 0.0625 0.125 0.0625z"/>
  </symbol>
  <symbol id="j" overflow="visible">
   <path d="m0.53125-0.15625c0.050781 0 0.085938-0.019531 0.10938-0.0625 0.03125-0.039062 0.046875-0.097656 0.046875-0.17188 0-0.070313-0.015625-0.125-0.046875-0.15625-0.023437-0.039063-0.058594-0.0625-0.10938-0.0625-0.054688 0-0.09375 0.023437-0.125 0.0625-0.03125 0.03125-0.046875 0.085937-0.046875 0.15625 0 0.074219 0.015625 0.13281 0.046875 0.17188 0.03125 0.042969 0.070312 0.0625 0.125 0.0625zm-0.17188-0.5c0.039063-0.039062 0.078125-0.070312 0.10938-0.09375 0.039062-0.019531 0.09375-0.03125 0.15625-0.03125 0.09375 0 0.16406 0.039062 0.21875 0.10938 0.0625 0.074219 0.09375 0.16797 0.09375 0.28125 0 0.125-0.03125 0.22656-0.09375 0.29688-0.054688 0.074219-0.125 0.10938-0.21875 0.10938-0.0625 0-0.11719-0.011719-0.15625-0.03125-0.03125-0.019531-0.070312-0.050781-0.10938-0.09375v0.10938h-0.23438v-1.0625h0.23438z"/>
  </symbol>
  <symbol id="i" overflow="visible">
   <path d="m0.015625-0.76562h0.25l0.20312 0.51562 0.17188-0.51562h0.25l-0.32812 0.84375c-0.03125 0.082031-0.070312 0.14062-0.10938 0.17188-0.042969 0.03125-0.10156 0.046875-0.17188 0.046875h-0.14062v-0.15625h0.078125c0.039062 0 0.070312-0.007813 0.09375-0.015625 0.019531-0.011719 0.035156-0.039062 0.046875-0.078125v-0.015625z"/>
  </symbol>
  <symbol id="h" overflow="visible">
   <path d="m0.5-0.57812c0.0625 0 0.10156-0.003906 0.125-0.015625 0.019531-0.019531 0.03125-0.054688 0.03125-0.10938 0-0.039063-0.011719-0.070313-0.03125-0.09375-0.023438-0.019531-0.0625-0.03125-0.125-0.03125h-0.10938v0.25zm-0.10938 0.1875v0.39062h-0.26562v-1.0312h0.40625c0.13281 0 0.23438 0.027344 0.29688 0.078125 0.0625 0.042969 0.09375 0.10938 0.09375 0.20312 0 0.074219-0.015625 0.13281-0.046875 0.17188-0.03125 0.042969-0.078125 0.074219-0.14062 0.09375 0.03125 0.011719 0.0625 0.03125 0.09375 0.0625s0.054687 0.074219 0.078125 0.125l0.15625 0.29688h-0.29688l-0.125-0.25c-0.023437-0.050781-0.046875-0.085938-0.078125-0.10938-0.023438-0.019531-0.054688-0.03125-0.09375-0.03125z"/>
  </symbol>
  <symbol id="g" overflow="visible">
   <path d="m0.125-0.76562h0.23438v0.76562h-0.23438zm0-0.29688h0.23438v0.1875h-0.23438z"/>
  </symbol>
  <symbol id="f" overflow="visible">
   <path d="m0.625-1.0625v0.15625h-0.14062c-0.03125 0-0.058594 0.007812-0.078125 0.015625-0.011719 0.011719-0.015625 0.03125-0.015625 0.0625v0.0625h0.21875v0.17188h-0.21875v0.59375h-0.23438v-0.59375h-0.125v-0.17188h0.125v-0.0625c0-0.082031 0.019531-0.14062 0.0625-0.17188 0.050781-0.039062 0.125-0.0625 0.21875-0.0625z"/>
  </symbol>
  <symbol id="d" overflow="visible">
   <path d="m0.48438-0.60938c-0.054687 0-0.09375 0.023437-0.125 0.0625-0.03125 0.03125-0.046875 0.085937-0.046875 0.15625 0 0.085937 0.015625 0.14844 0.046875 0.1875 0.03125 0.03125 0.070313 0.046875 0.125 0.046875 0.050781 0 0.09375-0.015625 0.125-0.046875 0.03125-0.039063 0.046875-0.10156 0.046875-0.1875 0-0.070313-0.015625-0.125-0.046875-0.15625-0.03125-0.039063-0.074219-0.0625-0.125-0.0625zm0-0.17188c0.13281 0 0.23828 0.039062 0.3125 0.10938 0.070313 0.0625 0.10938 0.15625 0.10938 0.28125 0 0.13672-0.039062 0.24219-0.10938 0.3125-0.074219 0.0625-0.17969 0.09375-0.3125 0.09375-0.13672 0-0.24219-0.03125-0.3125-0.09375-0.074219-0.070313-0.10938-0.17578-0.10938-0.3125 0-0.125 0.035156-0.21875 0.10938-0.28125 0.070313-0.070313 0.17578-0.10938 0.3125-0.10938z"/>
  </symbol>
  <symbol id="s" overflow="visible">
   <path d="m0.82812-0.64062c0.03125-0.050781 0.066406-0.085937 0.10938-0.10938 0.039062-0.019531 0.085938-0.03125 0.14062-0.03125 0.09375 0 0.16016 0.027344 0.20312 0.078125 0.050781 0.054687 0.078125 0.13281 0.078125 0.23438v0.46875h-0.25v-0.40625-0.046875c0-0.050781-0.011719-0.085937-0.03125-0.10938-0.011719-0.03125-0.039063-0.046875-0.078125-0.046875-0.042969 0-0.078125 0.023437-0.10938 0.0625-0.023437 0.042969-0.03125 0.10156-0.03125 0.17188v0.375h-0.25v-0.40625c0-0.082031-0.011719-0.13281-0.03125-0.15625-0.011719-0.03125-0.03125-0.046875-0.0625-0.046875-0.054687 0-0.09375 0.023437-0.125 0.0625-0.023437 0.042969-0.03125 0.10156-0.03125 0.17188v0.375h-0.25v-0.76562h0.25v0.10938c0.03125-0.039062 0.066406-0.070312 0.10938-0.09375 0.039062-0.019531 0.082031-0.03125 0.125-0.03125 0.050781 0 0.097656 0.015625 0.14062 0.046875 0.039063 0.023437 0.070313 0.054687 0.09375 0.09375z"/>
  </symbol>
  <symbol id="r" overflow="visible">
   <path d="m0.89062-0.46875v0.46875h-0.25v-0.35938-0.125c0-0.03125-0.007813-0.050781-0.015625-0.0625-0.011719-0.019531-0.027344-0.035156-0.046875-0.046875-0.011719-0.007812-0.027344-0.015625-0.046875-0.015625-0.054688 0-0.09375 0.023437-0.125 0.0625-0.03125 0.042969-0.046875 0.10156-0.046875 0.17188v0.375h-0.23438v-1.0625h0.23438v0.40625c0.039063-0.039062 0.082031-0.070312 0.125-0.09375 0.039063-0.019531 0.085937-0.03125 0.14062-0.03125 0.082031 0 0.14453 0.027344 0.1875 0.078125 0.050781 0.054687 0.078125 0.13281 0.078125 0.23438z"/>
  </symbol>
  <symbol id="q" overflow="visible">
   <path d="m0.125-1.0312h0.29688l0.375 0.70312v-0.70312h0.25v1.0312h-0.29688l-0.375-0.70312v0.70312h-0.25z"/>
  </symbol>
  <symbol id="p" overflow="visible">
   <path d="m0.10938-0.29688v-0.46875h0.25v0.078125 0.15625 0.125 0.14062c0 0.023437 0.003906 0.039063 0.015625 0.046875 0.007812 0.023438 0.019531 0.039062 0.03125 0.046875h0.0625c0.050781 0 0.09375-0.015625 0.125-0.046875 0.03125-0.039062 0.046875-0.097656 0.046875-0.17188v-0.375h0.25v0.76562h-0.25v-0.10938c-0.042969 0.042969-0.085937 0.074219-0.125 0.09375-0.042969 0.019531-0.089844 0.03125-0.14062 0.03125-0.085938 0-0.15234-0.023438-0.20312-0.078125-0.042969-0.050781-0.0625-0.12891-0.0625-0.23438z"/>
  </symbol>
  <symbol id="o" overflow="visible">
   <path d="m0.89062-0.46875v0.46875h-0.25v-0.35938-0.125c0-0.03125-0.007813-0.050781-0.015625-0.0625-0.011719-0.019531-0.027344-0.035156-0.046875-0.046875-0.011719-0.007812-0.027344-0.015625-0.046875-0.015625-0.054688 0-0.09375 0.023437-0.125 0.0625-0.03125 0.042969-0.046875 0.10156-0.046875 0.17188v0.375h-0.23438v-0.76562h0.23438v0.10938c0.039063-0.039062 0.082031-0.070312 0.125-0.09375 0.039063-0.019531 0.085937-0.03125 0.14062-0.03125 0.082031 0 0.14453 0.027344 0.1875 0.078125 0.050781 0.054687 0.078125 0.13281 0.078125 0.23438z"/>
  </symbol>
  <symbol id="n" overflow="visible">
   <path d="m0.125-1.0312h0.4375c0.13281 0 0.23438 0.03125 0.29688 0.09375 0.070313 0.0625 0.10938 0.14844 0.10938 0.25 0 0.10547-0.039062 0.1875-0.10938 0.25-0.0625 0.054688-0.16406 0.078125-0.29688 0.078125h-0.17188v0.35938h-0.26562zm0.26562 0.20312v0.28125h0.15625c0.039063 0 0.078125-0.007813 0.10938-0.03125 0.03125-0.03125 0.046875-0.066406 0.046875-0.10938 0-0.050781-0.015625-0.085938-0.046875-0.10938-0.03125-0.019531-0.070312-0.03125-0.10938-0.03125z"/>
  </symbol>
  <symbol id="m" overflow="visible">
   <path d="m0.125-0.76562h0.23438v0.75c0 0.10156-0.027344 0.17969-0.078125 0.23438-0.042969 0.050781-0.10938 0.078125-0.20312 0.078125h-0.125v-0.15625h0.046875c0.039062 0 0.070312-0.011719 0.09375-0.03125 0.019531-0.023438 0.03125-0.0625 0.03125-0.125zm0-0.29688h0.23438v0.1875h-0.23438z"/>
  </symbol>
  <symbol id="l" overflow="visible">
   <path d="m0.73438-0.75v0.20312c-0.03125-0.019531-0.0625-0.035156-0.09375-0.046875-0.03125-0.007812-0.070313-0.015625-0.10938-0.015625-0.0625 0-0.11719 0.023437-0.15625 0.0625-0.042969 0.042969-0.0625 0.09375-0.0625 0.15625 0 0.074219 0.019531 0.13281 0.0625 0.17188 0.039062 0.042969 0.09375 0.0625 0.15625 0.0625 0.039062 0 0.078125-0.003906 0.10938-0.015625 0.039063-0.007813 0.070313-0.023437 0.09375-0.046875v0.20312c-0.03125 0.011719-0.070313 0.015625-0.10938 0.015625-0.042969 0.0078125-0.085938 0.015625-0.125 0.015625-0.13672 0-0.24609-0.03125-0.32812-0.09375-0.074219-0.070313-0.10938-0.17578-0.10938-0.3125 0-0.125 0.035156-0.21875 0.10938-0.28125 0.082031-0.070313 0.19141-0.10938 0.32812-0.10938 0.039062 0 0.082031 0.007812 0.125 0.015625 0.039062 0 0.078125 0.007813 0.10938 0.015625z"/>
  </symbol>
 </defs>
 <g>
  <path d="m273.93 224.08c0.023438-20.289 7.9414-39.355 22.297-53.695 4.3086-4.3008 9.043-8.0195 14.102-11.121-10.824-20.961-32.688-35.047-57.543-35.074h-0.074219c-17.285 0-33.539 6.7227-45.773 18.93-12.254 12.227-19.016 28.496-19.035 45.809-0.019532 17.312 6.7031 33.594 18.93 45.848 12.227 12.254 28.496 19.016 45.805 19.035h0.074219c8.8203 0 17.367-1.7539 25.254-5.0898-2.6602-7.8281-4.0469-16.129-4.0352-24.641z"/>
  <path d="m493.07 143.12c-12.238-12.211-28.488-18.93-45.773-18.93h-0.074219c-24.875 0.027344-46.758 14.141-57.574 35.133 5.0625 3.1133 9.793 6.8398 14.098 11.152 14.34 14.371 22.227 33.469 22.203 53.773-0.007812 8.4375-1.3867 16.66-4.0234 24.422 7.918 3.3672 16.504 5.1367 25.367 5.1367h0.074219c17.312-0.019532 33.578-6.7773 45.805-19.035 12.227-12.254 18.949-28.539 18.93-45.848-0.015625-17.309-6.7734-33.574-19.031-45.805z"/>
  <path d="m395.82 178.39c-12.227-12.254-28.496-19.016-45.805-19.035h-0.074219c-17.297 0-33.559 6.7305-45.797 18.957-12.238 12.227-18.992 28.484-19.012 45.781-0.019531 17.312 6.7031 33.594 18.93 45.848 12.227 12.254 28.496 19.016 45.809 19.035h0.074218c17.297 0 33.559-6.7305 45.801-18.957 12.238-12.227 18.992-28.484 19.012-45.781 0.011719-17.309-6.7109-33.594-18.938-45.848z"/>
  <path d="m400.63 280.8c-13.957 12.523-31.801 19.379-50.695 19.379h-0.074219c-18.938-0.019531-36.797-6.9141-50.746-19.488-31.414 10.793-53.477 35.664-53.508 64.555l-0.070313 63.387c-0.003906 2.7227 1.5742 5.2031 4.043 6.3516 29.656 13.82 62.227 20.832 96.801 20.832h0.015625c30.465 0 56.883-5.5664 73.68-10.234 18.293-5.0859 29.328-10.16 29.789-10.375 2.4727-1.1445 4.0547-3.6211 4.0547-6.3438l0.070312-63.387c0.035157-28.906-21.965-53.82-53.359-64.676z"/>
  <path d="m282.33 259.03c-9.3711 3.9648-19.336 5.9766-29.617 5.9766h-0.074219c-18.941-0.019531-36.809-6.918-50.762-19.5-9.832 3.375-18.906 8.1875-26.793 14.309-8.2695 6.4141-14.789 13.918-19.379 22.305-4.8438 8.8477-7.3086 18.254-7.3203 27.961l-0.070312 63.387c-0.003906 2.7227 1.5742 5.2031 4.043 6.3516 25.406 11.84 52.914 18.672 81.992 20.395l0.0625-54.98c0.019532-16.648 6.1172-32.652 17.633-46.281 9.8633-11.672 23.168-20.977 38.699-27.105-3.2422-4.0117-6.043-8.3086-8.3789-12.824z"/>
  <path d="m551.62 310.08c-0.011719-9.707-2.4727-19.113-7.3203-27.961-4.5898-8.3828-11.113-15.887-19.379-22.305-7.8867-6.1211-16.961-10.934-26.793-14.309-13.953 12.582-31.82 19.48-50.75 19.5h-0.085938c-10.332 0-20.34-2.0273-29.75-6.0312-2.3672 4.582-5.2109 8.9336-8.5078 12.992 15.516 6.1602 28.801 15.492 38.637 27.188 11.484 13.652 17.543 29.672 17.523 46.332l-0.0625 54.75c29.273-1.6719 56.961-8.5117 82.516-20.422 2.4688-1.1523 4.0469-3.6289 4.043-6.3516z"/>

 </g>
</svg>
