<?xml version="1.0" encoding="utf-8"?>
<!-- Generator: Adobe Illustrator 25.0.1, SVG Export Plug-In . SVG Version: 6.00 Build 0)  -->
<svg version="1.1" id="Calque_1" xmlns="http://www.w3.org/2000/svg" xmlns:xlink="http://www.w3.org/1999/xlink" x="0px" y="0px"
	 viewBox="0 0 700 700" style="enable-background:new 0 0 700 700;" xml:space="preserve">
<style type="text/css">
	.st0{fill-rule:evenodd;clip-rule:evenodd;fill:#4F3F33;}
</style>
<g>
	<path class="st0" d="M455.7,72.7c27.6,0,50.6,22.3,50.6,49.9v24.9h39.6c27.6,0,50.6,22.4,50.6,50.2v150.1c0,27.8-23,50.2-50.6,50.2
		h-2.6v77.9v0c0.1,4.7-2.9,9-7.3,10.6c-4.4,1.6-9.4,0.3-12.5-3.3l-73.8-85.2H244.3c-27.6,0-50.6-22.5-50.6-50.2V323h-39.6
		c-27.6,0-50.6-22.4-50.6-49.9V122.6c0-27.5,23-49.9,50.6-49.9L455.7,72.7L455.7,72.7z M455.7,95.1H154.2
		c-15.5,0-28.2,12.4-28.2,27.5v150.5c0,15.1,12.7,27.5,28.2,27.5h39.6V197.7c0-27.7,23-50.2,50.6-50.2h239.6v-24.9
		C483.9,107.6,471.2,95.1,455.7,95.1L455.7,95.1z M491.8,245.1c-17.1,0-31.1,13.9-31.1,30.8s14.1,30.8,31.1,30.8
		s31.5-13.7,31.5-30.8S508.8,245.1,491.8,245.1L491.8,245.1z M398,245.1c-17.2,0-31.5,13.9-31.5,30.8s14.3,30.8,31.5,30.8
		c17.1,0,31.1-13.9,31.1-30.8S415,245.1,398,245.1z M304.1,245.1c-17,0-31.3,13.7-31.3,30.8s14.3,30.8,31.3,30.8
		s31.3-13.7,31.3-30.8C335.5,258.8,321.2,245.1,304.1,245.1z"/>
</g>
</svg>
