<?xml version="1.0" encoding="utf-8"?>
<!-- Generator: Adobe Illustrator 25.0.1, SVG Export Plug-In . SVG Version: 6.00 Build 0)  -->
<svg version="1.1" id="Calque_1" xmlns="http://www.w3.org/2000/svg" xmlns:xlink="http://www.w3.org/1999/xlink" x="0px" y="0px"
	 viewBox="0 0 700 700" style="enable-background:new 0 0 700 700;" xml:space="preserve">
<style type="text/css">
	.st0{fill:#4F3F33;}
</style>
<g>
	<path class="st0" d="M261,329.3c0,24.7-20.1,44.8-44.8,44.8s-44.8-20.1-44.8-44.8s20.1-44.8,44.8-44.8S261,304.5,261,329.3"/>
	<path class="st0" d="M199.4,386.4c-24.1,0-44.2,17.9-47,42l-4.5,38.6c-0.6,5,2.8,9.5,7.3,10.6c19,3.9,39.8,6.2,60.5,6.2
		c7.3,0,14.6,0,21.3-0.6V481l5.6-48.2c1.7-14.6,6.7-28,15.1-39.2c-6.7-4.5-15.7-7.3-25.2-7.3L199.4,386.4z"/>
	<path class="st0" d="M528.6,329.3c0,24.7-20.1,44.8-44.8,44.8S439,354,439,329.3s20.1-44.8,44.8-44.8S528.6,304.5,528.6,329.3"/>
	<path class="st0" d="M500.6,386.4h-33c-9.5,0-17.9,2.8-25.8,7.3c7.8,11.2,12.9,24.6,14.6,39.2L462,481v2.2c6.7,0.6,14,0.6,21.3,0.6
		c21.3,0,42-2.2,61-6.2c5-1.1,8.4-5.6,7.8-10.6l-5-38.6C544.9,404.3,524.7,386.4,500.6,386.4L500.6,386.4z"/>
	<path class="st0" d="M370.7,384.2h-41.4c-29.7,0-54.9,22.4-58.2,52.1l-5.6,48.2c-0.6,6.2,3.4,12.3,9.5,13.4
		c23.5,5,49.3,7.8,75.6,7.8c26.3,0,51.5-2.8,75.6-7.8c6.2-1.1,10.1-7.3,9.5-13.4l-5.6-48.2C425.6,406.6,400.4,384.2,370.7,384.2
		L370.7,384.2z"/>
	<path class="st0" d="M405.4,313.6c0,30.6-24.8,55.4-55.4,55.4s-55.4-24.8-55.4-55.4c0-30.6,24.8-55.4,55.4-55.4
		S405.4,283,405.4,313.6"/>
	<path class="st0" d="M604.8,243.6l-70.6-54.3l0-98.6c0-5.6-4.5-10.1-10.1-10.1h-38.6c-5.6,0-10.1,4.5-10.1,10.1v53.2L367.9,61
		c-10.6-8.4-25.2-8.4-35.8,0L95.2,243.6c-12.9,10.1-15.1,28.6-5,40.9c10.1,12.9,28.6,15.1,40.9,5L350,121l219,168.6
		c5.6,3.9,11.8,6.2,17.9,6.2c9,0,17.4-3.9,23.5-11.2C619.9,271.6,617.7,253.1,604.8,243.6L604.8,243.6z"/>
</g>
</svg>
