<?xml version="1.0" encoding="utf-8"?>
<!-- Generator: Adobe Illustrator 25.0.1, SVG Export Plug-In . SVG Version: 6.00 Build 0)  -->
<svg version="1.1" id="Calque_1" xmlns="http://www.w3.org/2000/svg" xmlns:xlink="http://www.w3.org/1999/xlink" x="0px" y="0px"
	 viewBox="0 0 700 700" style="enable-background:new 0 0 700 700;" xml:space="preserve">
<style type="text/css">
	.st0{fill:#4F3F33;}
</style>
<g>
	<path class="st0" d="M227.4,116.5h5c-2.8,12.9-4.5,26.3-4.5,39.2v67.8c0,7.8,6.2,14,14,14h23.5c7.8,0,14-6.2,14-14v-21.8h141.1
		v21.8c0,7.8,6.2,14,14,14h23.5c7.8,0,14-6.2,14-14v-67.2c0-13.4-1.7-26.3-4.5-39.2h5c7.8,0,14-6.2,14-14v-7.8c0-7.8-6.2-14-14-14
		h-17.9L443,44.8C436.8,26.3,420,14,400.4,14H299c-19.6,0-36.4,12.3-42.6,30.8l-11.8,35.8h-17.9c-7.8,0-14,6.2-14,14v7.8
		C213.4,110.3,219.5,116.5,227.4,116.5L227.4,116.5z M437.4,141.7v13.4c0,4.5-3.9,8.4-8.4,8.4h-28.6c-5.6,0-9.5-5-8.4-10.6l1.7-9
		c0.6-3.4,3.4-6.2,7.3-6.7l26.3-4.5C432.9,132.2,437.4,136.6,437.4,141.7L437.4,141.7z M283.4,53.2c2.2-6.7,8.4-11.2,15.7-11.2H401
		c7.3,0,13.4,4.5,15.7,11.2l13.4,42c0.6,1.7-0.6,3.9-2.8,3.9H272.7c-2.2,0-3.4-1.7-2.8-3.9L283.4,53.2z M262.6,141.7
		c0-5,4.5-9.5,10.1-8.4l26.3,4.5c3.4,0.6,6.2,3.4,7.3,6.7l1.7,9c1.1,5.6-2.8,10.6-8.4,10.6H271c-4.5,0-8.4-3.9-8.4-8.4L262.6,141.7z
		"/>
	<path class="st0" d="M257.6,326.5c0,33.1-26.8,59.9-59.9,59.9s-59.9-26.8-59.9-59.9s26.8-59.9,59.9-59.9S257.6,293.4,257.6,326.5"
		/>
	<path class="st0" d="M259.8,417.2c-11.2-8.4-24.6-14-39.8-14h-44.8c-32.5,0-59.4,24.1-63.3,56.6l-6.2,52.1
		c-1.1,6.7,3.4,12.9,10.1,14.6c25.8,5.6,53.2,8.4,81.8,8.4c11.2,0,22.4-0.6,33.6-1.1c-1.1-4.5-1.1-9-0.6-13.4l6.2-52.1
		C239.1,448,247.5,430.6,259.8,417.2L259.8,417.2z"/>
	<path class="st0" d="M562.2,326.5c0,33.1-26.8,59.9-59.9,59.9s-59.9-26.8-59.9-59.9s26.8-59.9,59.9-59.9S562.2,293.4,562.2,326.5"
		/>
	<path class="st0" d="M588,459.8c-3.4-32.5-30.8-56.6-63.3-56.6h-44.8c-15.1,0-28.6,5-39.8,14c12.3,13.4,20.7,31.4,23,50.4l6.2,52.1
		c0.6,4.5,0.6,9.5-0.6,13.4c11.2,1.1,21.8,1.1,33.6,1.1c28.6,0,56-2.8,81.8-8.4c6.7-1.7,11.2-7.8,10.1-14.6L588,459.8z"/>
	<path class="st0" d="M372.4,414.4h-44.8c-32.5,0-59.4,24.1-63.3,56.6l-6.2,52.1c-0.6,6.7,3.4,12.9,10.1,14.6
		c25.8,5.6,53.2,8.4,81.8,8.4c28.6,0,56-2.8,81.8-8.4c6.7-1.7,11.2-7.8,10.1-14.6l-6.2-52.1C432.3,439,404.9,414.4,372.4,414.4
		L372.4,414.4z"/>
	<path class="st0" d="M409.9,338.2c0,33.1-26.8,59.9-59.9,59.9s-59.9-26.8-59.9-59.9c0-33.1,26.8-59.9,59.9-59.9
		S409.9,305.1,409.9,338.2"/>
</g>
</svg>
